<?xml version="1.0" encoding="UTF-8"?>
<svg xmlns="http://www.w3.org/2000/svg" viewBox="0 0 629.16 261.01">
  <defs>
    <style>
      .cls-1 {
        fill: #cc1b81;
      }

      .cls-2 {
        fill: #231f20;
      }

      .cls-3 {
        opacity: .1;
      }

      .cls-3, .cls-4 {
        fill: #fff;
      }

      .cls-5 {
        stroke: #d1d3d4;
        stroke-width: .5px;
      }

      .cls-5, .cls-6 {
        fill: none;
        stroke-miterlimit: 10;
      }

      .cls-6 {
        stroke: #cc1b81;
        stroke-dasharray: 2 5;
        stroke-linecap: round;
      }
    </style>
  </defs>
  <rect class="cls-2" width="629.16" height="261.01"/>
  <g id="Layer_1" data-name="Layer 1">
    <g>
      <path class="cls-4" d="M116.34,242.49c-13.75-34.5-28.75-70.5-28.75-108.5s15.25-74.25,29-109.25h15.5c-11.25,36-23,72.5-23,110.5,0,33.5,11.75,75.25,23,107.25h-15.75Z"/>
      <path class="cls-3" d="M215.59,205.49c-1-5.25-2-12.5-2.25-17.75-10.5,15.25-24.5,20.5-42.75,20.5-23.5,0-44.25-11.75-44.25-37.5,0-37.75,41.5-42.25,72.25-42.25,4.5,0,9,.25,12.5.5v-7.5c0-19.5-7-30.5-27.75-30.5-15.5,0-24.75,5.75-26.25,22.25h-21.5c1.25-27.5,23.5-36.5,47.25-36.5,32.25,0,48,12.25,48,45.25v46.5c0,16.5,2.25,31.25,4,37h-19.25ZM199.84,141.74c-19.5,0-51.5,2.25-51.5,28,0,15.5,13.25,23.75,27.75,23.75,31.75,0,35-25.75,35-51.25-5.25-.5-7.75-.5-11.25-.5Z"/>
      <path class="cls-4" d="M251.34,242.49h-15.75c10.5-35,23-70.25,23-107.25s-11.75-74.75-23.25-110.5h15.75c14.25,34.5,29,70.75,29,108.75s-14.75,74.75-28.75,109Z"/>
    </g>
    <g>
      <path class="cls-4" d="M414.52,21.97c-21.78,28.45-39.56,65.68-39.56,111.9,0,42.23,14.44,81.37,39.56,114.66h-22.31c-18.88-25.2-37.63-64.4-37.63-114.91s19.17-87.34,37.63-111.65h22.31Z"/>
      <path class="cls-3" d="M503.46,177.85c0,11.53,1,24,1.75,27.65h-20.94c-1-2.82-1.75-8.85-2.07-16.59-4.43,8.45-14.54,19.59-39.14,19.59-29.89,0-42.65-19.46-42.65-38.74,0-28.3,22.22-41.24,59.9-41.24h21.62v-10.8c0-11.17-3.57-24.82-27.29-24.82-21.18,0-24.75,10.51-27.06,20.4h-21.18c1.68-17.47,12.48-37.66,48.93-37.57,30.98.09,48.13,12.71,48.13,41.54v60.59ZM482.1,143.69h-20.52c-25.27,0-38.8,6.98-38.8,24.85,0,13.18,9.04,22.78,24.68,22.78,30.53,0,34.64-20.56,34.64-43.58v-4.06Z"/>
      <path class="cls-4" d="M501.86,248.52c21.78-28.45,39.56-65.68,39.56-111.9,0-42.23-14.44-81.37-39.56-114.66h22.31c18.89,25.2,37.63,64.4,37.63,114.91s-19.17,87.34-37.63,111.65h-22.31Z"/>
    </g>
    <line class="cls-5" x1="63.41" y1="205.89" x2="584.96" y2="205.89"/>
    <line class="cls-5" x1="63.41" y1="242.74" x2="584.96" y2="242.74"/>
    <line class="cls-5" x1="63.41" y1="248.77" x2="584.96" y2="248.77"/>
    <path class="cls-5" d="M63.41,24.75h521.55"/>
    <line class="cls-5" x1="63.41" y1="21.95" x2="584.96" y2="21.95"/>
    <path class="cls-6" d="M546.82,235.9c9.2-16.16,21.07-42,25.4-75.61,4.25-33-.71-58.48-2.36-66.16-6.25-29.15-18.12-50.8-26.58-63.8"/>
    <path class="cls-6" d="M270.69,36.83c6.54,12.47,14.34,30.24,19.49,52.57,7.7,33.36,5.58,59.99,4.73,68.52-3.48,34.77-15.26,61.56-24.22,77.98"/>
    <path class="cls-1" d="M237.32,235.9h16.76l-2.74,6.59h-15.75s1.73-6.81,1.73-6.59Z"/>
    <path class="cls-1" d="M130.37,235.9h-16.76s2.74,6.59,2.74,6.59h15.75s-1.73-6.81-1.73-6.59Z"/>
    <path class="cls-1" d="M392.09,248.52h22.52s-4.54-5.9-4.98-6.71h-22.26l4.73,6.71Z"/>
    <path class="cls-1" d="M524.34,248.52h-22.52s4.54-5.9,4.98-6.71h22.26s-4.73,6.71-4.73,6.71Z"/>
  </g>
</svg>