<?xml version="1.0" encoding="UTF-8"?>
<svg id="Layer_1" data-name="Layer 1" xmlns="http://www.w3.org/2000/svg" viewBox="0 0 175 119.69">
  <defs>
    <style>
      .cls-1 {
        fill: #231f20;
      }

      .cls-2 {
        fill: #ed1b83;
      }

      .cls-3 {
        fill: #2bb673;
      }
    </style>
  </defs>
  <rect class="cls-1" x="0" y="0" width="174.99" height="119.69"/>
  <g>
    <path class="cls-3" d="M29.54,92.79V20.49h8.8v72.3h-8.8ZM63.24,92.79l-24.6-28.5,22.7-22.1h11.2l-23.5,21.8,25.5,28.8h-11.3Z"/>
    <path class="cls-2" d="M118.76,66.29c4.2-5,15.4-16.7,22.2-24.2h10.5l-19.1,19.7,21.3,31h-10.3l-17-25.3-7.6,7.3v18h-8.8V19.39h8.8v46.9Z"/>
  </g>
  <g>
    <path class="cls-3" d="M56.98,7.98c0-1-.08-1.02-.53-1.1l-.16-.03c-.07-.07-.06-.23.02-.27.38.02.8.03,1.22.03s.85,0,1.27-.03c.08.04.09.2.02.27l-.21.03c-.45.06-.53.09-.53,1.1v2.17c0,1.31.4,2.41,1.71,2.41,1.24,0,1.75-.94,1.75-2.38v-1.18c0-.71,0-1.59-.18-1.87-.08-.14-.24-.21-.47-.25l-.19-.03c-.09-.07-.08-.24.02-.27.32.02.68.03,1.05.03.4,0,.65,0,1-.03.08.05.09.2.02.27l-.21.05c-.18.04-.35.08-.42.23-.13.28-.13,1.12-.13,1.87v1.13c0,.86-.13,1.66-.62,2.19-.49.53-1.2.71-1.86.71-.89,0-1.52-.19-1.95-.61-.43-.41-.63-1.07-.63-2.03v-2.41Z"/>
    <path class="cls-3" d="M64.45,11.75c0,.7.04.81.36.86l.14.02c.07.07.06.24-.02.27-.33-.02-.65-.03-1-.03-.3,0-.62,0-1.02.03-.08-.04-.08-.21-.02-.27l.21-.03c.32-.05.36-.15.36-.85v-1.39c0-.43,0-.54-.24-.68l-.11-.07s-.03-.17,0-.22c.41-.11.93-.34,1.23-.51.07,0,.1.04.12.08-.02.18-.02.36-.02.44,0,.07.03.08.08.09.45-.25.71-.47,1.3-.47.77,0,1.13.53,1.13,1.27v1.47c0,.7.04.81.36.85l.22.03c.07.07.06.24-.02.27-.4-.02-.72-.03-1.07-.03-.31,0-.63,0-.97.03-.08-.04-.08-.21-.02-.27l.14-.02c.32-.05.36-.16.36-.86v-1.31c0-.48-.19-.86-.76-.86-.29,0-.53.15-.62.29-.12.17-.13.26-.13.61v1.27Z"/>
    <path class="cls-3" d="M69.5,11.75c0,.7.04.8.36.85l.17.03c.07.07.06.24-.02.27-.35-.02-.67-.03-1.02-.03-.31,0-.63,0-1,.03-.08-.04-.08-.21-.02-.27l.17-.03c.32-.06.36-.15.36-.85v-1.39c0-.43,0-.54-.24-.68l-.11-.07s-.03-.17,0-.22c.49-.14.97-.35,1.23-.51.06,0,.1.03.13.08-.02.31-.03.77-.03,1.16v1.64ZM68.42,7.57c0-.32.24-.57.58-.57s.58.25.58.57-.24.57-.58.57-.58-.25-.58-.57Z"/>
    <path class="cls-3" d="M72.96,11.84c-.15.34-.33.79-.45,1.11-.04.04-.09.06-.16.06s-.12-.02-.17-.06c-.09-.27-.25-.63-.36-.88l-.91-2.06c-.19-.41-.29-.53-.58-.59l-.18-.04c-.07-.07-.06-.23.02-.27.33.02.66.03,1,.03.43,0,.71,0,1.04-.03.09.04.1.21.02.27l-.17.03c-.13.02-.24.05-.24.1s.02.16.08.3c.13.35.62,1.53.76,1.81.23-.47.46-1.05.7-1.65.09-.24.13-.36.13-.43s-.08-.1-.2-.12l-.23-.05c-.08-.08-.07-.24.04-.27.29.02.52.03.8.03.25,0,.48,0,.69-.03.08.04.09.21.02.27l-.19.04c-.28.06-.42.12-.71.77l-.75,1.65Z"/>
    <path class="cls-3" d="M75.65,10.63c-.18,0-.2,0-.2.12,0,.85.59,1.54,1.43,1.54.38,0,.69-.12.91-.47.09-.03.2.07.21.15-.32.76-1.02,1.04-1.6,1.04-1.1,0-1.83-.81-1.83-1.9s.73-2.1,2-2.1c.7,0,1.42.46,1.42,1.28,0,.09,0,.14-.05.22-.06.09-.27.12-.65.12h-1.64ZM76.52,10.25c.27,0,.4-.03.46-.07.06-.04.09-.11.09-.2,0-.34-.22-.62-.62-.62-.63,0-.93.62-.93.81,0,.04.02.07.13.07h.86Z"/>
    <path class="cls-3" d="M78.99,10.35c0-.43,0-.54-.24-.68l-.11-.07s-.03-.17,0-.22c.41-.13.91-.34,1.19-.51.06,0,.11.03.13.08,0,.18-.02.34-.02.43,0,.07.04.11.09.11.29-.21.61-.49.93-.49s.52.22.52.46c0,.37-.27.55-.53.55-.09,0-.18-.03-.26-.08-.24-.16-.4-.18-.46-.18-.22,0-.28.22-.28.68v1.3c0,.7.04.81.37.84l.37.04c.07.07.06.24-.02.27-.57-.02-.89-.03-1.24-.03-.31,0-.63,0-.99.03-.08-.04-.09-.21-.02-.27l.17-.03c.32-.06.36-.15.36-.85v-1.39Z"/>
    <path class="cls-3" d="M81.92,12.7c-.09-.18-.15-.66-.13-1.07.06-.08.2-.09.26-.02.17.53.52,1.03,1.02,1.03.29,0,.53-.2.53-.53,0-.35-.31-.58-.64-.74-.49-.24-1-.59-1-1.19,0-.74.63-1.18,1.41-1.18.39,0,.75.11.88.19.09.2.14.49.14.92-.03.08-.19.1-.26.05-.14-.44-.45-.8-.81-.8-.3,0-.53.22-.53.49s.28.47.63.64c.51.25,1.05.57,1.05,1.32,0,.82-.73,1.18-1.48,1.18-.39,0-.78-.08-1.08-.3Z"/>
    <path class="cls-2" d="M91.3,10.55c-.25,0-.24,0-.32.26l-.38,1.14c-.19.56-.07.58.28.63l.27.05c.07.07.06.24-.02.27-.3-.02-.66-.02-1.05-.03-.31,0-.61,0-.94.03-.07-.05-.08-.19,0-.27l.29-.05c.27-.05.38-.12.52-.44.11-.25.27-.64.46-1.16l1.3-3.37c.11-.3.21-.53.18-.69.33-.07.64-.46.66-.46.08,0,.12.03.16.08.15.43.28.87.43,1.3l1.36,3.97c.22.63.27.69.75.79l.14.03c.08.07.08.23,0,.27-.39-.02-.74-.03-1.23-.03-.41,0-.82.02-1.16.03-.08-.05-.08-.22-.03-.27l.21-.03c.34-.05.39-.1.25-.5l-.45-1.29c-.09-.26-.12-.26-.39-.26h-1.31ZM92.49,10.13c.26,0,.3-.02.23-.25l-.4-1.14c-.17-.5-.23-.72-.27-.79h-.02c-.04.07-.13.34-.29.79l-.43,1.11c-.09.27-.08.27.15.27h1.03Z"/>
    <path class="cls-2" d="M98.65,9.14c.12.11.19.27.19.48,0,.3-.16.45-.24.45-.07,0-.11-.02-.18-.1-.21-.27-.49-.58-.86-.58-.54,0-1.1.53-1.1,1.42,0,.77.49,1.5,1.35,1.5.62,0,.83-.23,1.02-.5.09,0,.19.06.2.17-.34.77-1.07,1.03-1.67,1.03-.5,0-1-.2-1.32-.51-.33-.32-.55-.81-.55-1.36,0-1.11.81-2.12,2.33-2.12.27,0,.55.04.81.13Z"/>
    <path class="cls-2" d="M103.22,11.48c0,.53,0,1,.24,1,.13,0,.28-.03.41-.07.08.05.09.25-.03.32-.42.05-1.15.17-1.55.36-.05,0-.08-.05-.08-.09.02-.11.04-.26.03-.35,0-.08-.04-.1-.09-.1-.4.24-.81.46-1.29.46-.85,0-1.13-.47-1.13-1.26v-1.48c0-.66-.04-.74-.28-.81l-.13-.04c-.06-.05-.06-.22.02-.25.57,0,1.11-.1,1.32-.17.05,0,.08.04.09.09-.02.11-.03.34-.03.81v1.46c0,.56.1,1.08.78,1.08.22,0,.46-.08.63-.24.09-.09.11-.18.11-.53v-1.43c0-.61-.06-.64-.42-.76l-.15-.05c-.07-.05-.07-.22,0-.26.63,0,1.3-.08,1.49-.17.05,0,.08.04.09.09-.02.18-.03.45-.03.81v1.58Z"/>
    <path class="cls-2" d="M104.76,10.35c0-.43,0-.54-.24-.68l-.11-.07s-.03-.17,0-.22c.42-.11.93-.34,1.23-.51.07,0,.1.04.12.08-.02.18-.02.36-.02.44,0,.07.03.08.08.09.46-.25.71-.47,1.36-.47.41,0,.72.22.85.4.06.09.11.14.15.14s.09-.03.21-.09c.45-.27.77-.45,1.21-.45.8,0,1.16.53,1.16,1.27v1.47c0,.7.04.81.36.85l.21.03c.08.07.04.24,0,.27-.41-.02-.73-.03-1.08-.03-.31,0-.63,0-.98.03-.08-.04-.08-.21-.02-.27l.15-.03c.32-.06.36-.15.36-.85v-1.29c0-.5-.17-.88-.77-.88-.28,0-.52.14-.64.28-.09.11-.11.23-.11.49v1.39c0,.7.04.81.36.86l.14.02c.07.07.06.24-.02.27-.33-.02-.64-.03-1-.03-.31,0-.63,0-.95.03-.08-.04-.09-.21-.02-.27l.12-.02c.32-.05.36-.16.36-.86v-1.29c0-.5-.17-.88-.72-.88-.32,0-.57.15-.67.29-.11.15-.12.24-.12.61v1.27c0,.7.04.81.36.86l.14.02c.07.07.06.24-.02.27-.33-.02-.65-.03-1-.03-.31,0-.62,0-.99.03-.08-.04-.08-.21-.02-.27l.17-.03c.32-.06.36-.15.36-.85v-1.39Z"/>
    <path class="cls-2" d="M113.32,11.75c0,.7.04.8.36.85l.17.03c.07.07.06.24-.02.27-.35-.02-.67-.03-1.02-.03-.31,0-.63,0-1,.03-.08-.04-.08-.21-.02-.27l.17-.03c.32-.06.36-.15.36-.85v-1.39c0-.43,0-.54-.24-.68l-.11-.07s-.03-.17,0-.22c.49-.14.97-.35,1.23-.51.06,0,.1.03.13.08-.02.31-.03.77-.03,1.16v1.64ZM112.24,7.57c0-.32.24-.57.58-.57s.58.25.58.57-.24.57-.58.57-.58-.25-.58-.57Z"/>
    <path class="cls-2" d="M115.86,11.75c0,.7.04.81.36.86l.14.02c.07.07.06.24-.02.27-.33-.02-.65-.03-1-.03-.3,0-.62,0-1.02.03-.08-.04-.08-.21-.02-.27l.21-.03c.32-.05.36-.15.36-.85v-1.39c0-.43,0-.54-.24-.68l-.11-.07s-.03-.17,0-.22c.41-.11.93-.34,1.23-.51.07,0,.1.04.12.08-.02.18-.02.36-.02.44,0,.07.03.08.08.09.45-.25.71-.47,1.3-.47.77,0,1.13.53,1.13,1.27v1.47c0,.7.04.81.36.85l.22.03c.07.07.06.24-.02.27-.4-.02-.72-.03-1.07-.03-.31,0-.63,0-.97.03-.08-.04-.08-.21-.02-.27l.14-.02c.32-.05.36-.16.36-.86v-1.31c0-.48-.19-.86-.76-.86-.29,0-.53.15-.62.29-.12.17-.13.26-.13.61v1.27Z"/>
  </g>
</svg>