<?xml version="1.0" encoding="UTF-8"?>
<svg id="Layer_1" data-name="Layer 1" xmlns="http://www.w3.org/2000/svg" viewBox="0 0 175 119.69">
  <defs>
    <style>
      .cls-1 {
        fill: none;
        stroke: #949598;
        stroke-miterlimit: 10;
        stroke-width: .5px;
      }

      .cls-2 {
        fill: #cc1a81;
      }

      .cls-3 {
        fill: #221f20;
      }

      .cls-4 {
        fill: #fff;
      }
    </style>
  </defs>
  <rect class="cls-3" x="0" y="0" width="174.99" height="119.69"/>
  <path class="cls-4" d="M71.45,95.9l-7.5-19.1H28.94l-7.4,19.1h-9.5L41.44,23.6h10.3l30.5,72.3h-10.8ZM46.04,31.7l-14.5,38h29.5l-15-38Z"/>
  <polygon class="cls-4" points="63.95 76.8 61.04 69.7 31.54 69.7 28.94 76.8 63.95 76.8"/>
  <path class="cls-4" d="M113.35,75.01l-7.5,20.9h-9.2l24.8-69.6h11.3l25.9,69.6h-9.9l-7.7-20.9h-27.7ZM138.75,67.11c-6.7-18.3-10.3-28-11.8-33.3h-.1c-1.7,5.9-5.8,17.7-11.1,33.3h23Z"/>
  <path class="cls-1" d="M98.58,95.98c24.51.23,42.82.32,67.33.29"/>
  <path class="cls-1" d="M9.09,96c25.93.22,51.85.3,77.78.25"/>
  <path class="cls-1" d="M9.14,23.58c25.79-.13,51.58-.19,77.36-.15"/>
  <path class="cls-1" d="M97.93,26.31c24.72.03,43.24.05,67.96.05"/>
  <polygon class="cls-2" points="141.09 75.03 138.75 67.11 115.75 67.11 113.35 75.01 141.09 75.03"/>
  <polygon class="cls-2" points="63.95 76.8 61.04 69.7 31.54 69.7 28.94 76.8 63.95 76.8"/>
</svg>