<?xml version="1.0" encoding="UTF-8"?>
<svg xmlns="http://www.w3.org/2000/svg" viewBox="0 0 629.16 261.01">
  <defs>
    <style>
      .cls-1 {
        fill: #cc1b81;
      }

      .cls-2 {
        fill: #231f20;
      }

      .cls-3 {
        opacity: .1;
      }

      .cls-3, .cls-4 {
        fill: #fff;
      }

      .cls-5 {
        stroke: #d1d3d4;
        stroke-width: .5px;
      }

      .cls-5, .cls-6 {
        fill: none;
        stroke-miterlimit: 10;
      }

      .cls-6 {
        stroke: #cc1b81;
        stroke-dasharray: 2 5;
        stroke-linecap: round;
      }
    </style>
  </defs>
  <rect class="cls-2" width="629.16" height="261.01"/>
  <g id="Layer_1" data-name="Layer 1">
    <g>
      <path class="cls-3" d="M214.59,205.49c-1-5.25-2-12.5-2.25-17.75-10.5,15.25-24.5,20.5-42.75,20.5-23.5,0-44.25-11.75-44.25-37.5,0-37.75,41.5-42.25,72.25-42.25,4.5,0,9,.25,12.5.5v-7.5c0-19.5-7-30.5-27.75-30.5-15.5,0-24.75,5.75-26.25,22.25h-21.5c1.25-27.5,23.5-36.5,47.25-36.5,32.25,0,48,12.25,48,45.25v46.5c0,16.5,2.25,31.25,4,37h-19.25ZM198.84,141.74c-19.5,0-51.5,2.25-51.5,28,0,15.5,13.25,23.75,27.75,23.75,31.75,0,35-25.75,35-51.25-5.25-.5-7.75-.5-11.25-.5Z"/>
      <path class="cls-4" d="M290.09,148.24c-9.25,7-9.5,20.75-9.5,31.5,0,39-4,60.5-50.5,63v-12.5c28-1.5,31.75-18.25,31.75-42.5,0-6.75,0-13.25.5-19.25s1.5-11.5,3.5-16.25c4-9.25,11.75-16,27.25-18.5-38.25-6-29-40.75-31.75-66.75-.5-5.25-1.5-10-3.5-14.25-4-8.5-11.75-14.5-27.75-15.5v-12.5c39.25,2,48,20,50,40.5,1,10.25.25,20.75.75,30.25s2.5,17.5,8.5,22.75c6.75,5.75,15.75,8.75,24.75,9v12.75c-8.25.5-17.5,3.25-24,8.25Z"/>
    </g>
    <g>
      <path class="cls-3" d="M432.94,177.85c0,11.53,1,24,1.75,27.65h-20.94c-1-2.82-1.75-8.85-2.07-16.59-4.43,8.45-14.54,19.59-39.14,19.59-29.89,0-42.65-19.46-42.65-38.74,0-28.3,22.22-41.24,59.9-41.24h21.62v-10.8c0-11.17-3.57-24.82-27.29-24.82-21.18,0-24.75,10.51-27.06,20.4h-21.18c1.68-17.47,12.48-37.66,48.93-37.57,30.98.09,48.13,12.71,48.13,41.54v60.59ZM411.57,143.69h-20.52c-25.27,0-38.8,6.98-38.8,24.85,0,13.18,9.04,22.78,24.68,22.78,30.53,0,34.64-20.56,34.64-43.58v-4.06Z"/>
      <path class="cls-4" d="M516.04,144.73c-24.06,0-27.63,11.32-27.63,28.13v32.34c0,29.42-17.77,43.58-43.04,43.58h-5.36v-16.67h4.06c17,0,23.87-10.04,23.87-27.81v-31.12c0-20.5,7.59-33.89,24.46-37.3-17.3-3.9-24.46-15.92-24.46-37.72v-30.8c0-18.9-9.74-28.72-24.3-28.72h-3.63v-16.67h5.36c21.88,0,43.04,11.66,43.04,43.56v32.95c0,15.81,2.77,27.95,27.63,28.04v18.21Z"/>
    </g>
    <line class="cls-5" x1="63.41" y1="205.89" x2="584.96" y2="205.89"/>
    <line class="cls-5" x1="63.41" y1="242.74" x2="584.96" y2="242.74"/>
    <line class="cls-5" x1="63.41" y1="248.77" x2="584.96" y2="248.77"/>
    <line class="cls-5" x1="63.41" y1="24.75" x2="584.96" y2="24.75"/>
    <line class="cls-5" x1="63.41" y1="21.95" x2="584.96" y2="21.95"/>
    <line class="cls-6" x1="318.37" y1="129.79" x2="318.4" y2="141.82"/>
    <line class="cls-6" x1="521.77" y1="128.05" x2="521.72" y2="147.1"/>
    <path class="cls-1" d="M440.02,232.11v16.66s15.13,0,18.08-1.33l-3.66-16.99s-3.39,2.02-14.42,1.65Z"/>
    <path class="cls-1" d="M230.09,230.24s6.42-.48,9.3-1.26l1.44,12.74s-6.08,1.02-10.74,1.02v-12.5Z"/>
  </g>
</svg>