<?xml version="1.0" encoding="UTF-8"?>
<svg xmlns="http://www.w3.org/2000/svg" viewBox="0 0 629.16 262.53">
  <defs>
    <style>
      .cls-1 {
        stroke: #d1d3d4;
        stroke-width: .5px;
      }

      .cls-1, .cls-2 {
        fill: none;
        stroke-miterlimit: 10;
      }

      .cls-3 {
        fill: #bb337f;
      }

      .cls-4 {
        fill: #fff;
      }

      .cls-5 {
        fill: #202020;
      }

      .cls-2 {
        stroke: #bb337f;
        stroke-dasharray: 2 5;
        stroke-linecap: round;
      }
    </style>
  </defs>
  <rect class="cls-5" width="629.16" height="262.53"/>
  <g id="Layer_1" data-name="Layer 1">
    <g>
      <path class="cls-3" d="M210.88,132.95c-20.75,0-38.75,12.25-38.75,35.5s17.5,35.75,38.5,35.75,39.75-12.5,39.75-36-18.5-35.25-39.5-35.25Z"/>
      <path class="cls-3" d="M401.23,120.74c19.64,0,28.52-9.43,28.52-24.91,0-14.42-9.13-26.5-28.93-26.5-20.85,0-29.32,10.61-29.32,25.85,0,13.89,8.88,25.56,29.73,25.56Z"/>
      <path class="cls-3" d="M248.13,83.45c0-21.75-17-33-36.25-33s-37,11.25-37,33.5,17.75,31.75,36.75,31.75,36.5-11,36.5-32.25Z"/>
      <path class="cls-3" d="M400.41,139.38c-24.09,0-35.1,13.76-35.1,31.76s12.92,32.35,35.2,32.35c20.55,0,34.92-11.02,34.92-32.26s-13.33-31.85-35.03-31.85Z"/>
      <path class="cls-3" d="M211.63,221.7c-32,0-62.5-14.5-62.5-51.25,0-25.5,16.25-40.75,38.75-46.25-20.25-6-35.25-16.5-35.25-40.75,0-34.25,31.5-49.5,59.25-49.5s58.5,14.5,58.5,47.75c0,23.25-14.75,36.75-35,42.25,22,6,38.25,18.25,38.25,44.25,0,36.25-30.75,53.5-62,53.5ZM399.3,221.7c-31.9,0-56.53-18.95-56.53-49.53,0-23.25,15.63-36.64,29.8-42.14-14.35-7.03-22.82-18.47-22.82-34.9,0-25.43,17.93-43.93,51.81-43.93,30.95,0,49.91,18.15,49.91,43.59,0,17.64-9.59,29.13-22.92,34.2,15.52,5.06,29.32,20.5,29.32,42.41,0,31.43-24.36,50.3-58.57,50.3Z"/>
    </g>
    <path class="cls-4" d="M342.78,172.17c0-23.25,15.63-36.64,29.8-42.14-14.35-7.03-22.82-18.47-22.82-34.9,0-25.43,17.93-43.93,51.81-43.93,30.95,0,49.91,18.15,49.91,43.59,0,17.64-9.59,29.13-22.92,34.2,15.52,5.06,29.32,20.5,29.32,42.41,0,31.43-24.36,50.3-58.57,50.3-31.9,0-56.53-18.95-56.53-49.53ZM435.43,171.23c0-20.9-13.33-31.85-35.03-31.85-24.09,0-35.1,13.76-35.1,31.76s12.92,32.35,35.2,32.35c20.55,0,34.92-11.02,34.92-32.26ZM371.49,95.18c0,13.89,8.88,25.56,29.73,25.56,19.64,0,28.52-9.43,28.52-24.91,0-14.42-9.13-26.5-28.93-26.5-20.85,0-29.32,10.61-29.32,25.85Z"/>
    <path class="cls-4" d="M211.63,221.7c-32,0-62.5-14.5-62.5-51.25,0-25.5,16.25-40.75,38.75-46.25-20.25-6-35.25-16.5-35.25-40.75,0-34.25,31.5-49.5,59.25-49.5s58.5,14.5,58.5,47.75c0,23.25-14.75,36.75-35,42.25,22,6,38.25,18.25,38.25,44.25,0,36.25-30.75,53.5-62,53.5ZM210.88,132.95c-20.75,0-38.75,12.25-38.75,35.5s17.5,35.75,38.5,35.75,39.75-12.5,39.75-36-18.5-35.25-39.5-35.25ZM211.88,50.45c-19.5,0-37,11.25-37,33.5s17.75,31.75,36.75,31.75,36.5-11,36.5-32.25-17-33-36.25-33Z"/>
    <line class="cls-1" x1="85.31" y1="219.25" x2="537.21" y2="219.25"/>
    <line class="cls-1" x1="85.31" y1="33.95" x2="537.21" y2="33.95"/>
    <line class="cls-1" x1="85.31" y1="51.2" x2="537.21" y2="51.2"/>
    <path class="cls-2" d="M261.29,120.74c6.79-3.71,16.94-14.39,17.72-37.66.66-19.72-7.53-32.36-12.41-34.87"/>
    <path class="cls-2" d="M445.15,127.83c6.79-3.71,14.42-12.34,15.2-35.61.66-19.72-11.22-32.93-16.09-35.44"/>
    <path class="cls-2" d="M156.73,129.44c-3.47,3.24-8.87,9.12-12.62,17.94-3.95,9.27-4.13,17.19-4.21,23.48-.1,7.55-.2,15.8,4.21,25.03,4.02,8.4,9.88,13.64,13.51,16.39"/>
    <path class="cls-2" d="M349.01,136.45c-3.12,2.46-8.04,7.04-11.43,14.25-3.62,7.69-3.64,14.38-3.65,20.73-.02,7.12-.04,16.61,5.48,26.82,4.61,8.53,11.07,13.82,15.65,16.84"/>
  </g>
</svg>