<?xml version="1.0" encoding="UTF-8"?>
<svg id="Layer_1" data-name="Layer 1" xmlns="http://www.w3.org/2000/svg" viewBox="0 0 1779.8 1064.77">
  <defs>
    <style>
      .cls-1, .cls-2, .cls-3, .cls-4, .cls-5, .cls-6, .cls-7 {
        fill: none;
        stroke-miterlimit: 10;
      }

      .cls-1, .cls-2, .cls-3, .cls-4, .cls-6, .cls-7 {
        stroke: #ed1b83;
        stroke-linecap: round;
      }

      .cls-8 {
        fill: #231f20;
      }

      .cls-2, .cls-5, .cls-7 {
        stroke-width: .5px;
      }

      .cls-3 {
        stroke-dasharray: .8 2.01;
      }

      .cls-9 {
        fill: #fbb040;
      }

      .cls-4 {
        stroke-dasharray: .8 2;
      }

      .cls-10 {
        fill: #ed1b83;
      }

      .cls-11 {
        fill: #fff;
      }

      .cls-5 {
        stroke: #939598;
      }

      .cls-12 {
        opacity: .7;
      }

      .cls-6 {
        stroke-dasharray: .78 1.95;
      }

      .cls-7 {
        stroke-dasharray: .79 1.97;
      }

      .cls-13 {
        fill: #fcfbe6;
      }

      .cls-14 {
        fill: #2bb673;
      }

      .cls-15 {
        fill: #39b54a;
      }
    </style>
  </defs>
  <rect class="cls-8" x="1345.73" y="306.09" width="174.99" height="119.69"/>
  <rect class="cls-8" x="1345.73" y="145.41" width="174.99" height="119.69"/>
  <rect class="cls-8" x="1345.73" y="455.54" width="174.99" height="119.69"/>
  <g>
    <path class="cls-11" d="M202.34,230.22l-.9-2.29h-4.2l-.89,2.29h-1.14l3.53-8.67h1.24l3.66,8.67h-1.3ZM199.3,222.52l-1.74,4.56h3.54l-1.8-4.56Z"/>
    <path class="cls-11" d="M199.25,244.62h-2.91v-8.67h3.06c1.35,0,2.76.6,2.76,2.17,0,1.08-.62,1.7-1.62,1.97,1.19.22,1.97.83,1.97,2.12,0,1.96-1.65,2.41-3.25,2.41ZM199.29,236.84h-1.85v2.89h1.68c1.01,0,1.87-.37,1.87-1.51,0-1.01-.79-1.38-1.7-1.38ZM199.27,240.56h-1.83v3.18h1.49c1.15,0,2.4-.12,2.4-1.57,0-1.28-.92-1.61-2.05-1.61Z"/>
    <path class="cls-11" d="M199.57,259.15c-2.67,0-3.8-1.94-3.8-4.39s1.27-4.56,3.87-4.56c1.44,0,2.99.73,3.03,2.37h-1.19c-.1-1-.94-1.45-1.86-1.45-1.96,0-2.67,1.92-2.67,3.59s.64,3.51,2.64,3.51c1.12,0,1.87-.62,1.93-1.54h1.21c-.22,1.81-1.54,2.46-3.17,2.46Z"/>
    <path class="cls-11" d="M199.89,273.37c-.48.05-.98.05-1.46.05h-2.09v-8.67h2.54c.76,0,1.7.07,2.4.36,1.66.68,2.19,2.18,2.19,3.95,0,2.38-1.1,4.07-3.59,4.32ZM201.06,266.13c-.65-.47-1.5-.52-2.25-.52h-1.34v6.93h1.56c2.36,0,3.27-1.22,3.27-3.49,0-1.1-.29-2.24-1.24-2.93Z"/>
    <path class="cls-11" d="M196.34,287.82v-8.67h5.37v.88h-4.26v2.88h4.08v.88h-4.08v3.17h4.43v.88h-5.54Z"/>
    <path class="cls-11" d="M197.45,294.43v2.9h3.87v.86h-3.87v4.03h-1.12v-8.67h5.18v.88h-4.07Z"/>
    <path class="cls-11" d="M199.93,316.72c-2.72,0-4.16-1.86-4.16-4.46,0-2.46,1.37-4.49,4.01-4.49,1.58,0,2.91.73,3.06,2.45h-1.18c-.17-1.06-.9-1.55-1.93-1.55-1.99,0-2.75,1.8-2.75,3.53,0,1.9.86,3.63,2.99,3.63.62,0,1.25-.08,1.85-.26v-2.58h-2.07v-.85h3.17v4.1c-.97.26-1.97.48-2.97.48Z"/>
    <path class="cls-11" d="M201.95,331.02v-4.01h-4.49v4.01h-1.13v-8.67h1.13v3.78h4.49v-3.78h1.13v8.67h-1.13Z"/>
    <path class="cls-11" d="M196.34,345.42v-8.67h1.13v8.67h-1.13Z"/>
    <path class="cls-11" d="M197.73,359.94c-1.33,0-2.48-.74-2.48-2.35h1.15c0,.77.36,1.46,1.37,1.46,1.15,0,1.49-.84,1.49-1.86v-6.04h1.13v6.07c0,1.75-.85,2.72-2.65,2.72Z"/>
    <path class="cls-11" d="M196.34,374.22v-8.67h1.13v8.67h-1.13ZM201.51,374.22l-4.02-4.71,3.65-3.96h1.44l-3.8,3.89,4.21,4.79h-1.48Z"/>
    <path class="cls-11" d="M196.34,388.62v-8.67h1.13v7.8h4.26v.88h-5.39Z"/>
    <path class="cls-11" d="M204.52,403.02v-7.81l-3.06,7.81h-1.03l-3.07-7.82v7.82h-1.02v-8.67h1.8l2.85,7.33,2.78-7.33h1.8v8.67h-1.06Z"/>
    <path class="cls-11" d="M201.66,417.42l-4.31-7.52v7.52h-1.02v-8.67h1.51l4.31,7.54v-7.54h1.02v8.67h-1.51Z"/>
    <path class="cls-11" d="M199.68,431.97c-2.72,0-3.91-1.99-3.91-4.49s1.25-4.51,3.92-4.51,3.91,1.92,3.91,4.45-1.19,4.55-3.92,4.55ZM199.68,423.87c-2.03,0-2.72,1.85-2.72,3.59s.67,3.62,2.72,3.62,2.73-1.86,2.73-3.62-.65-3.59-2.73-3.59Z"/>
    <path class="cls-11" d="M200.63,442.29c-.46.17-1.01.23-1.57.23h-1.6v3.71h-1.13v-8.67h2.67c.74,0,1.51.01,2.16.43.71.46,1.04,1.25,1.04,2.06,0,1.06-.59,1.88-1.58,2.24ZM198.97,438.41h-1.51v3.23h1.19c1.21,0,2.39-.19,2.39-1.68,0-1.31-.95-1.55-2.06-1.55Z"/>
    <path class="cls-11" d="M202.5,460.61c-1,0-1.97.14-2.96.14-2.6,0-3.77-2.13-3.77-4.47,0-2.48,1.25-4.51,3.95-4.51s3.89,1.87,3.89,4.33c0,1.5-.46,2.88-1.71,3.78.67-.1,1.35-.12,2.05-.12v.86c-.49,0-.96-.01-1.44-.01ZM199.68,452.67c-2.03,0-2.72,1.85-2.72,3.59s.67,3.61,2.72,3.61,2.73-1.86,2.73-3.61-.65-3.59-2.73-3.59Z"/>
    <path class="cls-11" d="M201.3,475.02c-.28-.68-.29-1.42-.35-2.13-.12-1.27-.19-1.88-1.64-1.88h-1.85v4.02h-1.13v-8.67h3.09c1.42,0,2.91.43,2.91,2.13,0,1.15-.68,1.76-1.73,2.05,1.1.24,1.38.86,1.48,1.8.06.58.07,1.19.19,1.85.06.32.13.61.29.84h-1.27ZM199.18,467.21h-1.71v2.94h1.4c1.09,0,2.33-.17,2.33-1.54,0-1.21-1.02-1.4-2.02-1.4Z"/>
    <path class="cls-11" d="M198.88,489.54c-1.62,0-2.95-.67-3.07-2.45h1.16c.06,1.1.92,1.57,1.94,1.57.96,0,2.06-.43,2.06-1.54,0-.89-.82-1.27-1.72-1.55l-.74-.23c-1.23-.38-2.47-.85-2.47-2.35,0-1.71,1.55-2.39,3.05-2.39s2.83.53,2.85,2.19h-1.14c-.1-1.01-.82-1.34-1.73-1.34s-1.9.41-1.9,1.44c0,.77.83,1.15,1.48,1.37l.98.32c1.24.41,2.48.84,2.48,2.4,0,1.82-1.67,2.54-3.25,2.54Z"/>
    <path class="cls-11" d="M199.12,496.04v7.78h-1.12v-7.78h-2.76v-.89h6.64v.89h-2.77Z"/>
    <path class="cls-11" d="M199.71,518.38c-2.3,0-3.48-1.12-3.48-3.49v-5.34h1.18v5.18c0,.62.01,1.27.36,1.81.42.66,1.2.94,1.96.94.89,0,1.75-.4,2.11-1.25.2-.48.22-1.01.22-1.52v-5.16h1.14v5.36c0,2.22-1.25,3.47-3.48,3.47Z"/>
    <path class="cls-11" d="M199.81,532.62h-1.3l-3.29-8.67h1.22l2.76,7.59,2.76-7.59h1.12l-3.27,8.67Z"/>
    <path class="cls-11" d="M205.26,547.02h-1.43l-2.39-7.59-2.33,7.59h-1.46l-2.31-8.67h1.19l1.91,7.68,2.35-7.68h1.37l2.41,7.66,1.9-7.66h1.1l-2.3,8.67Z"/>
    <path class="cls-11" d="M201.76,561.42l-2.61-3.81-2.59,3.81h-1.31l3.19-4.51-3.06-4.16h1.39l2.39,3.5,2.35-3.5h1.29l-2.95,4.16,3.24,4.51h-1.33Z"/>
    <path class="cls-11" d="M199.54,572.24v3.59h-1.13v-3.63l-3.35-5.04h1.33l2.64,4.13,2.6-4.13h1.25l-3.35,5.09Z"/>
    <path class="cls-11" d="M195.41,590.22v-1l5.11-6.8h-4.79v-.88h6.03v.92l-5.15,6.87h5.29v.88h-6.5Z"/>
  </g>
  <g>
    <path class="cls-11" d="M213.95,227.85l-.9,2.51h-1.1l2.97-8.35h1.35l3.11,8.35h-1.19l-.92-2.51h-3.32ZM217,226.91c-.8-2.19-1.24-3.36-1.42-3.99h-.01c-.2.71-.7,2.12-1.33,3.99h2.76Z"/>
    <path class="cls-11" d="M212.81,236.41h3.2c1.76,0,2.58.94,2.58,2.09,0,.97-.55,1.6-1.2,1.82.59.18,1.48.77,1.48,1.99,0,1.57-1.2,2.45-2.78,2.45h-3.27v-8.35ZM215.8,239.89c1.21,0,1.68-.48,1.68-1.3,0-.74-.53-1.26-1.51-1.26h-2.08v2.55h1.91ZM213.89,243.85h2.06c1.04,0,1.77-.49,1.77-1.54,0-.9-.58-1.51-1.99-1.51h-1.85v3.05Z"/>
    <path class="cls-11" d="M219.42,256.8c-.37,1.42-1.43,2.47-3.32,2.47-2.49,0-3.75-1.9-3.75-4.26s1.26-4.32,3.79-4.32c1.97,0,3.03,1.13,3.29,2.52h-1.1c-.3-.91-.9-1.6-2.22-1.6-1.85,0-2.59,1.68-2.59,3.36s.71,3.37,2.64,3.37c1.28,0,1.85-.74,2.16-1.55h1.12Z"/>
    <path class="cls-11" d="M212.81,265.21h2.97c2.35,0,3.93,1.61,3.93,4.09s-1.55,4.26-3.97,4.26h-2.94v-8.35ZM213.91,272.63h1.75c1.97,0,2.89-1.42,2.89-3.3,0-1.64-.85-3.17-2.89-3.17h-1.75v6.46Z"/>
    <path class="cls-11" d="M218.04,284.06h-4.15v2.95h4.56l-.14.95h-5.49v-8.35h5.43v.95h-4.35v2.55h4.15v.95Z"/>
    <path class="cls-11" d="M212.81,294.01h5.36v.95h-4.27v2.71h3.99v.95h-3.99v3.74h-1.09v-8.35Z"/>
    <path class="cls-11" d="M219.58,316.76h-.85c-.06-.16-.1-.53-.11-1.13-.36.59-1.08,1.24-2.59,1.24-2.41,0-3.68-1.82-3.68-4.2,0-2.49,1.37-4.38,3.89-4.38,1.94,0,3.15,1.06,3.39,2.54h-1.1c-.29-.94-.95-1.62-2.31-1.62-1.93,0-2.7,1.55-2.7,3.41,0,1.71.77,3.32,2.65,3.32s2.34-1.25,2.34-2.65v-.1h-2.35v-.95h3.43v4.51Z"/>
    <path class="cls-11" d="M212.81,322.81h1.1v3.49h4.34v-3.49h1.12v8.35h-1.12v-3.91h-4.34v3.91h-1.1v-8.35Z"/>
    <path class="cls-11" d="M213.91,337.21v8.35h-1.1v-8.35h1.1Z"/>
    <path class="cls-11" d="M215.08,357.53c0,1.88-.74,2.55-2.15,2.55-.34,0-.64-.04-.88-.08v-.92c.16.04.5.06.77.06,1.01,0,1.14-.74,1.14-1.57v-5.95h1.12v5.91Z"/>
    <path class="cls-11" d="M212.81,366.01h1.09v4.1c.62-.65,2.75-2.75,4.05-4.1h1.38l-3.59,3.53,3.77,4.82h-1.34l-3.2-4.11-1.07.97v3.14h-1.09v-8.35Z"/>
    <path class="cls-11" d="M212.81,380.41h1.1v7.4h4.35l-.16.95h-5.3v-8.35Z"/>
    <path class="cls-11" d="M219.94,399.61c0-1.56.02-3.13.06-4.01h-.05c-.36,1.35-1.7,4.93-2.66,7.56h-1c-.72-2.13-2.12-6.15-2.49-7.58h-.04c.06.97.1,2.82.1,4.26v3.32h-1.04v-8.35h1.64c.95,2.59,2.11,5.94,2.4,6.99h.01c.2-.8,1.57-4.46,2.55-6.99h1.6v8.35h-1.08v-3.55Z"/>
    <path class="cls-11" d="M212.81,417.56v-8.35h1.46c1.2,1.96,3.8,6.1,4.27,7h.01c-.08-1.07-.07-2.39-.07-3.74v-3.26h1.04v8.35h-1.38c-1.1-1.81-3.81-6.27-4.33-7.21h-.02c.06.95.06,2.36.06,3.87v3.33h-1.04Z"/>
    <path class="cls-11" d="M220.08,427.74c0,2.3-1.28,4.34-3.91,4.34-2.46,0-3.83-1.9-3.83-4.29s1.39-4.29,3.92-4.29c2.35,0,3.81,1.76,3.81,4.25ZM213.51,427.75c0,1.8.91,3.38,2.71,3.38,1.93,0,2.71-1.6,2.71-3.37s-.88-3.32-2.71-3.32-2.71,1.54-2.71,3.31Z"/>
    <path class="cls-11" d="M212.81,438.01h3.17c1.62,0,2.73.91,2.73,2.44,0,1.62-1.18,2.48-2.81,2.48h-1.98v3.43h-1.12v-8.35ZM213.93,442h1.93c1.14,0,1.71-.55,1.71-1.52,0-1.02-.7-1.52-1.68-1.52h-1.97v3.05Z"/>
    <path class="cls-11" d="M220.08,456.54c0,1.42-.49,2.73-1.48,3.54l2.03,1.44-.67.77-2.34-1.64c-.43.16-.91.24-1.45.24-2.46,0-3.83-1.9-3.83-4.29s1.39-4.29,3.92-4.29c2.35,0,3.81,1.76,3.81,4.25ZM213.51,456.55c0,1.8.91,3.38,2.71,3.38,1.93,0,2.71-1.6,2.71-3.37s-.88-3.32-2.71-3.32-2.71,1.54-2.71,3.31Z"/>
    <path class="cls-11" d="M213.9,471.49v3.67h-1.09v-8.35h3.26c1.71,0,2.63.94,2.63,2.23,0,1.09-.62,1.75-1.43,1.97.68.18,1.27.7,1.27,2.14v.36c0,.58-.02,1.31.12,1.66h-1.08c-.16-.36-.14-1.01-.14-1.8v-.17c0-1.19-.34-1.7-1.83-1.7h-1.7ZM213.9,470.56h1.81c1.28,0,1.83-.48,1.83-1.42s-.58-1.39-1.7-1.39h-1.94v2.81Z"/>
    <path class="cls-11" d="M213.33,487.24c.23,1.01.91,1.55,2.12,1.55,1.3,0,1.81-.61,1.81-1.4,0-.84-.41-1.31-2.07-1.7-1.97-.48-2.65-1.15-2.65-2.33,0-1.25.91-2.25,2.77-2.25,1.99,0,2.81,1.15,2.93,2.24h-1.13c-.16-.73-.61-1.34-1.83-1.34-1.02,0-1.58.46-1.58,1.25s.47,1.09,1.93,1.45c2.38.58,2.79,1.5,2.79,2.58,0,1.34-1,2.4-3.03,2.4s-3-1.15-3.18-2.43h1.13Z"/>
    <path class="cls-11" d="M214.49,496.56h-2.69v-.95h6.5v.95h-2.7v7.4h-1.12v-7.4Z"/>
    <path class="cls-11" d="M213.85,510.01v5.03c0,1.97,1.08,2.51,2.15,2.51,1.25,0,2.13-.58,2.13-2.51v-5.03h1.12v4.97c0,2.71-1.5,3.49-3.27,3.49s-3.25-.84-3.25-3.41v-5.05h1.13Z"/>
    <path class="cls-11" d="M214.85,532.76l-3.03-8.35h1.19l1.46,4.16c.43,1.22.86,2.46,1.04,3.23h.02c.18-.68.65-1.98,1.09-3.19l1.54-4.2h1.14l-3.14,8.35h-1.31Z"/>
    <path class="cls-11" d="M214.21,547.16l-2.24-8.35h1.18c.65,2.73,1.55,6.19,1.7,7.14h.01c.22-1.07,1.37-5,1.91-7.14h1.08c.5,1.87,1.64,6.1,1.82,7.1h.01c.28-1.44,1.44-5.39,1.9-7.1h1.09l-2.43,8.35h-1.19c-.5-1.92-1.57-5.9-1.77-6.9h-.01c-.25,1.25-1.33,4.98-1.86,6.9h-1.19Z"/>
    <path class="cls-11" d="M217.37,561.56l-2.22-3.43h-.01l-2.23,3.43h-1.22l2.82-4.22-2.71-4.13h1.28l2.1,3.25h.01l2.16-3.25h1.22l-2.77,4.03,2.87,4.32h-1.3Z"/>
    <path class="cls-11" d="M214.65,575.96v-3.06c0-.08-.01-.17-.06-.23l-2.94-5.06h1.27c.76,1.35,1.97,3.51,2.35,4.25.36-.72,1.61-2.89,2.39-4.25h1.19l-3.03,5.08s-.05.1-.05.22v3.05h-1.12Z"/>
    <path class="cls-11" d="M212.07,589.51l5.08-6.55h-4.83v-.95h6.1v.92l-4.99,6.48h5.16l-.16.95h-6.37v-.85Z"/>
  </g>
  <polygon class="cls-15" points="188.07 220.67 189.26 224.32 193.09 224.32 189.99 226.58 191.17 230.22 188.07 227.97 184.97 230.22 186.15 226.58 183.05 224.32 186.89 224.32 188.07 220.67"/>
  <polygon class="cls-15" points="185.78 350.27 186.96 353.92 190.8 353.92 187.7 356.18 188.88 359.82 185.78 357.57 182.68 359.82 183.86 356.18 180.76 353.92 184.59 353.92 185.78 350.27"/>
  <polygon class="cls-15" points="185.78 451.01 186.96 454.65 190.8 454.65 187.7 456.91 188.88 460.55 185.78 458.3 182.68 460.55 183.86 456.91 180.76 454.65 184.59 454.65 185.78 451.01"/>
  <polygon class="cls-15" points="187.71 466.35 188.89 469.99 192.73 469.99 189.62 472.25 190.81 475.89 187.71 473.64 184.6 475.89 185.79 472.25 182.69 469.99 186.52 469.99 187.71 466.35"/>
  <g>
    <path class="cls-11" d="M304.42,222.99c-.05-.25-.1-.6-.11-.85-.5.73-1.18.98-2.05.98-1.13,0-2.12-.56-2.12-1.8,0-1.81,1.99-2.03,3.47-2.03.22,0,.43.01.6.02v-.36c0-.94-.34-1.46-1.33-1.46-.74,0-1.19.28-1.26,1.07h-1.03c.06-1.32,1.13-1.75,2.27-1.75,1.55,0,2.3.59,2.3,2.17v2.23c0,.79.11,1.5.19,1.77h-.92ZM303.66,219.93c-.94,0-2.47.11-2.47,1.34,0,.74.64,1.14,1.33,1.14,1.52,0,1.68-1.24,1.68-2.46-.25-.02-.37-.02-.54-.02Z"/>
    <path class="cls-11" d="M303.53,237.5c-.86,0-1.4-.35-1.9-1.03l-.06.92h-1.03c.04-.59.04-1.18.04-1.76v-6.91h1.06v3.63c.47-.77,1.14-1.14,2.04-1.14,1.79,0,2.55,1.46,2.55,3.06s-.86,3.23-2.7,3.23ZM303.45,231.96c-1.34,0-1.82,1.25-1.82,2.41,0,1.09.38,2.36,1.69,2.36s1.81-1.21,1.81-2.39c0-1.08-.38-2.39-1.68-2.39Z"/>
    <path class="cls-11" d="M303.08,251.92c-1.91,0-2.94-1.26-2.94-3.09s1.03-3.26,3-3.26c1.37,0,2.35.7,2.47,2.12h-1.03c-.06-.86-.58-1.38-1.44-1.38-1.43,0-1.88,1.25-1.88,2.47,0,1.15.49,2.42,1.83,2.42.89,0,1.45-.58,1.51-1.45h1.03c-.11,1.46-1.18,2.17-2.55,2.17Z"/>
    <path class="cls-11" d="M304.79,266.19l-.06-.92c-.52.71-1.04,1.03-1.94,1.03-1.83,0-2.65-1.54-2.65-3.18s.83-3.11,2.61-3.11c.91,0,1.51.31,1.98,1.08v-3.57h1.06v6.91c0,.58,0,1.18.04,1.76h-1.03ZM302.92,260.76c-1.31,0-1.68,1.3-1.68,2.39,0,1.18.44,2.39,1.81,2.39s1.69-1.27,1.69-2.36c0-1.15-.48-2.41-1.82-2.41Z"/>
    <path class="cls-11" d="M301.19,277.76v.12c0,1.12.6,2.13,1.82,2.13.86,0,1.43-.53,1.56-1.38h1.01c-.24,1.43-1.27,2.09-2.65,2.09-1.88,0-2.79-1.26-2.79-3.06s.91-3.24,2.88-3.24,2.6,1.57,2.6,3.33h-4.43ZM302.98,275.15c-1.12,0-1.67.91-1.76,1.92h3.36c.01-1-.49-1.92-1.59-1.92Z"/>
    <path class="cls-11" d="M303.04,287.03c-.59,0-.98.14-.98.8v1.1h1.36v.73h-1.36v5.33h-1.06v-5.33h-1.21v-.73h1.21v-.58c0-1.22.17-2.11,1.63-2.11.29,0,.58.01.88.04v.77c-.16-.01-.31-.02-.47-.02Z"/>
    <path class="cls-11" d="M305.86,305.43v2.24c0,2.33-.11,4.13-2.85,4.13-1.22,0-2.51-.37-2.51-1.85h1.03c0,.86.72,1.13,1.46,1.13,1.27,0,1.69-.71,1.79-1.82.02-.32.02-.66.02-1-.47.72-1.14,1.07-2,1.07-1.81,0-2.66-1.38-2.66-3.05s.89-3.06,2.65-3.06c.9,0,1.59.36,2.05,1.14v-1.03h1.07c-.05.7-.05,1.4-.05,2.1ZM303.05,303.96c-1.33,0-1.79,1.22-1.79,2.36s.48,2.3,1.77,2.3,1.78-1.25,1.78-2.4c0-1.07-.54-2.27-1.76-2.27Z"/>
    <path class="cls-11" d="M304.71,323.79v-3.36c0-1.06-.12-1.98-1.4-1.98s-1.67,1.03-1.67,2.13v3.2h-1.06v-8.67h1.06v3.56c.48-.68,1.1-1.03,1.95-1.03,1.6,0,2.17.88,2.17,2.37v3.77h-1.06Z"/>
    <path class="cls-11" d="M300.52,330.59v-1.07h1.18v1.07h-1.18ZM300.58,338.19v-6.06h1.06v6.06h-1.06Z"/>
    <path class="cls-11" d="M300.02,354.82c-.26,0-.47-.01-.6-.02v-.79c.16.02.31.04.46.04.68,0,.71-.38.71-.96v-6.55h1.06v6.81c0,1.21-.48,1.48-1.62,1.48ZM300.52,344.99v-1.07h1.18v1.07h-1.18Z"/>
    <path class="cls-11" d="M300.58,366.99v-8.67h1.06v8.67h-1.06ZM304.62,366.99l-2.95-3.42,2.72-2.65h1.34l-2.82,2.61,3.06,3.45h-1.35Z"/>
    <path class="cls-11" d="M300.58,381.39v-8.67h1.06v8.67h-1.06Z"/>
    <path class="cls-11" d="M308.62,395.79v-3.57c0-.98-.26-1.75-1.39-1.75-1.2,0-1.57.88-1.57,1.97v3.36h-1.06v-3.51c0-.98-.22-1.81-1.38-1.81s-1.58.96-1.58,1.97v3.36h-1.06v-3.98c0-.68-.01-1.38-.04-2.07h1.04l.04,1.01c.43-.72,1.08-1.08,1.92-1.08.95,0,1.57.36,1.93,1.25.43-.85,1.14-1.25,2.1-1.25,1.69,0,2.1,1.1,2.1,2.58v3.55h-1.06Z"/>
    <path class="cls-11" d="M304.71,410.19v-3.36c0-1.06-.12-1.97-1.4-1.97s-1.67,1.19-1.67,2.3v3.02h-1.06v-4.5c0-.52-.02-1.21-.04-1.56h1.04l.04.97c.49-.7,1.1-1.04,1.98-1.04,1.58,0,2.16.88,2.16,2.36v3.77h-1.06Z"/>
    <path class="cls-11" d="M303.12,424.72c-1.93,0-2.99-1.35-2.99-3.19s1.12-3.13,3-3.13,2.96,1.28,2.96,3.13-1.09,3.19-2.97,3.19ZM303.12,419.16c-1.35,0-1.87,1.19-1.87,2.38s.5,2.47,1.87,2.47,1.87-1.32,1.87-2.47-.52-2.38-1.87-2.38Z"/>
    <path class="cls-11" d="M303.54,439.1c-.88,0-1.4-.34-1.91-1.02v3.19h-1.06v-6.61c0-.56,0-1.15-.04-1.73h1.04l.04,1.04c.47-.79,1.13-1.15,2.05-1.15,1.78,0,2.55,1.45,2.55,3.05s-.86,3.23-2.69,3.23ZM303.44,433.57c-1.34,0-1.81,1.26-1.81,2.41,0,1.09.38,2.37,1.69,2.37s1.81-1.25,1.81-2.41c0-1.08-.4-2.37-1.69-2.37Z"/>
    <path class="cls-11" d="M305.79,449.06v6.61h-1.06v-3.19c-.5.68-1.03,1.02-1.91,1.02-1.95,0-2.69-1.52-2.69-3.2,0-1.57.84-3.07,2.6-3.07.94,0,1.54.3,2,1.09l.04-.98h1.04c-.04.58-.04,1.16-.04,1.73ZM302.93,447.97c-1.31,0-1.69,1.28-1.69,2.37,0,1.16.44,2.41,1.81,2.41s1.69-1.28,1.69-2.37c0-1.15-.47-2.41-1.81-2.41Z"/>
    <path class="cls-11" d="M303.29,462.67c-1.25,0-1.65.71-1.65,1.86v3.26h-1.06v-4.28c0-.59-.01-1.19-.04-1.77h1.03l.05.97c.43-.71,1.02-1.01,1.85-1.01.11,0,.24.01.34.02v1c-.16-.02-.35-.05-.52-.05Z"/>
    <path class="cls-11" d="M302.52,482.32c-1.28,0-2.36-.5-2.36-1.97h1.06c.05.84.53,1.24,1.35,1.24.64,0,1.37-.31,1.37-1.03,0-.64-.6-.89-1.31-1.06l-.49-.12c-.9-.22-1.82-.59-1.82-1.67,0-1.26,1.24-1.73,2.3-1.73,1.21,0,2.17.5,2.22,1.83h-1.04c-.02-.71-.49-1.12-1.2-1.12-.55,0-1.25.25-1.25.9,0,.56.58.83,1.3,1.01l.48.12c1.06.26,1.86.66,1.86,1.7,0,1.38-1.27,1.88-2.46,1.88Z"/>
    <path class="cls-11" d="M302.44,496.65c-.97,0-1.48-.4-1.48-1.4v-3.98h-1.19v-.73h1.19v-1.18l1.06-.44v1.62h1.35v.73h-1.35v3.56c0,.73.1,1.01.83,1.01.19,0,.36-.02.56-.06v.8c-.34.05-.65.07-.97.07Z"/>
    <path class="cls-11" d="M304.72,510.99l-.05-.96c-.5.7-1.08,1.03-1.96,1.03-1.6,0-2.17-.86-2.17-2.36v-3.77h1.06v3.36c0,1.06.12,1.97,1.4,1.97s1.67-1.02,1.67-2.12v-3.2h1.06v2.94c0,1.03,0,2.07.02,3.12h-1.03Z"/>
    <path class="cls-11" d="M303.32,525.39h-1.1l-2.46-6.06h1.2l1.88,5.04,1.92-5.04h1.08l-2.52,6.06Z"/>
    <path class="cls-11" d="M307.48,539.79h-1.04l-1.69-5.01-1.73,5.01h-1.08l-2.15-6.06h1.18l1.56,4.97,1.67-4.97h1.21l1.63,4.91,1.55-4.91h1.06l-2.16,6.06Z"/>
    <path class="cls-11" d="M304.4,554.19l-1.74-2.49-1.74,2.49h-1.16l2.34-3.11-2.21-2.95h1.32l1.58,2.3,1.62-2.3h1.16l-2.19,2.95,2.35,3.11h-1.33Z"/>
    <path class="cls-11" d="M302.39,570.87h-1.06l1-2.29-2.58-6.04h1.2l1.91,4.95,1.9-4.95h1.07l-3.43,8.34Z"/>
    <path class="cls-11" d="M300.04,582.99v-.85l3.47-4.41h-3.37v-.79h4.45v.88l-3.41,4.39h3.5v.79h-4.64Z"/>
  </g>
  <g>
    <path class="cls-11" d="M317.73,221.66c0,.56.05,1.15.08,1.33h-1.01c-.05-.13-.08-.42-.1-.79-.22.4-.71.94-1.88.94-1.44,0-2.05-.94-2.05-1.86,0-1.36,1.07-1.98,2.88-1.98h1.03v-.52c0-.54-.17-1.19-1.31-1.19-1.01,0-1.19.5-1.3.97h-1.02c.08-.84.6-1.8,2.35-1.8,1.49,0,2.31.61,2.31,1.99v2.9ZM316.7,220.03h-.98c-1.21,0-1.86.34-1.86,1.19,0,.64.43,1.09,1.19,1.09,1.46,0,1.65-.98,1.65-2.09v-.19Z"/>
    <path class="cls-11" d="M313.2,228.59h1.06v3.59c.26-.52.83-1.01,1.93-1.01,1.54,0,2.49,1.26,2.49,3.06s-.94,3.31-2.65,3.31c-.97,0-1.49-.36-1.79-.95,0,.31-.02.64-.05.8h-1.01c.01-.68.01-1.37.01-2.04v-6.76ZM315.94,232.05c-1.3,0-1.75.86-1.75,2.31,0,1.27.41,2.28,1.69,2.28,1.08,0,1.72-.92,1.72-2.4,0-1.32-.6-2.19-1.66-2.19Z"/>
    <path class="cls-11" d="M317.99,249.93c-.25,1.04-.96,2-2.51,2-1.68,0-2.71-1.2-2.71-3.15,0-1.72.97-3.21,2.78-3.21s2.36,1.25,2.43,2.03h-1.04c-.14-.61-.53-1.15-1.42-1.15-1.07,0-1.68.92-1.68,2.3s.59,2.31,1.64,2.31c.76,0,1.2-.41,1.45-1.13h1.04Z"/>
    <path class="cls-11" d="M318.26,257.39v7.09c0,.56,0,1.13.01,1.71h-1.01c-.04-.16-.06-.62-.06-.86-.3.64-.91,1.01-1.91,1.01-1.57,0-2.53-1.27-2.53-3.12s1.04-3.25,2.72-3.25c1.08,0,1.56.43,1.71.78v-3.36h1.06ZM315.51,265.45c1.42,0,1.74-1.06,1.74-2.39s-.29-2.21-1.65-2.21c-1.08,0-1.74.85-1.74,2.33s.7,2.27,1.66,2.27Z"/>
    <path class="cls-11" d="M313.82,277.74c.01,1.24.64,2.12,1.67,2.12.96,0,1.27-.5,1.46-.95h1.07c-.24.78-.9,1.82-2.57,1.82-1.91,0-2.69-1.56-2.69-3.12,0-1.81.91-3.25,2.76-3.25,1.97,0,2.6,1.57,2.6,2.87,0,.19,0,.35-.01.5h-4.29ZM317.06,277.01c-.01-1.01-.52-1.81-1.55-1.81s-1.55.74-1.66,1.81h3.2Z"/>
    <path class="cls-11" d="M313.38,294.99v-5.23h-.97v-.85h.97v-.73c0-1.12.43-2.11,1.77-2.11.23,0,.53.02.67.07v.9c-.14-.04-.37-.06-.53-.06-.62,0-.86.38-.86,1.27v.66h1.22v.85h-1.22v5.23h-1.06Z"/>
    <path class="cls-11" d="M318.21,308.84c0,1.96-.8,3.06-2.79,3.06-1.85,0-2.41-1.03-2.52-1.86h1.07c.18.67.72,1.02,1.5,1.02,1.38,0,1.71-.88,1.71-2.27v-.49c-.32.67-.88,1.07-1.9,1.07-1.5,0-2.52-1.22-2.52-3.01,0-1.98,1.16-3.19,2.63-3.19,1.16,0,1.66.54,1.79.95.01-.28.05-.68.06-.8h.98c0,.35-.01,1.18-.01,1.75v3.78ZM315.52,308.47c1.31,0,1.69-.89,1.69-2.23s-.36-2.18-1.66-2.18c-1.13,0-1.7.95-1.7,2.25s.67,2.16,1.67,2.16Z"/>
    <path class="cls-11" d="M314.25,314.99v3.62c.3-.54.86-1.04,1.9-1.04.97,0,2.05.53,2.05,2.34v3.89h-1.06v-3.71c0-1.03-.43-1.61-1.32-1.61-1.09,0-1.57.72-1.57,1.99v3.32h-1.06v-8.8h1.06Z"/>
    <path class="cls-11" d="M313.2,330.7v-1.31h1.06v1.31h-1.06ZM313.2,332.11h1.06v6.08h-1.06v-6.08Z"/>
    <path class="cls-11" d="M314.25,346.51v6.28c0,1.68-.4,2.3-1.72,2.3-.07,0-.31-.01-.41-.02v-.89c.07.01.17.01.23.01.73,0,.84-.37.84-1.22v-6.46h1.06ZM313.2,345.1v-1.31h1.06v1.31h-1.06Z"/>
    <path class="cls-11" d="M314.25,363.81c.5-.6,1.85-2,2.66-2.9h1.26l-2.29,2.36,2.55,3.72h-1.24l-2.04-3.03-.91.88v2.16h-1.06v-8.8h1.06v5.62Z"/>
    <path class="cls-11" d="M313.2,381.39v-8.8h1.06v8.8h-1.06Z"/>
    <path class="cls-11" d="M313.2,391.28c0-.53,0-1.08-.01-1.57h1.01c.02.18.05.62.05.94.28-.54.8-1.08,1.76-1.08.86,0,1.45.43,1.69,1.09.32-.58.9-1.09,1.93-1.09s1.92.59,1.92,2.23v3.99h-1.03v-3.87c0-.7-.25-1.44-1.2-1.44-1,0-1.43.74-1.43,1.82v3.49h-1.03v-3.84c0-.78-.22-1.48-1.18-1.48s-1.44.79-1.44,1.94v3.37h-1.04v-4.51Z"/>
    <path class="cls-11" d="M313.2,405.65c0-.53,0-1.07-.01-1.54h1.02c.04.18.05.82.05,1,.24-.52.73-1.14,1.91-1.14s2.04.7,2.04,2.31v3.91h-1.06v-3.78c0-.92-.36-1.54-1.28-1.54-1.15,0-1.61.88-1.61,2.1v3.21h-1.06v-4.55Z"/>
    <path class="cls-11" d="M318.43,421.53c0,1.76-1.01,3.2-2.87,3.2-1.74,0-2.79-1.34-2.79-3.18s1.03-3.19,2.87-3.19c1.69,0,2.79,1.26,2.79,3.17ZM313.84,421.55c0,1.34.67,2.31,1.76,2.31s1.74-.92,1.74-2.3-.62-2.31-1.76-2.31-1.74.92-1.74,2.3Z"/>
    <path class="cls-11" d="M313.2,441.38v-6.98c0-.5,0-1.02-.01-1.49h1.02c.02.2.04.56.04.96.34-.62.95-1.1,1.99-1.1,1.4,0,2.42,1.18,2.42,3.02,0,2.18-1.16,3.35-2.64,3.35-.98,0-1.5-.41-1.77-.9v3.14h-1.04ZM315.96,433.67c-1.26,0-1.76.79-1.76,2.28s.41,2.3,1.68,2.3c1.12,0,1.7-.91,1.7-2.41,0-1.3-.59-2.17-1.62-2.17Z"/>
    <path class="cls-11" d="M317.21,452.52c-.31.64-.88,1.02-1.93,1.02-1.38,0-2.52-1.09-2.52-3.12s1.21-3.25,2.67-3.25c1.13,0,1.63.52,1.78.91-.01-.22.01-.52.04-.77h1c-.01.64-.01,1.13-.01,1.68v6.79h-1.02v-3.26ZM315.54,452.65c1.32,0,1.7-.91,1.7-2.33s-.35-2.25-1.66-2.25c-1.14,0-1.73.96-1.73,2.3,0,1.24.53,2.28,1.68,2.28Z"/>
    <path class="cls-11" d="M313.2,463.37c0-.85-.01-1.33-.01-1.65h1.03c.01.17.04.65.04,1.24.31-.82,1.03-1.36,2.04-1.38v1.04c-1.25.04-2.04.7-2.04,2.23v2.95h-1.06v-4.43Z"/>
    <path class="cls-11" d="M313.71,480.45c.17.66.66,1.06,1.49,1.06.89,0,1.24-.38,1.24-.94s-.28-.84-1.44-1.12c-1.74-.42-2.1-.96-2.1-1.79s.64-1.7,2.19-1.7,2.22.91,2.29,1.75h-1.01c-.1-.38-.4-.94-1.32-.94-.85,0-1.12.41-1.12.8,0,.46.25.68,1.37.95,1.85.44,2.22,1.06,2.22,1.96,0,1.07-.85,1.85-2.36,1.85s-2.35-.79-2.51-1.88h1.06Z"/>
    <path class="cls-11" d="M312.42,490.51h1.06v-1.8h1.04v1.8h1.34v.85h-1.34v3.56c0,.6.14.9.7.9.14,0,.36-.01.53-.05v.79c-.25.1-.61.11-.91.11-.95,0-1.36-.49-1.36-1.5v-3.81h-1.06v-.85Z"/>
    <path class="cls-11" d="M318.08,509.22c0,.6.01,1.42.01,1.77h-1.02c-.02-.16-.04-.53-.05-.91-.3.67-.88,1.06-1.83,1.06-1.03,0-2.02-.52-2.02-2.23v-3.99h1.04v3.78c0,.79.25,1.54,1.26,1.54,1.12,0,1.55-.62,1.55-2.15v-3.17h1.06v4.31Z"/>
    <path class="cls-11" d="M313.57,519.31c.82,2.48,1.42,4.34,1.61,5.1h.01c.14-.67.79-2.49,1.7-5.1h1.07l-2.23,6.08h-1.16l-2.12-6.08h1.13Z"/>
    <path class="cls-11" d="M313.7,533.71c.76,2.85,1.19,4.49,1.3,5.11h.01c.11-.56.54-2.09,1.4-5.11h1.03c.95,3.44,1.24,4.44,1.33,4.99h.01c.16-.65.4-1.56,1.34-4.99h1.07l-1.87,6.08h-1.14c-.59-2.22-1.18-4.27-1.31-4.93h-.01c-.11.66-.65,2.52-1.33,4.93h-1.18l-1.76-6.08h1.1Z"/>
    <path class="cls-11" d="M313.57,548.11c.86,1.35,1.22,1.93,1.44,2.27h.01c.26-.38.77-1.18,1.49-2.27h1.18l-2.05,2.93,2.08,3.15h-1.21c-.74-1.19-1.26-2-1.5-2.4h-.01c-.2.34-.7,1.15-1.49,2.4h-1.18l2.04-3.03-1.98-3.05h1.19Z"/>
    <path class="cls-11" d="M313.56,562.51c.98,2.91,1.52,4.52,1.69,5.15h.01c.19-.7.62-2.09,1.62-5.15h1.06l-2.18,6.36c-.61,1.79-1.08,2.23-2.31,2.23-.19,0-.42-.01-.66-.04v-.91c.16.01.34.02.5.02.77,0,1.06-.34,1.42-1.34l-2.28-6.32h1.14Z"/>
    <path class="cls-11" d="M312.6,582.14l3.5-4.34h-3.32v-.89h4.52v.88l-3.45,4.32h3.62l-.17.89h-4.7v-.85Z"/>
  </g>
  <polygon class="cls-15" points="292.34 215.9 293.52 219.55 297.36 219.55 294.25 221.8 295.44 225.45 292.34 223.19 289.23 225.45 290.42 221.8 287.32 219.55 291.15 219.55 292.34 215.9"/>
  <polygon class="cls-9" points="290.71 357.44 291.9 361.09 295.73 361.09 292.63 363.34 293.81 366.99 290.71 364.74 287.61 366.99 288.79 363.34 285.69 361.09 289.53 361.09 290.71 357.44"/>
  <polygon class="cls-9" points="291.97 561.56 293.15 565.21 296.99 565.21 293.88 567.46 295.07 571.11 291.97 568.86 288.86 571.11 290.05 567.46 286.95 565.21 290.78 565.21 291.97 561.56"/>
  <polygon class="cls-9" points="289.97 487.87 291.16 491.51 294.99 491.51 291.89 493.77 293.07 497.42 289.97 495.16 286.87 497.42 288.05 493.77 284.95 491.51 288.79 491.51 289.97 487.87"/>
  <polygon class="cls-15" points="291.75 272.06 292.93 275.71 296.77 275.71 293.66 277.96 294.85 281.61 291.75 279.36 288.64 281.61 289.83 277.96 286.73 275.71 290.56 275.71 291.75 272.06"/>
  <polygon class="cls-15" points="289.97 459.84 291.16 463.49 294.99 463.49 291.89 465.75 293.07 469.39 289.97 467.14 286.87 469.39 288.05 465.75 284.95 463.49 288.79 463.49 289.97 459.84"/>
  <rect class="cls-10" x="515.9" y="114.61" width="57.15" height="57.15"/>
  <g>
    <path class="cls-11" d="M444.58,97.88l-.34,1.88h1.26v.85h-1.4l-.44,2.49h-.92l.43-2.49h-1.48l-.44,2.49h-.92l.44-2.49h-1.26v-.85h1.42l.34-1.88h-1.26v-.84h1.4l.47-2.6h.92l-.47,2.6h1.48l.47-2.6h.92l-.47,2.6h1.25v.84h-1.39ZM442.18,97.88l-.35,1.88h1.49l.34-1.88h-1.48Z"/>
    <path class="cls-11" d="M451.41,103.11l-.06-.92c-.52.71-1.04,1.03-1.94,1.03-1.83,0-2.65-1.54-2.65-3.18s.83-3.11,2.61-3.11c.91,0,1.51.31,1.98,1.08v-3.57h1.06v6.91c0,.58,0,1.18.04,1.76h-1.03ZM449.54,97.67c-1.31,0-1.68,1.3-1.68,2.39,0,1.18.44,2.39,1.81,2.39s1.69-1.27,1.69-2.36c0-1.15-.48-2.41-1.82-2.41Z"/>
    <path class="cls-11" d="M456.65,103.29c-1.45,0-2.55-.67-2.65-2.29h1.13c.04.96.66,1.42,1.52,1.42,1.94,0,1.99-2.46,2.04-3.86-.44.85-1.21,1.28-2.15,1.28-1.52,0-2.63-1.16-2.63-2.77s1.27-2.79,2.88-2.79c2.4,0,2.91,2.05,2.91,4.14s-.44,4.88-3.06,4.88ZM456.78,95.13c-1.08,0-1.79.8-1.79,1.92s.61,1.94,1.69,1.94c1.2,0,1.83-.83,1.83-1.98,0-1.08-.68-1.88-1.74-1.88Z"/>
    <path class="cls-11" d="M465.54,103.11l-.06-.92c-.52.71-1.04,1.03-1.94,1.03-1.83,0-2.65-1.54-2.65-3.18s.83-3.11,2.61-3.11c.91,0,1.51.31,1.98,1.08v-3.57h1.06v6.91c0,.58,0,1.18.04,1.76h-1.03ZM463.67,97.67c-1.31,0-1.68,1.3-1.68,2.39,0,1.18.44,2.39,1.81,2.39s1.69-1.27,1.69-2.36c0-1.15-.48-2.41-1.82-2.41Z"/>
    <path class="cls-11" d="M470.97,95.14c-.59,0-.98.14-.98.8v1.1h1.36v.73h-1.36v5.33h-1.06v-5.33h-1.21v-.73h1.21v-.58c0-1.22.17-2.11,1.63-2.11.29,0,.58.01.88.04v.77c-.16-.01-.31-.02-.47-.02Z"/>
    <path class="cls-11" d="M474.99,103.24c-1.57,0-2.81-.74-2.9-2.48h1.13c.01,1.06.88,1.63,1.8,1.63.98,0,1.85-.6,1.85-1.7,0-1.18-.98-1.64-1.98-1.64-.16,0-.3,0-.47.02v-.9c.17.02.34.04.49.04.92,0,1.8-.5,1.8-1.56,0-1.14-.79-1.55-1.68-1.55-.97,0-1.6.54-1.7,1.57h-1.1c.06-1.62,1.4-2.41,2.82-2.41s2.77.73,2.77,2.35c0,1.04-.7,1.72-1.62,1.96,1.09.31,1.83.91,1.83,2.19,0,1.73-1.52,2.48-3.03,2.48Z"/>
    <path class="cls-11" d="M483.77,103.11l-.06-.92c-.52.71-1.04,1.03-1.94,1.03-1.83,0-2.65-1.54-2.65-3.18s.83-3.11,2.61-3.11c.91,0,1.51.31,1.98,1.08v-3.57h1.06v6.91c0,.58,0,1.18.04,1.76h-1.03ZM481.9,97.67c-1.31,0-1.68,1.3-1.68,2.39,0,1.18.44,2.39,1.81,2.39s1.69-1.27,1.69-2.36c0-1.15-.48-2.41-1.82-2.41Z"/>
  </g>
  <g>
    <path class="cls-11" d="M524.85,97.88l-.34,1.88h1.26v.85h-1.4l-.44,2.49h-.92l.43-2.49h-1.48l-.44,2.49h-.92l.44-2.49h-1.26v-.85h1.42l.34-1.88h-1.26v-.84h1.4l.47-2.6h.92l-.47,2.6h1.48l.47-2.6h.92l-.47,2.6h1.25v.84h-1.39ZM522.45,97.88l-.35,1.88h1.49l.34-1.88h-1.48Z"/>
    <path class="cls-11" d="M530.9,103.24c-2.67,0-3.8-1.94-3.8-4.39s1.27-4.56,3.87-4.56c1.44,0,2.99.73,3.03,2.37h-1.19c-.1-1-.94-1.45-1.86-1.45-1.96,0-2.67,1.92-2.67,3.59s.64,3.51,2.64,3.51c1.12,0,1.87-.62,1.93-1.54h1.21c-.22,1.81-1.54,2.46-3.17,2.46Z"/>
    <path class="cls-11" d="M539.07,103.24c-2.67,0-3.8-1.94-3.8-4.39s1.27-4.56,3.87-4.56c1.44,0,2.99.73,3.03,2.37h-1.19c-.1-1-.94-1.45-1.86-1.45-1.96,0-2.67,1.92-2.67,3.59s.64,3.51,2.64,3.51c1.12,0,1.87-.62,1.93-1.54h1.21c-.22,1.81-1.54,2.46-3.17,2.46Z"/>
    <path class="cls-11" d="M546.17,103.11v-7.54c-.55.54-1.2.92-1.91,1.24v-1.01c.8-.32,1.42-.74,2.04-1.36h.95v8.67h-1.08Z"/>
    <path class="cls-11" d="M556.97,103.11l-.9-2.29h-4.2l-.89,2.29h-1.14l3.53-8.67h1.24l3.66,8.67h-1.3ZM553.92,95.41l-1.74,4.56h3.54l-1.8-4.56Z"/>
    <path class="cls-11" d="M561.82,103.26c-1.54,0-3-.7-3-2.46,0-1.22.78-1.96,1.86-2.22-.97-.29-1.69-.79-1.69-1.96,0-1.64,1.51-2.37,2.84-2.37s2.81.7,2.81,2.29c0,1.12-.71,1.76-1.68,2.03,1.06.29,1.83.88,1.83,2.12,0,1.74-1.48,2.57-2.97,2.57ZM561.79,99c-1,0-1.86.59-1.86,1.7s.84,1.71,1.85,1.71,1.91-.6,1.91-1.73-.89-1.69-1.9-1.69ZM561.83,95.05c-.94,0-1.77.54-1.77,1.61s.85,1.52,1.76,1.52,1.75-.53,1.75-1.55-.82-1.58-1.74-1.58Z"/>
    <path class="cls-11" d="M568.64,103.11v-7.54c-.55.54-1.2.92-1.91,1.24v-1.01c.8-.32,1.42-.74,2.04-1.36h.95v8.67h-1.08Z"/>
  </g>
  <polygon class="cls-15" points="189.53 307 190.72 310.65 194.55 310.65 191.45 312.91 192.64 316.55 189.53 314.3 186.43 316.55 187.62 312.91 184.51 310.65 188.35 310.65 189.53 307"/>
  <polygon class="cls-15" points="293.8 302.23 294.98 305.88 298.82 305.88 295.72 308.13 296.9 311.78 293.8 309.52 290.7 311.78 291.88 308.13 288.78 305.88 292.61 305.88 293.8 302.23"/>
  <g>
    <path class="cls-11" d="M82.63,895.09c-2.3-5.7-2.4-11.8-2.9-17.8-1-10.6-1.6-15.7-13.7-15.7h-15.4v33.5h-9.4v-72.3h25.8c11.8,0,24.3,3.6,24.3,17.8,0,9.6-5.7,14.7-14.4,17.1,9.2,2,11.5,7.2,12.3,15,.5,4.8.6,9.9,1.6,15.4.5,2.7,1.1,5.1,2.4,7h-10.6ZM64.93,829.98h-14.3v24.5h11.7c9.1,0,19.4-1.4,19.4-12.8,0-10.1-8.5-11.7-16.8-11.7Z"/>
    <path class="cls-11" d="M129.63,852.38c-10.4,0-13.8,5.9-13.8,15.5v27.2h-8.8v-35.7c0-4.9-.1-9.9-.3-14.8h8.6l.4,8.1c3.6-5.9,8.5-8.4,15.4-8.4.9,0,2,.1,2.8.2v8.3c-1.3-.2-2.9-.4-4.3-.4Z"/>
  </g>
  <g>
    <path class="cls-11" d="M184.61,864.49v30.6h-9.1v-69.6h27.2c14.3,0,21.9,7.8,21.9,18.6,0,9.1-5.2,14.6-11.9,16.4,5.7,1.5,10.6,5.8,10.6,17.8v3c0,4.8-.2,10.9,1,13.8h-9c-1.3-3-1.2-8.4-1.2-15v-1.4c0-9.9-2.8-14.2-15.3-14.2h-14.2ZM184.61,856.69h15.1c10.7,0,15.3-4,15.3-11.8,0-7.4-4.8-11.6-14.2-11.6h-16.2v23.4Z"/>
    <path class="cls-11" d="M237.61,858.19c0-7.1-.1-11.1-.1-13.8h8.6c.1,1.4.3,5.4.3,10.3,2.6-6.8,8.6-11.3,17-11.5v8.7c-10.4.3-17,5.8-17,18.6v24.6h-8.8v-36.9Z"/>
  </g>
  <path class="cls-10" d="M66.06,861.59c12.1,0,12.7,5.1,13.7,15.7.5,6,.6,12.1,2.9,17.8h10.6c-1.3-1.9-1.9-4.3-2.4-7-1-5.5-1.1-10.6-1.6-15.4-.8-7.8-3.1-13-12.3-15"/>
  <path class="cls-10" d="M198.81,864.48c12.5,0,15.3,4.3,15.3,14.2v1.4c0,6.6-.1,12,1.2,15h9c-1.2-2.9-1-9-1-13.8v-3c0-12-4.9-16.3-10.6-17.8"/>
  <g>
    <line class="cls-2" x1="101.81" y1="844.48" x2="102.21" y2="844.48"/>
    <line class="cls-7" x1="104.18" y1="844.48" x2="136.3" y2="844.48"/>
    <line class="cls-2" x1="137.29" y1="844.48" x2="137.69" y2="844.48"/>
  </g>
  <g>
    <line class="cls-2" x1="234" y1="844.4" x2="234.4" y2="844.4"/>
    <line class="cls-7" x1="236.37" y1="844.4" x2="268.49" y2="844.4"/>
    <line class="cls-2" x1="269.48" y1="844.4" x2="269.88" y2="844.4"/>
  </g>
  <g>
    <path class="cls-11" d="M237.71,1038.48h-7.13c-.5-1.3-.8-4.42-.9-9.43-3.01,4.92-9.03,10.34-21.68,10.34-20.17,0-30.81-15.26-30.81-35.13,0-20.88,11.44-36.64,32.52-36.64,16.26,0,26.4,8.83,28.41,21.28h-9.23c-2.41-7.83-7.93-13.55-19.37-13.55-16.16,0-22.58,12.95-22.58,28.51,0,14.35,6.42,27.8,22.18,27.8s19.57-10.44,19.57-22.18v-.8h-19.67v-7.93h28.71v37.74Z"/>
    <path class="cls-11" d="M295.21,1033.86c0,16.36-6.72,25.6-23.39,25.6-15.46,0-20.17-8.63-21.08-15.56h8.93c1.5,5.62,6.02,8.53,12.55,8.53,11.54,0,14.35-7.33,14.35-18.97v-4.12c-2.71,5.62-7.33,8.93-15.86,8.93-12.55,0-21.08-10.24-21.08-25.19,0-16.56,9.74-26.7,21.98-26.7,9.74,0,13.85,4.52,14.96,7.93.1-2.31.4-5.72.5-6.72h8.23c0,2.91-.1,9.84-.1,14.65v31.62ZM272.73,1030.75c10.94,0,14.15-7.43,14.15-18.67s-3.01-18.27-13.85-18.27c-9.44,0-14.25,7.93-14.25,18.87s5.62,18.07,13.95,18.07Z"/>
  </g>
  <path class="cls-10" d="M273.03,993.78c-9.43,0-14.25,7.93-14.25,18.87s5.62,18.07,13.95,18.07c10.94,0,14.15-7.43,14.15-18.67s-3.01-18.27-13.85-18.27Z"/>
  <path class="cls-10" d="M228.68,1009.47v-.8h-19.67v-7.93h28.71v37.74h-7.13c-.5-1.31-.8-4.42-.9-9.43"/>
  <path class="cls-10" d="M101.86,991.47c-10.43,0-15.75,9.09-15.75,21.62s6.21,20.7,15.42,20.7c12.09,0,15.64-8.51,15.64-21.39s-3.33-20.93-15.31-20.93Z"/>
  <g>
    <path class="cls-11" d="M39.95,1039.28c-22.78,0-34.83-15.56-34.83-37.34,0-20.58,11.44-37.54,33.52-37.54,13.25,0,24.39,6.12,25.59,20.48h-9.84c-1.4-8.83-7.53-12.95-16.16-12.95-16.66,0-22.99,15.06-22.99,29.51,0,15.86,7.23,30.41,24.99,30.41,5.22,0,10.44-.7,15.46-2.21v-21.58h-17.37v-7.13h26.5v34.33c-8.13,2.21-16.46,4.01-24.89,4.01Z"/>
    <path class="cls-11" d="M125.76,1005.35v18.77c0,19.47-.9,34.53-23.89,34.53-10.24,0-20.98-3.11-20.98-15.46h8.63c0,7.23,6.02,9.43,12.25,9.43,10.64,0,14.15-5.92,14.96-15.26.2-2.71.2-5.52.2-8.33-3.91,6.02-9.54,8.93-16.76,8.93-15.16,0-22.28-11.54-22.28-25.49s7.43-25.59,22.18-25.59c7.53,0,13.35,3.01,17.16,9.54v-8.63h8.93c-.4,5.82-.4,11.74-.4,17.56ZM102.27,993.01c-11.14,0-14.96,10.24-14.96,19.77s4.01,19.27,14.85,19.27,14.86-10.44,14.86-20.07c0-8.93-4.52-18.97-14.75-18.97Z"/>
  </g>
  <path class="cls-10" d="M55.69,1029.63v-21.58h-17.36v-7.13h26.5v34.33"/>
  <path class="cls-5" d="M156.03,1038.48c47.67.28,95.67.28,143.57,0"/>
  <path class="cls-5" d="M5.12,1038.48c45.58.28,92.58.28,139.02,0"/>
  <path class="cls-5" d="M156.03,967.49c47.67.35,95.67.35,143.57,0"/>
  <path class="cls-5" d="M5.12,964.41c45.58.35,92.58.35,139.02,0"/>
  <path class="cls-5" d="M161.19,894.99c37.51-.23,75.51-.23,113.14.1"/>
  <path class="cls-5" d="M28.31,895.09c40.39-.33,80.39-.33,120.3-.1"/>
  <path class="cls-5" d="M161.2,825.51c37.51-.15,75.51-.15,113.12-.1"/>
  <path class="cls-5" d="M28.31,822.79c40.39-.03,80.39-.03,120.3.13"/>
  <path class="cls-10" d="M270.77,718.83c0,5.9-6,10.69-13.4,10.69s-13.4-4.79-13.4-10.69,6-10.69,13.4-10.69c3.39,0,10.71-1.44,13.07.22,2.79,1.96.33,7.27.33,10.47Z"/>
  <path class="cls-10" d="M123.26,720.07c0,6.3-5.62,11.42-12.55,11.42s-14.05-5.74-14.05-12.05,7.12-10.79,14.05-10.79c3.03,0,10.38-2.53,12.55-.9,2.79,2.09,0,8.77,0,12.32Z"/>
  <path class="cls-11" d="M73.56,733.96l-7.5-19.1H31.06l-7.4,19.1h-9.5l29.4-72.3h10.3l30.5,72.3h-10.8ZM48.16,669.75l-14.5,38h29.5l-15-38Z"/>
  <path class="cls-11" d="M125.06,733.96c-.4-2.1-.8-5-.9-7.1-4.2,6.1-9.8,8.2-17.1,8.2-9.4,0-17.7-4.7-17.7-15,0-15.1,16.6-16.9,28.9-16.9,1.8,0,3.6.1,5,.2v-3c0-7.8-2.8-12.2-11.1-12.2-6.2,0-9.9,2.3-10.5,8.9h-8.6c.5-11,9.4-14.6,18.9-14.6,12.9,0,19.2,4.9,19.2,18.1v18.6c0,6.6.9,12.5,1.6,14.8h-7.7ZM118.76,708.45c-7.8,0-20.6.9-20.6,11.2,0,6.2,5.3,9.5,11.1,9.5,12.7,0,14-10.3,14-20.5-2.1-.2-3.1-.2-4.5-.2Z"/>
  <polygon class="cls-11" points="66.06 714.85 63.16 707.75 33.66 707.75 31.06 714.85 66.06 714.85"/>
  <g>
    <path class="cls-11" d="M184.88,713.05l-7.5,20.9h-9.2l24.8-69.6h11.3l25.9,69.6h-9.9l-7.7-20.9h-27.7ZM210.28,705.15c-6.7-18.3-10.3-28-11.8-33.3h-.1c-1.7,5.9-5.8,17.7-11.1,33.3h23Z"/>
    <path class="cls-11" d="M278.78,722.85c0,4.7.4,9.6.7,11.1h-8.4c-.4-1.1-.7-3.5-.8-6.6-1.8,3.3-5.9,7.8-15.7,7.8-12,0-17.1-7.8-17.1-15.5,0-11.3,8.9-16.5,24-16.5h8.6v-4.3c0-4.5-1.4-9.9-10.9-9.9-8.4,0-9.9,4.2-10.8,8.1h-8.5c.7-7,5-15,19.6-15,12.4,0,19.3,5.1,19.3,16.6v24.2ZM270.18,709.25h-8.2c-10.1,0-15.5,2.8-15.5,9.9,0,5.3,3.6,9.1,9.9,9.1,12.2,0,13.8-8.2,13.8-17.4v-1.6Z"/>
  </g>
  <path class="cls-5" d="M163.91,734.02c41.96.39,84.96.39,127.36.02"/>
  <path class="cls-5" d="M11.21,734.05c42.66.35,85.66.35,128.68-.02"/>
  <path class="cls-5" d="M11.26,661.63c42.61-.22,85.61-.22,128.86.03"/>
  <path class="cls-5" d="M163.26,664.36c42.61.05,85.61.05,128.15,0"/>
  <polygon class="cls-10" points="212.62 713.07 210.28 705.15 187.28 705.15 184.88 713.05 212.62 713.07"/>
  <polygon class="cls-15" points="292.34 230.37 293.52 234.02 297.36 234.02 294.25 236.28 295.44 239.92 292.34 237.67 289.23 239.92 290.42 236.28 287.32 234.02 291.15 234.02 292.34 230.37"/>
  <rect class="cls-8" x="1146.59" y="390.93" width="85.51" height="119.69"/>
  <rect class="cls-8" x="1146.59" y="230.25" width="85.51" height="119.69"/>
  <path class="cls-11" d="M1417.17,241.31l-7.5-19.1h-35l-7.4,19.1h-9.5l29.4-72.3h10.3l30.5,72.3h-10.8ZM1391.77,177.11l-14.5,38h29.5l-15-38Z"/>
  <polygon class="cls-11" points="1409.67 222.21 1406.77 215.11 1377.27 215.11 1374.67 222.21 1409.67 222.21"/>
  <path class="cls-11" d="M1459.08,220.42l-7.5,20.9h-9.2l24.8-69.6h11.3l25.9,69.6h-9.9l-7.7-20.9h-27.7ZM1484.48,212.52c-6.7-18.3-10.3-28-11.8-33.3h-.1c-1.7,5.9-5.8,17.7-11.1,33.3h23Z"/>
  <path class="cls-5" d="M1444.3,241.38c24.51.23,42.82.32,67.33.29"/>
  <path class="cls-5" d="M1354.81,241.41c25.93.22,51.85.3,77.78.25"/>
  <path class="cls-5" d="M1354.86,168.99c25.79-.13,51.58-.19,77.36-.15"/>
  <path class="cls-5" d="M1443.65,171.72c24.72.03,43.24.05,67.96.05"/>
  <polygon class="cls-10" points="1486.82 220.44 1484.48 212.52 1461.48 212.52 1459.08 220.42 1486.82 220.44"/>
  <polygon class="cls-10" points="1409.67 222.21 1406.77 215.11 1377.27 215.11 1374.67 222.21 1409.67 222.21"/>
  <polygon class="cls-10" points="66.06 714.85 63.16 707.75 33.66 707.75 31.06 714.85 66.06 714.85"/>
  <g class="cls-12">
    <path class="cls-14" d="M1199.94,316.89c-.4-2.1-.8-5-.9-7.1-4.2,6.1-9.8,8.2-17.1,8.2-9.4,0-17.7-4.7-17.7-15,0-15.1,16.6-16.9,28.9-16.9,1.8,0,3.6.1,5,.2v-3c0-7.8-2.8-12.2-11.1-12.2-6.2,0-9.9,2.3-10.5,8.9h-8.6c.5-11,9.4-14.6,18.9-14.6,12.9,0,19.2,4.9,19.2,18.1v18.6c0,6.6.9,12.5,1.6,14.8h-7.7ZM1193.64,291.39c-7.8,0-20.6.9-20.6,11.2,0,6.2,5.3,9.5,11.1,9.5,12.7,0,14-10.3,14-20.5-2.1-.2-3.1-.2-4.5-.2Z"/>
  </g>
  <g class="cls-12">
    <path class="cls-10" d="M1206.04,305.79c0,4.7.4,9.6.7,11.1h-8.4c-.4-1.1-.7-3.5-.8-6.6-1.8,3.3-5.9,7.8-15.7,7.8-12,0-17.1-7.8-17.1-15.5,0-11.3,8.9-16.5,24-16.5h8.6v-4.3c0-4.5-1.4-9.9-10.9-9.9-8.4,0-9.9,4.2-10.8,8.1h-8.5c.7-7,5-15,19.6-15,12.4,0,19.3,5.1,19.3,16.6v24.2ZM1197.44,292.19h-8.2c-10.1,0-15.5,2.8-15.5,9.9,0,5.3,3.6,9.1,9.9,9.1,12.2,0,13.8-8.2,13.8-17.4v-1.6Z"/>
  </g>
  <rect class="cls-14" x="439.25" y="114.61" width="57.15" height="57.15"/>
  <g class="cls-12">
    <path class="cls-14" d="M1197.57,433.28c-10.4,0-13.8,5.9-13.8,15.5v27.2h-8.8v-35.7c0-4.9-.1-9.9-.3-14.8h8.6l.4,8.1c3.6-5.9,8.5-8.4,15.4-8.4.9,0,2,.1,2.8.2v8.3c-1.3-.2-2.9-.4-4.3-.4Z"/>
  </g>
  <g class="cls-12">
    <path class="cls-10" d="M1174.82,439.08c0-7.1-.1-11.1-.1-13.8h8.6c.1,1.4.3,5.4.3,10.3,2.6-6.8,8.6-11.3,17-11.5v8.7c-10.4.3-17,5.8-17,18.6v24.6h-8.8v-36.9Z"/>
  </g>
  <rect class="cls-8" x="1146.59" y="540.38" width="85.51" height="119.69"/>
  <g class="cls-12">
    <path class="cls-14" d="M1212.46,588.09v18.7c0,19.4-.9,34.4-23.8,34.4-10.2,0-20.9-3.1-20.9-15.4h8.6c0,7.2,6,9.4,12.2,9.4,10.6,0,14.1-5.9,14.9-15.2.2-2.7.2-5.5.2-8.3-3.9,6-9.5,8.9-16.7,8.9-15.1,0-22.2-11.5-22.2-25.4s7.4-25.5,22.1-25.5c7.5,0,13.3,3,17.1,9.5v-8.6h8.9c-.4,5.8-.4,11.7-.4,17.5ZM1189.06,575.79c-11.1,0-14.9,10.2-14.9,19.7s4,19.2,14.8,19.2,14.8-10.4,14.8-20c0-8.9-4.5-18.9-14.7-18.9Z"/>
  </g>
  <g class="cls-12">
    <path class="cls-10" d="M1211.41,616.5c0,16.3-6.7,25.5-23.3,25.5-15.4,0-20.1-8.6-21-15.5h8.9c1.5,5.6,6,8.5,12.5,8.5,11.5,0,14.3-7.3,14.3-18.9v-4.1c-2.7,5.6-7.3,8.9-15.8,8.9-12.5,0-21-10.2-21-25.1,0-16.5,9.7-26.6,21.9-26.6,9.7,0,13.8,4.5,14.9,7.9.1-2.3.4-5.7.5-6.7h8.2c0,2.9-.1,9.8-.1,14.6v31.5ZM1189.01,613.4c10.9,0,14.1-7.4,14.1-18.6s-3-18.2-13.8-18.2c-9.4,0-14.2,7.9-14.2,18.8s5.6,18,13.9,18Z"/>
  </g>
  <rect class="cls-8" x="1146.59" y="680.83" width="85.51" height="119.69"/>
  <g class="cls-12">
    <path class="cls-14" d="M1191.91,772.09c-7.2,0-11.7-2.9-15.8-8.6l-.5,7.7h-8.6c.3-4.9.3-9.8.3-14.7v-57.6h8.8v30.3c3.9-6.4,9.5-9.5,17-9.5,14.9,0,21.3,12.2,21.3,25.5s-7.2,26.9-22.5,26.9ZM1191.21,725.89c-11.2,0-15.2,10.4-15.2,20.1,0,9.1,3.2,19.7,14.1,19.7s15.1-10.1,15.1-19.9c0-9-3.2-19.9-14-19.9Z"/>
  </g>
  <g class="cls-12">
    <path class="cls-10" d="M1167.95,697.79h8.8v29.9c2.2-4.3,6.9-8.4,16.1-8.4,12.8,0,20.8,10.5,20.8,25.5s-7.8,27.6-22.1,27.6c-8.1,0-12.4-3-14.9-7.9,0,2.6-.2,5.3-.4,6.7h-8.4c.1-5.7.1-11.4.1-17v-56.4ZM1190.86,726.69c-10.8,0-14.6,7.2-14.6,19.3,0,10.6,3.4,19,14.1,19,9,0,14.3-7.7,14.3-20,0-11-5-18.3-13.8-18.3Z"/>
  </g>
  <path class="cls-11" d="M1403.64,400.32c-2.3-5.7-2.4-11.8-2.9-17.8-1-10.6-1.6-15.7-13.7-15.7h-15.4v33.5h-9.4v-72.3h25.8c11.8,0,24.3,3.6,24.3,17.8,0,9.6-5.7,14.7-14.4,17.1,9.2,2,11.5,7.2,12.3,15,.5,4.8.6,9.9,1.6,15.4.5,2.7,1.1,5.1,2.4,7h-10.6ZM1385.94,335.21h-14.3v24.5h11.7c9.1,0,19.4-1.4,19.4-12.8,0-10.1-8.5-11.7-16.8-11.7Z"/>
  <path class="cls-11" d="M1460.72,369.71v30.6h-9.1v-69.6h27.2c14.3,0,21.9,7.8,21.9,18.6,0,9.1-5.2,14.6-11.9,16.4,5.7,1.5,10.6,5.8,10.6,17.8v3c0,4.8-.2,10.9,1,13.8h-9c-1.3-3-1.2-8.4-1.2-15v-1.4c0-9.9-2.8-14.2-15.3-14.2h-14.2ZM1460.72,361.91h15.1c10.7,0,15.3-4,15.3-11.8,0-7.4-4.8-11.6-14.2-11.6h-16.2v23.4Z"/>
  <path class="cls-11" d="M1403.64,400.32c-2.3-5.7-2.4-11.8-2.9-17.8-1-10.6-1.6-15.7-13.7-15.7h-15.4v33.5h-9.4v-72.3h25.8c11.8,0,24.3,3.6,24.3,17.8,0,9.6-5.7,14.7-14.4,17.1,9.2,2,11.5,7.2,12.3,15,.5,4.8.6,9.9,1.6,15.4.5,2.7,1.1,5.1,2.4,7h-10.6ZM1385.94,335.21h-14.3v24.5h11.7c9.1,0,19.4-1.4,19.4-12.8,0-10.1-8.5-11.7-16.8-11.7Z"/>
  <path class="cls-11" d="M1460.72,369.71v30.6h-9.1v-69.6h27.2c14.3,0,21.9,7.8,21.9,18.6,0,9.1-5.2,14.6-11.9,16.4,5.7,1.5,10.6,5.8,10.6,17.8v3c0,4.8-.2,10.9,1,13.8h-9c-1.3-3-1.2-8.4-1.2-15v-1.4c0-9.9-2.8-14.2-15.3-14.2h-14.2ZM1460.72,361.91h15.1c10.7,0,15.3-4,15.3-11.8,0-7.4-4.8-11.6-14.2-11.6h-16.2v23.4Z"/>
  <path class="cls-10" d="M1387.07,366.81c12.1,0,12.7,5.1,13.7,15.7.5,6,.6,12.1,2.9,17.8h10.6c-1.3-1.9-1.9-4.3-2.4-7-1-5.5-1.1-10.6-1.6-15.4-.8-7.8-3.1-13-12.3-15"/>
  <path class="cls-10" d="M1474.93,369.71c12.5,0,15.3,4.3,15.3,14.2v1.4c0,6.6-.1,12,1.2,15h9c-1.2-2.9-1-9-1-13.8v-3c0-12-4.9-16.3-10.6-17.8"/>
  <path class="cls-5" d="M1437.3,400.21c26.61-.16,53.21-.21,79.82-.11"/>
  <path class="cls-5" d="M1349.32,400.32c25.86-.21,51.73-.29,77.59-.25"/>
  <path class="cls-5" d="M1437.31,330.74c26.61-.11,53.21-.14,79.82-.13"/>
  <path class="cls-5" d="M1349.32,328.02c25.86-.02,51.73-.03,77.59.01"/>
  <path class="cls-11" d="M1504.01,552.5h-7.13c-.5-1.3-.8-4.42-.9-9.44-3.01,4.92-9.03,10.34-21.68,10.34-20.17,0-30.81-15.26-30.81-35.13,0-20.88,11.44-36.64,32.52-36.64,16.26,0,26.4,8.83,28.41,21.28h-9.23c-2.41-7.83-7.93-13.55-19.37-13.55-16.16,0-22.58,12.95-22.58,28.51,0,14.35,6.42,27.8,22.18,27.8s19.57-10.44,19.57-22.18v-.8h-19.67v-7.93h28.71v37.74Z"/>
  <path class="cls-10" d="M1494.98,523.49v-.8h-19.67v-7.93h28.71v37.74h-7.13c-.5-1.31-.8-4.42-.9-9.43"/>
  <path class="cls-11" d="M1386.22,553.49c-22.78,0-34.83-15.56-34.83-37.34,0-20.58,11.44-37.54,33.52-37.54,13.25,0,24.39,6.12,25.59,20.48h-9.84c-1.4-8.83-7.53-12.95-16.16-12.95-16.66,0-22.99,15.06-22.99,29.51,0,15.86,7.23,30.41,24.99,30.41,5.22,0,10.44-.7,15.46-2.21v-21.58h-17.37v-7.13h26.5v34.33c-8.13,2.21-16.46,4.01-24.89,4.01Z"/>
  <path class="cls-10" d="M1401.98,543.95v-21.58h-17.36v-7.13h26.5v34.33"/>
  <path class="cls-5" d="M1433.8,552.5c27.28,0,54.56.02,81.85.19"/>
  <path class="cls-5" d="M1350.95,552.69c24.21.15,48.43.22,72.64.21"/>
  <path class="cls-5" d="M1434.51,481.51c27.28,0,54.56.02,81.85.24"/>
  <path class="cls-5" d="M1349.85,478.49c24.21.19,48.43.27,72.64.26"/>
  <g>
    <path class="cls-1" d="M1363.53,515.24c0,.13,0,.27,0,.4"/>
    <path class="cls-3" d="M1363.59,517.65c.68,13.68,7.3,25.74,22.27,26.45"/>
    <path class="cls-1" d="M1386.87,544.13c.13,0,.27,0,.4,0"/>
  </g>
  <g>
    <path class="cls-1" d="M1455.75,518.55c0,.13,0,.27,0,.4"/>
    <path class="cls-6" d="M1455.82,520.9c.46,7.86,3.29,16.29,10.4,20.37,7.02,4.03,16.91,3.33,22.54-2.67"/>
    <path class="cls-1" d="M1489.41,537.86c.08-.1.17-.21.25-.31"/>
  </g>
  <rect class="cls-8" x="1569.81" y="79.11" width="174.99" height="119.69"/>
  <path class="cls-11" d="M1708.83,155.71c0,15.76-6.22,21.38-17.97,21.38-2.81,0-5.32-.3-7.33-.7v-7.73c1.3.3,4.21.5,6.42.5,8.43,0,9.54-6.22,9.54-13.15v-49.79h9.33v49.48Z"/>
  <path class="cls-11" d="M1614.12,176.92c-11.1,0-20.7-6.2-20.7-19.6h9.6c0,6.4,3,12.2,11.4,12.2,9.6,0,12.4-7,12.4-15.5v-50.4h9.4v50.6c0,14.6-7.1,22.7-22.1,22.7Z"/>
  <path class="cls-5" d="M1676.97,176.03c16.63,0,33.26.02,49.89.19"/>
  <path class="cls-5" d="M1578.13,176.01c24.21.15,48.43.22,72.64.21"/>
  <path class="cls-5" d="M1676.97,106.11c16.63,0,33.26.02,49.89.24"/>
  <path class="cls-5" d="M1575.56,103.23c24.21.19,48.43.27,72.64.26"/>
  <path class="cls-4" d="M1604.65,156.88c0,5.8,2.59,11.05,9.86,11.05,8.3,0,10.72-6.34,10.72-14.04v-45.66"/>
  <path class="cls-4" d="M1685.87,166.97c.98.28,3.15.46,4.8.46,6.3,0,7.13-5.68,7.13-12v-45.45"/>
  <path class="cls-8" d="M1563.16,230.25v102.87c.51,1.17.45,2.39,0,3.48v13.35h216.64v-119.69h-216.64Z"/>
  <path class="cls-11" d="M1741.29,291.84c0,11.84-4.12,22.88-12.35,29.61l16.96,12.04-5.62,6.42-19.57-13.75c-3.61,1.31-7.63,2.01-12.14,2.01-20.58,0-32.02-15.86-32.02-35.93s11.64-35.93,32.82-35.93c19.67,0,31.92,14.75,31.92,35.53ZM1686.28,291.94c0,15.06,7.63,28.3,22.68,28.3,16.16,0,22.68-13.35,22.68-28.2s-7.33-27.8-22.68-27.8-22.68,12.85-22.68,27.7Z"/>
  <path class="cls-11" d="M1644.38,327.05c-8.3,0-16.4,1.2-24.7,1.2-21.7,0-31.4-17.8-31.4-37.3,0-20.7,10.4-37.6,32.9-37.6s32.4,15.6,32.4,36.1c0,12.5-3.8,24-14.3,31.5,5.6-.8,11.3-1,17.1-1v7.2c-4.1,0-8-.1-12-.1ZM1620.88,260.84c-16.9,0-22.7,15.4-22.7,29.9s5.6,30.1,22.7,30.1,22.8-15.5,22.8-30.1-5.4-29.9-22.8-29.9Z"/>
  <path class="cls-5" d="M1672.97,256.07c26.18,0,52.35.02,78.53.24"/>
  <path class="cls-5" d="M1581.14,253.08c26.37.19,52.73.27,79.1.26"/>
  <path class="cls-10" d="M1708.56,328.17c4.52,0,8.53-.7,12.14-2.01l19.57,13.75,5.62-6.42-16.96-12.04c1.4-1.14,2.67-2.42,3.84-3.8-2.07-2.07-4.15-4.14-6.23-6.21-3.64,5.35-9.36,8.8-17.58,8.8"/>
  <path class="cls-5" d="M1672.97,327.07c26.18,0,52.35.02,78.53.19"/>
  <path class="cls-10" d="M1650.27,307.26h-9.54c-3.24,7.81-9.42,13.59-19.86,13.59l-1.2,7.4c8.3,0,16.4-1.2,24.7-1.2,4,0,7.9.1,12,.1v-7.2c-5.8,0-11.5.2-17.1,1,5.19-3.7,8.73-8.39,10.99-13.69Z"/>
  <path class="cls-5" d="M1581.29,327.06c26.32.15,52.63.22,78.95.21"/>
  <rect class="cls-8" x="831.54" y="106.01" width="174.99" height="119.69"/>
  <rect class="cls-8" x="1166.47" y="79.11" width="85.51" height="119.69"/>
  <g class="cls-12">
    <path class="cls-14" d="M1196.53,138.7v1c0,9.3,5,17.8,15.2,17.8,7.2,0,11.9-4.4,13-11.5h8.4c-2,11.9-10.6,17.4-22.1,17.4-15.7,0-23.3-10.5-23.3-25.5s7.6-27,24-27,21.7,13.1,21.7,27.8h-36.9ZM1211.43,116.9c-9.3,0-13.9,7.6-14.7,16h28c.1-8.3-4.1-16-13.3-16Z"/>
  </g>
  <g class="cls-12">
    <path class="cls-10" d="M1197.13,138.5c.1,10.3,5.3,17.7,13.9,17.7,8,0,10.6-4.2,12.2-7.9h8.9c-2,6.5-7.5,15.2-21.4,15.2-15.9,0-22.4-13-22.4-26,0-15.1,7.6-27.1,23-27.1,16.4,0,21.7,13.1,21.7,23.9,0,1.6,0,2.9-.1,4.2h-35.8ZM1224.13,132.4c-.1-8.4-4.3-15.1-12.9-15.1s-12.9,6.2-13.8,15.1h26.7Z"/>
  </g>
  <path class="cls-14" d="M858.64,201.99v-72.3h8.8v72.3h-8.8ZM892.35,201.99l-24.6-28.5,22.7-22.1h11.2l-23.5,21.8,25.5,28.8h-11.3Z"/>
  <path class="cls-10" d="M947.87,175.48c4.2-5,15.4-16.7,22.2-24.2h10.5l-19.1,19.7,21.3,31h-10.3l-17-25.3-7.6,7.3v18h-8.8v-73.4h8.8v46.9Z"/>
  <rect class="cls-8" x="835.08" y="255.25" width="174.99" height="119.69"/>
  <path class="cls-14" d="M891.44,349.91c-8.1,0-12.3-3.3-12.3-11.7v-33.2h-9.9v-6.1h9.9v-9.8l8.8-3.7v13.5h11.3v6.1h-11.3v29.7c0,6.1.8,8.4,6.9,8.4,1.6,0,3-.2,4.7-.5v6.7c-2.8.4-5.4.6-8.1.6Z"/>
  <path class="cls-10" d="M949.86,298.7h8.8v-15h8.7v15h11.2v7.1h-11.2v29.7c0,5,1.2,7.5,5.8,7.5,1.2,0,3-.1,4.4-.4v6.6c-2.1.8-5.1.9-7.6.9-7.9,0-11.3-4.1-11.3-12.5v-31.8h-8.8v-7.1Z"/>
  <rect class="cls-8" x="831.54" y="395.69" width="174.99" height="119.69"/>
  <path class="cls-14" d="M876.31,494.43h-8.8l8.3-19.1-21.5-50.4h10l15.9,41.3,15.8-41.3h8.9l-28.6,69.5Z"/>
  <path class="cls-10" d="M944.63,424.72c8.2,24.3,12.7,37.7,14.1,42.9h.1c1.6-5.8,5.2-17.4,13.5-42.9h8.8l-18.2,53c-5.1,14.9-9,18.6-19.3,18.6-1.6,0-3.5-.1-5.5-.3v-7.6c1.3.1,2.8.2,4.2.2,6.4,0,8.8-2.8,11.8-11.2l-19-52.7h9.5Z"/>
  <g>
    <path class="cls-13" d="M798.41,43.78c-1.5.75-4.87,1.55-9.26,1.55-12.47,0-18.89-7.76-18.89-18.03,0-12.31,8.78-19.16,19.69-19.16,4.23,0,7.44.86,8.88,1.61l-1.66,6.48c-1.66-.7-3.96-1.34-6.85-1.34-6.48,0-11.51,3.91-11.51,11.93,0,7.22,4.28,11.77,11.56,11.77,2.46,0,5.19-.54,6.8-1.18l1.23,6.37Z"/>
    <path class="cls-13" d="M828.33,31.42c0,9.58-6.8,13.97-13.81,13.97-7.65,0-13.54-5.03-13.54-13.49s5.57-13.86,13.97-13.86,13.38,5.51,13.38,13.38ZM809.39,31.68c0,4.49,1.87,7.87,5.35,7.87,3.16,0,5.19-3.16,5.19-7.87,0-3.91-1.5-7.87-5.19-7.87-3.91,0-5.35,4.01-5.35,7.87Z"/>
    <path class="cls-13" d="M833.36,26.98c0-3.26-.11-6.05-.21-8.35h6.85l.38,3.53h.16c1.12-1.66,3.42-4.12,7.92-4.12,3.37,0,6.05,1.71,7.17,4.44h.11c.96-1.34,2.14-2.41,3.37-3.16,1.44-.86,3.05-1.28,4.98-1.28,5.03,0,8.83,3.53,8.83,11.34v15.41h-7.92v-14.23c0-3.8-1.23-5.99-3.85-5.99-1.87,0-3.21,1.28-3.75,2.84-.21.59-.32,1.44-.32,2.09v15.3h-7.92v-14.66c0-3.32-1.18-5.56-3.75-5.56-2.09,0-3.32,1.6-3.8,2.94-.27.64-.32,1.39-.32,2.03v15.25h-7.92v-17.82Z"/>
    <path class="cls-13" d="M879.39,27.4c0-3.42-.11-6.37-.21-8.78h7.06l.37,3.64h.11c1.93-2.78,4.92-4.23,8.72-4.23,5.73,0,10.86,4.98,10.86,13.32,0,9.53-6.05,14.02-11.88,14.02-3.16,0-5.62-1.28-6.8-3h-.11v13h-8.13v-27.99ZM887.52,33.56c0,.64.05,1.23.16,1.71.54,2.19,2.41,3.85,4.76,3.85,3.53,0,5.62-2.94,5.62-7.38,0-4.17-1.87-7.33-5.51-7.33-2.3,0-4.33,1.71-4.87,4.12-.11.43-.16.96-.16,1.44v3.58Z"/>
    <path class="cls-13" d="M926.27,44.79l-.48-2.62h-.16c-1.71,2.09-4.39,3.21-7.49,3.21-5.3,0-8.46-3.85-8.46-8.03,0-6.8,6.1-10.06,15.36-10.01v-.37c0-1.39-.75-3.37-4.76-3.37-2.68,0-5.51.91-7.22,1.98l-1.5-5.24c1.82-1.02,5.4-2.3,10.17-2.3,8.72,0,11.51,5.14,11.51,11.29v9.1c0,2.52.11,4.92.37,6.37h-7.33ZM925.3,32.43c-4.28-.05-7.6.96-7.6,4.12,0,2.09,1.39,3.1,3.21,3.1,2.03,0,3.69-1.34,4.23-3,.11-.43.16-.91.16-1.39v-2.84Z"/>
    <path class="cls-13" d="M939.65,27.24c0-3.85-.11-6.37-.21-8.62h7.01l.27,4.82h.21c1.34-3.8,4.55-5.4,7.06-5.4.75,0,1.12,0,1.71.11v7.65c-.59-.11-1.28-.21-2.19-.21-3,0-5.03,1.61-5.57,4.12-.11.53-.16,1.18-.16,1.82v13.27h-8.13v-17.55Z"/>
    <path class="cls-13" d="M968.39,11.35c0,2.25-1.71,4.07-4.39,4.07s-4.28-1.82-4.23-4.07c-.05-2.35,1.66-4.12,4.28-4.12s4.28,1.77,4.33,4.12ZM959.98,44.79v-26.17h8.13v26.17h-8.13Z"/>
    <path class="cls-13" d="M974.59,37.68c1.5.91,4.6,1.98,7.01,1.98s3.48-.86,3.48-2.19-.8-1.98-3.85-3c-5.41-1.82-7.49-4.76-7.44-7.87,0-4.87,4.17-8.56,10.65-8.56,3.05,0,5.78.7,7.38,1.5l-1.44,5.62c-1.18-.64-3.42-1.5-5.67-1.5-1.98,0-3.1.8-3.1,2.14,0,1.23,1.02,1.87,4.23,3,4.98,1.71,7.06,4.23,7.12,8.08,0,4.87-3.85,8.46-11.34,8.46-3.42,0-6.47-.75-8.46-1.82l1.45-5.83Z"/>
    <path class="cls-13" d="M1023.72,31.42c0,9.58-6.8,13.97-13.81,13.97-7.65,0-13.54-5.03-13.54-13.49s5.57-13.86,13.97-13.86,13.38,5.51,13.38,13.38ZM1004.78,31.68c0,4.49,1.87,7.87,5.35,7.87,3.16,0,5.19-3.16,5.19-7.87,0-3.91-1.5-7.87-5.19-7.87-3.91,0-5.35,4.01-5.35,7.87Z"/>
    <path class="cls-13" d="M1028.75,26.98c0-3.26-.11-6.05-.21-8.35h7.06l.37,3.58h.16c1.07-1.66,3.75-4.17,8.08-4.17,5.35,0,9.36,3.53,9.36,11.24v15.52h-8.13v-14.5c0-3.37-1.18-5.67-4.12-5.67-2.25,0-3.59,1.55-4.12,3.05-.21.48-.32,1.28-.32,2.03v15.09h-8.13v-17.82Z"/>
  </g>
  <g>
    <path class="cls-13" d="M1109.34,36.39c2.19,1.12,5.56,2.25,9.04,2.25,3.75,0,5.73-1.55,5.73-3.91s-1.71-3.53-6.05-5.08c-5.99-2.09-9.9-5.4-9.9-10.65,0-6.15,5.14-10.86,13.65-10.86,4.07,0,7.06.86,9.2,1.82l-1.82,6.58c-1.44-.7-4.01-1.71-7.54-1.71s-5.24,1.6-5.24,3.48c0,2.3,2.03,3.32,6.69,5.08,6.37,2.35,9.37,5.67,9.37,10.76,0,6.05-4.66,11.18-14.56,11.18-4.12,0-8.19-1.07-10.22-2.19l1.66-6.74Z"/>
    <path class="cls-13" d="M1146.11,11.35c0,2.25-1.71,4.07-4.39,4.07s-4.28-1.82-4.23-4.07c-.05-2.35,1.66-4.12,4.28-4.12s4.28,1.77,4.33,4.12ZM1137.71,44.79v-26.17h8.13v26.17h-8.13Z"/>
    <path class="cls-13" d="M1152.37,26.98c0-3.26-.11-6.05-.21-8.35h6.85l.38,3.53h.16c1.12-1.66,3.42-4.12,7.92-4.12,3.37,0,6.05,1.71,7.17,4.44h.11c.96-1.34,2.14-2.41,3.37-3.16,1.44-.86,3.05-1.28,4.98-1.28,5.03,0,8.83,3.53,8.83,11.34v15.41h-7.92v-14.23c0-3.8-1.23-5.99-3.85-5.99-1.87,0-3.21,1.28-3.75,2.84-.21.59-.32,1.44-.32,2.09v15.3h-7.92v-14.66c0-3.32-1.18-5.56-3.75-5.56-2.09,0-3.32,1.6-3.8,2.94-.27.64-.32,1.39-.32,2.03v15.25h-7.92v-17.82Z"/>
    <path class="cls-13" d="M1206.8,11.35c0,2.25-1.71,4.07-4.39,4.07s-4.28-1.82-4.23-4.07c-.05-2.35,1.66-4.12,4.28-4.12s4.28,1.77,4.33,4.12ZM1198.4,44.79v-26.17h8.13v26.17h-8.13Z"/>
    <path class="cls-13" d="M1213.06,6.8h8.13v37.99h-8.13V6.8Z"/>
    <path class="cls-13" d="M1242.65,44.79l-.48-2.62h-.16c-1.71,2.09-4.39,3.21-7.49,3.21-5.3,0-8.46-3.85-8.46-8.03,0-6.8,6.1-10.06,15.36-10.01v-.37c0-1.39-.75-3.37-4.76-3.37-2.68,0-5.51.91-7.22,1.98l-1.5-5.24c1.82-1.02,5.4-2.3,10.17-2.3,8.72,0,11.51,5.14,11.51,11.29v9.1c0,2.52.11,4.92.37,6.37h-7.33ZM1241.69,32.43c-4.28-.05-7.6.96-7.6,4.12,0,2.09,1.39,3.1,3.21,3.1,2.03,0,3.69-1.34,4.23-3,.11-.43.16-.91.16-1.39v-2.84Z"/>
    <path class="cls-13" d="M1256.03,27.24c0-3.85-.11-6.37-.21-8.62h7.01l.27,4.82h.21c1.34-3.8,4.55-5.4,7.06-5.4.75,0,1.12,0,1.71.11v7.65c-.59-.11-1.28-.21-2.19-.21-3,0-5.03,1.61-5.57,4.12-.11.53-.16,1.18-.16,1.82v13.27h-8.13v-17.55Z"/>
    <path class="cls-13" d="M1284.77,11.35c0,2.25-1.71,4.07-4.39,4.07s-4.28-1.82-4.23-4.07c-.05-2.35,1.66-4.12,4.28-4.12s4.28,1.77,4.33,4.12ZM1276.37,44.79v-26.17h8.13v26.17h-8.13Z"/>
    <path class="cls-13" d="M1300.13,11.14v7.49h5.83v5.99h-5.83v9.47c0,3.16.75,4.6,3.21,4.6,1.02,0,1.82-.11,2.41-.21l.05,6.15c-1.07.43-3,.7-5.3.7-2.62,0-4.82-.91-6.1-2.25-1.5-1.55-2.25-4.07-2.25-7.76v-10.7h-3.48v-5.99h3.48v-5.67l7.97-1.82Z"/>
    <path class="cls-13" d="M1319.07,11.35c0,2.25-1.71,4.07-4.39,4.07s-4.28-1.82-4.23-4.07c-.05-2.35,1.66-4.12,4.28-4.12s4.28,1.77,4.33,4.12ZM1310.67,44.79v-26.17h8.13v26.17h-8.13Z"/>
    <path class="cls-13" d="M1331.6,34.31c.27,3.37,3.58,4.98,7.38,4.98,2.78,0,5.03-.37,7.22-1.07l1.07,5.51c-2.68,1.07-5.94,1.61-9.47,1.61-8.88,0-13.97-5.14-13.97-13.32,0-6.64,4.12-13.97,13.22-13.97,8.46,0,11.67,6.58,11.67,13.06,0,1.39-.16,2.62-.27,3.21h-16.86ZM1341.18,28.74c0-1.98-.86-5.3-4.6-5.3-3.42,0-4.82,3.1-5.03,5.3h9.63Z"/>
    <path class="cls-13" d="M1353.54,37.68c1.5.91,4.6,1.98,7.01,1.98s3.48-.86,3.48-2.19-.8-1.98-3.85-3c-5.41-1.82-7.49-4.76-7.44-7.87,0-4.87,4.17-8.56,10.65-8.56,3.05,0,5.78.7,7.38,1.5l-1.44,5.62c-1.18-.64-3.42-1.5-5.67-1.5-1.98,0-3.1.8-3.1,2.14,0,1.23,1.02,1.87,4.23,3,4.98,1.71,7.06,4.23,7.12,8.08,0,4.87-3.85,8.46-11.34,8.46-3.42,0-6.47-.75-8.46-1.82l1.45-5.83Z"/>
  </g>
  <g>
    <path class="cls-13" d="M1471.29,9.21c3-.48,6.9-.75,11.02-.75,6.85,0,11.29,1.23,14.77,3.85,3.75,2.78,6.1,7.22,6.1,13.59,0,6.9-2.52,11.67-5.99,14.61-3.8,3.16-9.58,4.66-16.64,4.66-4.23,0-7.22-.27-9.26-.54V9.21ZM1479.48,38.64c.7.16,1.82.16,2.84.16,7.38.05,12.2-4.01,12.2-12.63.05-7.49-4.33-11.45-11.34-11.45-1.82,0-3,.16-3.69.32v23.6Z"/>
    <path class="cls-13" d="M1516.89,11.35c0,2.25-1.71,4.07-4.39,4.07s-4.28-1.82-4.23-4.07c-.05-2.35,1.66-4.12,4.28-4.12s4.28,1.77,4.33,4.12ZM1508.49,44.79v-26.17h8.13v26.17h-8.13Z"/>
    <path class="cls-13" d="M1540.59,44.79v-20.17h-8.35v20.17h-8.19v-20.17h-3.42v-5.99h3.42v-.54c0-3.1.8-6.21,3-8.4,1.77-1.77,4.33-2.89,8.03-2.89,1.34,0,2.68.32,3.48.64l-1.12,5.99c-.64-.21-1.34-.37-2.09-.37-2.41,0-3.16,1.98-3.16,4.6v.96h8.4v-1.02c0-3.16.96-6.64,3.32-8.78,2.03-1.93,4.82-2.62,7.22-2.62,1.77,0,3.21.21,4.33.54l-.32,6.26c-.75-.21-1.55-.37-2.68-.37-2.68,0-3.8,2.09-3.8,4.66v1.34h5.24v5.99h-5.19v20.17h-8.13Z"/>
    <path class="cls-13" d="M1563.66,34.31c.27,3.37,3.58,4.98,7.38,4.98,2.78,0,5.03-.37,7.22-1.07l1.07,5.51c-2.68,1.07-5.94,1.61-9.47,1.61-8.88,0-13.97-5.14-13.97-13.32,0-6.64,4.12-13.97,13.22-13.97,8.46,0,11.67,6.58,11.67,13.06,0,1.39-.16,2.62-.27,3.21h-16.86ZM1573.24,28.74c0-1.98-.86-5.3-4.6-5.3-3.42,0-4.82,3.1-5.03,5.3h9.63Z"/>
    <path class="cls-13" d="M1585.66,27.24c0-3.85-.11-6.37-.21-8.62h7.01l.27,4.82h.21c1.34-3.8,4.55-5.4,7.06-5.4.75,0,1.12,0,1.71.11v7.65c-.59-.11-1.28-.21-2.19-.21-3,0-5.03,1.61-5.57,4.12-.11.53-.16,1.18-.16,1.82v13.27h-8.13v-17.55Z"/>
    <path class="cls-13" d="M1611.83,34.31c.27,3.37,3.58,4.98,7.38,4.98,2.78,0,5.03-.37,7.22-1.07l1.07,5.51c-2.68,1.07-5.94,1.61-9.47,1.61-8.88,0-13.97-5.14-13.97-13.32,0-6.64,4.12-13.97,13.22-13.97,8.46,0,11.67,6.58,11.67,13.06,0,1.39-.16,2.62-.27,3.21h-16.86ZM1621.41,28.74c0-1.98-.86-5.3-4.6-5.3-3.42,0-4.82,3.1-5.03,5.3h9.63Z"/>
    <path class="cls-13" d="M1633.82,26.98c0-3.26-.11-6.05-.21-8.35h7.06l.37,3.58h.16c1.07-1.66,3.75-4.17,8.08-4.17,5.35,0,9.36,3.53,9.36,11.24v15.52h-8.13v-14.5c0-3.37-1.18-5.67-4.12-5.67-2.25,0-3.59,1.55-4.12,3.05-.21.48-.32,1.28-.32,2.03v15.09h-8.13v-17.82Z"/>
    <path class="cls-13" d="M1684.82,44.15c-1.44.64-4.17,1.18-7.28,1.18-8.46,0-13.86-5.14-13.86-13.38,0-7.65,5.24-13.91,14.98-13.91,2.14,0,4.5.37,6.21,1.02l-1.28,6.05c-.96-.43-2.41-.8-4.55-.8-4.28,0-7.06,3.05-7.01,7.33,0,4.82,3.21,7.33,7.17,7.33,1.93,0,3.42-.32,4.66-.8l.96,5.99Z"/>
    <path class="cls-13" d="M1694.99,34.31c.27,3.37,3.58,4.98,7.38,4.98,2.78,0,5.03-.37,7.22-1.07l1.07,5.51c-2.68,1.07-5.94,1.61-9.47,1.61-8.88,0-13.97-5.14-13.97-13.32,0-6.64,4.12-13.97,13.22-13.97,8.46,0,11.67,6.58,11.67,13.06,0,1.39-.16,2.62-.27,3.21h-16.86ZM1704.57,28.74c0-1.98-.86-5.3-4.6-5.3-3.42,0-4.82,3.1-5.03,5.3h9.63Z"/>
    <path class="cls-13" d="M1716.94,37.68c1.5.91,4.6,1.98,7.01,1.98s3.48-.86,3.48-2.19-.8-1.98-3.85-3c-5.41-1.82-7.49-4.76-7.44-7.87,0-4.87,4.17-8.56,10.65-8.56,3.05,0,5.78.7,7.38,1.5l-1.44,5.62c-1.18-.64-3.42-1.5-5.67-1.5-1.98,0-3.1.8-3.1,2.14,0,1.23,1.02,1.87,4.23,3,4.98,1.71,7.06,4.23,7.12,8.08,0,4.87-3.85,8.46-11.34,8.46-3.42,0-6.47-.75-8.46-1.82l1.45-5.83Z"/>
  </g>
</svg>