<?xml version="1.0" encoding="UTF-8"?>
<svg id="Layer_1" data-name="Layer 1" xmlns="http://www.w3.org/2000/svg" viewBox="0 0 629.28 262.8">
  <defs>
    <style>
      .cls-1 {
        fill: #231f20;
      }

      .cls-2 {
        fill: #ed1b83;
      }

      .cls-3 {
        opacity: .7;
      }

      .cls-4 {
        fill: #2bb673;
      }
    </style>
  </defs>
  <rect class="cls-1" y="0" width="629.28" height="262.8"/>
  <g>
    <g class="cls-3">
      <path class="cls-4" d="M281.77,146.28v2.34c0,21.76,11.7,41.65,35.56,41.65,16.85,0,27.84-10.29,30.42-26.91h19.65c-4.68,27.84-24.8,40.71-51.71,40.71-36.73,0-54.52-24.57-54.52-59.66s17.78-63.17,56.15-63.17,50.77,30.65,50.77,65.05h-86.34ZM316.63,95.28c-21.76,0-32.52,17.78-34.39,37.44h65.51c.23-19.42-9.59-37.44-31.12-37.44Z"/>
    </g>
    <g class="cls-3">
      <path class="cls-2" d="M283.17,145.82c.23,24.1,12.4,41.41,32.52,41.41,18.72,0,24.8-9.83,28.54-18.48h20.82c-4.68,15.21-17.55,35.56-50.07,35.56-37.2,0-52.41-30.42-52.41-60.83,0-35.33,17.78-63.41,53.82-63.41,38.37,0,50.77,30.65,50.77,55.92,0,3.74,0,6.79-.23,9.83h-83.76ZM346.35,131.54c-.23-19.65-10.06-35.33-30.18-35.33s-30.18,14.51-32.29,35.33h62.47Z"/>
    </g>
  </g>
</svg>