<?xml version="1.0" encoding="UTF-8"?>
<svg id="Layer_1" data-name="Layer 1" xmlns="http://www.w3.org/2000/svg" viewBox="0 0 85.51 119.69">
  <defs>
    <style>
      .cls-1 {
        fill: #6cb677;
      }

      .cls-2 {
        fill: #cc1a81;
      }

      .cls-3 {
        fill: #221f20;
      }

      .cls-4 {
        opacity: .7;
      }
    </style>
  </defs>
  <rect class="cls-3" width="85.51" height="119.69"/>
  <g class="cls-4">
    <path class="cls-1" d="M65.87,47.71v18.7c0,19.4-.9,34.4-23.8,34.4-10.2,0-20.9-3.1-20.9-15.4h8.6c0,7.2,6,9.4,12.2,9.4,10.6,0,14.1-5.9,14.9-15.2.2-2.7.2-5.5.2-8.3-3.9,6-9.5,8.9-16.7,8.9-15.1,0-22.2-11.5-22.2-25.4s7.4-25.5,22.1-25.5c7.5,0,13.3,3,17.1,9.5v-8.6h8.9c-.4,5.8-.4,11.7-.4,17.5ZM42.47,35.41c-11.1,0-14.9,10.2-14.9,19.7s4,19.2,14.8,19.2,14.8-10.4,14.8-20c0-8.9-4.5-18.9-14.7-18.9Z"/>
  </g>
  <g class="cls-4">
    <path class="cls-2" d="M64.83,76.12c0,16.3-6.7,25.5-23.3,25.5-15.4,0-20.1-8.6-21-15.5h8.9c1.5,5.6,6,8.5,12.5,8.5,11.5,0,14.3-7.3,14.3-18.9v-4.1c-2.7,5.6-7.3,8.9-15.8,8.9-12.5,0-21-10.2-21-25.1,0-16.5,9.7-26.6,21.9-26.6,9.7,0,13.8,4.5,14.9,7.9.1-2.3.4-5.7.5-6.7h8.2c0,2.9-.1,9.8-.1,14.6v31.5ZM42.42,73.01c10.9,0,14.1-7.4,14.1-18.6s-3-18.2-13.8-18.2c-9.4,0-14.2,7.9-14.2,18.8s5.6,18,13.9,18Z"/>
  </g>
</svg>