<?xml version="1.0" encoding="UTF-8"?>
<svg id="Layer_1" data-name="Layer 1" xmlns="http://www.w3.org/2000/svg" viewBox="0 0 175 119.69">
  <defs>
    <style>
      .cls-1 {
        stroke: #949598;
        stroke-width: .5px;
      }

      .cls-1, .cls-2, .cls-3, .cls-4 {
        fill: none;
        stroke-miterlimit: 10;
      }

      .cls-2, .cls-3, .cls-4 {
        stroke: #cc1a81;
        stroke-linecap: round;
      }

      .cls-5 {
        fill: #cc1a81;
      }

      .cls-6 {
        fill: #221f20;
      }

      .cls-7 {
        fill: #fff;
      }

      .cls-3 {
        stroke-dasharray: .8 2;
      }

      .cls-4 {
        stroke-dasharray: .78 1.95;
      }
    </style>
  </defs>
  <rect class="cls-6" x="0" y="0" width="174.99" height="119.69"/>
  <path class="cls-7" d="M158.29,96.96h-7.13c-.5-1.3-.8-4.42-.9-9.44-3.01,4.92-9.03,10.34-21.68,10.34-20.17,0-30.81-15.26-30.81-35.13,0-20.88,11.44-36.64,32.52-36.64,16.26,0,26.4,8.83,28.41,21.28h-9.23c-2.41-7.83-7.93-13.55-19.37-13.55-16.16,0-22.58,12.95-22.58,28.51,0,14.35,6.42,27.8,22.18,27.8s19.57-10.44,19.57-22.18v-.8h-19.67v-7.93h28.71v37.74Z"/>
  <path class="cls-5" d="M149.26,67.95v-.8h-19.67v-7.93h28.71v37.74h-7.13c-.5-1.31-.8-4.42-.9-9.43"/>
  <path class="cls-7" d="M40.5,97.95c-22.78,0-34.83-15.56-34.83-37.34,0-20.58,11.44-37.54,33.52-37.54,13.25,0,24.39,6.12,25.59,20.48h-9.84c-1.4-8.83-7.53-12.95-16.16-12.95-16.66,0-22.99,15.06-22.99,29.51,0,15.86,7.23,30.41,24.99,30.41,5.22,0,10.44-.7,15.46-2.21v-21.58h-17.37v-7.13h26.5v34.33c-8.13,2.21-16.46,4.01-24.89,4.01Z"/>
  <path class="cls-5" d="M56.26,88.41v-21.58h-17.36v-7.13h26.5v34.33"/>
  <path class="cls-1" d="M88.08,96.96c27.28,0,54.56.02,81.85.19"/>
  <path class="cls-1" d="M5.23,97.15c24.21.15,48.43.22,72.64.21"/>
  <path class="cls-1" d="M88.79,25.97c27.28,0,54.56.02,81.85.24"/>
  <path class="cls-1" d="M4.13,22.95c24.21.19,48.43.27,72.64.26"/>
  <path class="cls-3" d="M17.81,59.7c0,15.07,6.87,28.89,23.74,28.89"/>
  <g>
    <path class="cls-2" d="M110.03,63.01c0,.13,0,.27,0,.4"/>
    <path class="cls-4" d="M110.09,65.36c.46,7.86,3.29,16.29,10.4,20.37,7.02,4.03,16.91,3.33,22.54-2.67"/>
    <path class="cls-2" d="M143.69,82.33c.08-.1.17-.21.25-.31"/>
  </g>
</svg>