<?xml version="1.0" encoding="UTF-8"?>
<svg id="Layer_1" data-name="Layer 1" xmlns="http://www.w3.org/2000/svg" viewBox="0 0 629.28 262.8">
  <defs>
    <style>
      .cls-1, .cls-2, .cls-3, .cls-4 {
        fill: none;
        stroke-miterlimit: 10;
      }

      .cls-1, .cls-2, .cls-4 {
        stroke: #ed1b83;
        stroke-linecap: round;
      }

      .cls-5 {
        fill: #231f20;
      }

      .cls-2 {
        stroke-dasharray: .81 2.01;
      }

      .cls-6 {
        fill: #ed1b83;
      }

      .cls-7 {
        fill: #fff;
      }

      .cls-3 {
        stroke: #939598;
        stroke-width: .5px;
      }

      .cls-4 {
        stroke-dasharray: .8 1.99;
      }
    </style>
  </defs>
  <rect class="cls-5" width="629.28" height="262.8"/>
  <g>
    <path class="cls-7" d="M462.36,203.48h-15.08c-1.06-2.76-1.7-9.35-1.91-19.97-6.37,10.41-19.12,21.88-45.88,21.88-42.69,0-65.21-32.29-65.21-74.34,0-44.18,24.21-77.53,68.82-77.53,34.41,0,55.86,18.69,60.11,45.03h-19.54c-5.1-16.57-16.78-28.67-40.99-28.67-34.2,0-47.79,27.4-47.79,60.32,0,30.37,13.59,58.84,46.94,58.84s41.42-22.09,41.42-46.94v-1.7h-41.63v-16.78h60.75v79.86Z"/>
    <path class="cls-6" d="M443.25,142.1v-1.7h-41.63v-16.78h60.75v79.87h-15.08c-1.06-2.76-1.7-9.35-1.91-19.97"/>
    <path class="cls-7" d="M213.09,205.59c-48.22,0-73.7-32.92-73.7-79.01,0-43.54,24.21-79.44,70.94-79.44,28.04,0,51.61,12.96,54.16,43.33h-20.82c-2.97-18.69-15.93-27.4-34.2-27.4-35.26,0-48.64,31.86-48.64,62.45,0,33.56,15.29,64.36,52.89,64.36,11.04,0,22.09-1.49,32.71-4.67v-45.67h-36.75v-15.08h56.07v72.64c-17.2,4.67-34.83,8.5-52.68,8.5Z"/>
    <path class="cls-6" d="M246.43,185.39v-45.67h-36.75v-15.08h56.08v72.65"/>
    <path class="cls-3" d="M313.78,203.48c57.74,0,115.47.05,173.21.41"/>
    <path class="cls-3" d="M138.44,203.89c51.24.32,102.49.46,153.73.45"/>
    <path class="cls-3" d="M315.28,53.24c57.74,0,115.47.05,173.21.51"/>
    <path class="cls-3" d="M136.11,46.86c51.24.4,102.49.58,153.73.56"/>
    <g>
      <path class="cls-1" d="M165.06,124.64c0,.13,0,.27,0,.4"/>
      <path class="cls-4" d="M165.09,127.03c.71,30.52,15,58,48.82,58.73"/>
      <path class="cls-1" d="M214.91,185.78c.13,0,.27,0,.4,0"/>
    </g>
    <g>
      <path class="cls-1" d="M360.23,131.64c0,.13,0,.27,0,.4"/>
      <path class="cls-2" d="M360.26,134.05c.49,17.33,6.29,36.58,22.13,45.67,15.28,8.77,36.99,6.95,48.72-6.78"/>
      <path class="cls-1" d="M431.75,172.17c.08-.1.17-.21.25-.31"/>
    </g>
  </g>
</svg>