<?xml version="1.0" encoding="UTF-8"?>
<svg id="Layer_1" data-name="Layer 1" xmlns="http://www.w3.org/2000/svg" viewBox="0 0 629.28 262.8">
  <defs>
    <style>
      .cls-1 {
        fill: #231f20;
      }

      .cls-2 {
        stroke: #ed1b83;
        stroke-dasharray: .8 2;
        stroke-linecap: round;
      }

      .cls-2, .cls-3 {
        fill: none;
        stroke-miterlimit: 10;
      }

      .cls-4 {
        fill: #fff;
      }

      .cls-3 {
        stroke: #939598;
        stroke-width: .5px;
      }
    </style>
  </defs>
  <rect class="cls-1" width="629.28" height="262.8"/>
  <g>
    <path class="cls-4" d="M446.69,165.58c0,36.88-14.56,50.03-42.05,50.03-6.58,0-12.45-.7-17.15-1.64v-18.09c3.05.7,9.87,1.17,15.03,1.17,19.73,0,22.32-14.56,22.32-30.77V49.78h21.84v115.8Z"/>
    <path class="cls-4" d="M225.04,215.23c-25.98,0-48.45-14.51-48.45-45.87h22.47c0,14.98,7.02,28.55,26.68,28.55,22.47,0,29.02-16.38,29.02-36.28V43.68h22v118.42c0,34.17-16.62,53.13-51.72,53.13Z"/>
    <path class="cls-3" d="M372.13,213.14c38.92,0,77.83.05,116.75.45"/>
    <path class="cls-3" d="M140.81,213.09c56.67.35,113.34.51,170.01.5"/>
    <path class="cls-2" d="M202.88,168.32c0,13.57,6.07,25.86,23.07,25.86,19.43,0,25.09-14.84,25.09-32.86V54.47"/>
    <path class="cls-2" d="M392.97,191.93c2.28.64,7.37,1.07,11.24,1.07,14.75,0,16.68-13.29,16.68-28.09V58.55"/>
    <path class="cls-3" d="M140.4,43.19c56.67.35,113.34.51,170.01.5"/>
    <path class="cls-3" d="M372.13,49.37c38.92,0,77.83.05,116.75.45"/>
  </g>
</svg>