<?xml version="1.0" encoding="UTF-8"?>
<svg id="Layer_1" data-name="Layer 1" xmlns="http://www.w3.org/2000/svg" viewBox="0 0 629.28 262.8">
  <defs>
    <style>
      .cls-1 {
        fill: #231f20;
      }

      .cls-2 {
        fill: #ed1b83;
      }

      .cls-3 {
        fill: #2bb673;
      }
    </style>
  </defs>
  <rect class="cls-1" width="629.28" height="262.8"/>
  <g>
    <path class="cls-3" d="M186.35,227.67V59.94h20.42v167.73h-20.42ZM264.53,227.67l-57.07-66.12,52.66-51.27h25.98l-54.52,50.57,59.16,66.81h-26.21Z"/>
    <path class="cls-2" d="M380.99,166.19c9.74-11.6,35.73-38.74,51.5-56.14h24.36l-44.31,45.7,49.42,71.92h-23.9l-39.44-58.69-17.63,16.94v41.76h-20.42V57.39h20.42v108.81Z"/>
  </g>
  <g>
    <path class="cls-3" d="M237.29,22.73c0-2.55-.22-2.6-1.35-2.79l-.41-.07c-.17-.17-.14-.58.05-.67.96.05,2.04.07,3.1.07s2.16-.02,3.22-.07c.19.1.22.5.05.67l-.53.07c-1.13.14-1.35.24-1.35,2.79v5.5c0,3.32,1.01,6.1,4.35,6.1,3.15,0,4.45-2.38,4.45-6.03v-3c0-1.8-.02-4.04-.46-4.73-.22-.36-.6-.53-1.2-.62l-.48-.07c-.22-.17-.19-.6.05-.67.82.05,1.73.07,2.67.07,1.01,0,1.66-.02,2.55-.07.19.12.24.5.05.67l-.53.12c-.46.1-.89.19-1.06.58-.34.72-.34,2.84-.34,4.73v2.86c0,2.19-.34,4.21-1.59,5.55s-3.05,1.8-4.71,1.8c-2.26,0-3.85-.48-4.95-1.54-1.08-1.03-1.59-2.72-1.59-5.14v-6.1Z"/>
    <path class="cls-3" d="M256.22,32.27c0,1.78.1,2.07.91,2.19l.36.05c.17.17.14.6-.05.7-.84-.05-1.66-.07-2.55-.07-.77,0-1.59.02-2.6.07-.19-.1-.22-.53-.05-.7l.53-.07c.82-.12.91-.38.91-2.16v-3.53c0-1.08,0-1.37-.6-1.73l-.29-.17c-.07-.1-.07-.43.02-.55,1.03-.29,2.35-.87,3.12-1.3.17,0,.26.1.31.19-.05.46-.05.91-.05,1.11,0,.17.07.22.22.24,1.13-.62,1.8-1.2,3.29-1.2,1.95,0,2.86,1.35,2.86,3.22v3.73c0,1.78.1,2.07.91,2.16l.55.07c.17.17.14.6-.05.7-1.01-.05-1.83-.07-2.72-.07-.79,0-1.61.02-2.45.07-.19-.1-.22-.53-.05-.7l.36-.05c.82-.12.91-.41.91-2.19v-3.32c0-1.23-.48-2.19-1.92-2.19-.75,0-1.35.38-1.59.75-.31.43-.34.65-.34,1.54v3.22Z"/>
    <path class="cls-3" d="M269.03,32.27c0,1.78.1,2.02.91,2.16l.43.07c.17.17.14.6-.05.7-.89-.05-1.71-.07-2.6-.07-.79,0-1.61.02-2.52.07-.19-.1-.22-.53-.05-.7l.43-.07c.82-.14.91-.38.91-2.16v-3.53c0-1.08,0-1.37-.6-1.73l-.29-.17c-.07-.1-.07-.43.02-.55,1.25-.36,2.45-.89,3.12-1.3.14.02.26.07.34.19-.05.79-.07,1.95-.07,2.93v4.16ZM266.29,21.67c0-.82.6-1.44,1.47-1.44s1.47.62,1.47,1.44-.6,1.44-1.47,1.44-1.47-.62-1.47-1.44Z"/>
    <path class="cls-3" d="M277.8,32.51c-.38.87-.84,1.99-1.13,2.81-.1.1-.24.14-.41.14s-.31-.05-.43-.14c-.24-.67-.62-1.61-.91-2.24l-2.31-5.21c-.48-1.03-.75-1.35-1.47-1.49l-.46-.1c-.17-.17-.14-.58.05-.7.84.05,1.68.07,2.52.07,1.08,0,1.8-.02,2.64-.07.24.1.26.53.05.7l-.43.07c-.34.05-.6.12-.6.26s.05.41.19.77c.34.89,1.56,3.87,1.92,4.59.58-1.2,1.15-2.67,1.78-4.18.24-.6.34-.91.34-1.08s-.22-.26-.5-.31l-.58-.12c-.19-.19-.17-.6.1-.7.72.05,1.32.07,2.02.07.62,0,1.23-.02,1.75-.07.22.1.24.53.05.7l-.48.1c-.72.14-1.06.31-1.8,1.95l-1.9,4.18Z"/>
    <path class="cls-3" d="M284.6,29.43c-.46,0-.5.02-.5.31,0,2.16,1.49,3.89,3.63,3.89.96,0,1.75-.31,2.31-1.2.24-.07.5.17.53.38-.82,1.92-2.59,2.64-4.06,2.64-2.79,0-4.64-2.07-4.64-4.81s1.85-5.33,5.07-5.33c1.78,0,3.61,1.15,3.61,3.24,0,.22-.02.36-.12.55-.14.22-.7.31-1.66.31h-4.16ZM286.81,28.47c.7,0,1.01-.07,1.18-.17.14-.1.24-.29.24-.5,0-.87-.55-1.56-1.59-1.56-1.61,0-2.36,1.56-2.36,2.07,0,.1.05.17.34.17h2.19Z"/>
    <path class="cls-3" d="M293.08,28.74c0-1.08,0-1.37-.6-1.73l-.29-.17c-.07-.1-.07-.43.02-.55,1.03-.34,2.31-.87,3.03-1.3.14,0,.29.07.34.22-.02.46-.05.87-.05,1.08,0,.17.1.29.24.29.75-.53,1.54-1.25,2.36-1.25s1.32.55,1.32,1.18c0,.94-.7,1.39-1.35,1.39-.24,0-.46-.07-.65-.19-.6-.41-1.01-.46-1.15-.46-.55,0-.7.55-.7,1.73v3.29c0,1.78.1,2.04.94,2.14l.94.1c.17.17.14.6-.05.7-1.44-.05-2.26-.07-3.15-.07-.79,0-1.59.02-2.5.07-.19-.1-.22-.53-.05-.7l.43-.07c.82-.14.91-.38.91-2.16v-3.53Z"/>
    <path class="cls-3" d="M300.5,34.7c-.24-.46-.38-1.68-.34-2.72.14-.19.5-.22.67-.05.43,1.35,1.32,2.62,2.6,2.62.75,0,1.35-.5,1.35-1.35,0-.89-.79-1.47-1.63-1.87-1.25-.6-2.55-1.49-2.55-3.03-.02-1.87,1.59-2.98,3.58-2.98.99,0,1.9.29,2.24.48.24.5.36,1.25.36,2.33-.07.19-.48.26-.65.12-.36-1.11-1.13-2.02-2.07-2.02-.77,0-1.35.55-1.35,1.25s.7,1.2,1.61,1.63c1.3.62,2.67,1.44,2.67,3.34,0,2.09-1.85,3-3.75,3-.99,0-1.97-.19-2.74-.77Z"/>
    <path class="cls-2" d="M324.29,29.24c-.62,0-.6,0-.82.65l-.96,2.88c-.48,1.42-.17,1.47.72,1.61l.7.12c.17.17.14.6-.05.7-.77-.05-1.68-.05-2.67-.07-.79,0-1.54.02-2.38.07-.17-.12-.19-.48-.02-.7l.72-.12c.7-.12.96-.31,1.32-1.11.29-.62.67-1.63,1.18-2.93l3.29-8.56c.29-.77.53-1.35.46-1.75.84-.17,1.63-1.15,1.68-1.15.19,0,.31.07.41.19.38,1.08.7,2.21,1.08,3.29l3.46,10.07c.55,1.61.67,1.75,1.9,1.99l.36.07c.19.17.19.58.02.7-.99-.05-1.88-.07-3.12-.07-1.03,0-2.09.05-2.93.07-.19-.12-.22-.55-.07-.7l.53-.07c.87-.12.99-.26.62-1.27l-1.13-3.27c-.22-.65-.31-.65-.99-.65h-3.32ZM327.29,28.16c.67,0,.77-.05.58-.62l-1.01-2.88c-.43-1.27-.58-1.83-.7-2h-.05c-.1.17-.34.87-.75,2l-1.08,2.81c-.24.7-.19.7.38.7h2.62Z"/>
    <path class="cls-2" d="M342.91,25.66c.31.29.48.67.48,1.23,0,.77-.41,1.13-.6,1.13-.17,0-.29-.05-.46-.26-.53-.7-1.25-1.47-2.19-1.47-1.37,0-2.79,1.35-2.79,3.6,0,1.95,1.25,3.8,3.44,3.8,1.56,0,2.11-.58,2.59-1.27.22-.02.48.14.5.43-.87,1.95-2.72,2.62-4.23,2.62-1.27,0-2.52-.5-3.34-1.3-.84-.82-1.39-2.07-1.39-3.46,0-2.81,2.04-5.38,5.91-5.38.7,0,1.39.1,2.07.34Z"/>
    <path class="cls-2" d="M354.49,31.6c0,1.35.02,2.55.6,2.55.34,0,.7-.07,1.03-.17.19.12.24.62-.07.82-1.06.12-2.91.43-3.94.91-.12-.02-.19-.12-.22-.24.05-.29.1-.65.07-.89-.02-.19-.1-.26-.24-.26-1.01.6-2.07,1.15-3.27,1.15-2.16,0-2.86-1.2-2.86-3.2v-3.75c0-1.68-.1-1.87-.7-2.04l-.34-.1c-.14-.12-.14-.55.05-.62,1.44-.02,2.81-.24,3.34-.43.12.02.22.1.24.22-.05.29-.07.87-.07,2.04v3.7c0,1.42.26,2.74,1.97,2.74.55,0,1.18-.22,1.59-.6.24-.24.29-.46.29-1.35v-3.63c0-1.54-.14-1.63-1.06-1.92l-.38-.12c-.17-.12-.17-.55.02-.65,1.61-.02,3.29-.19,3.77-.43.12.02.22.1.24.22-.05.46-.07,1.15-.07,2.04v4.01Z"/>
    <path class="cls-2" d="M358.41,28.74c0-1.08,0-1.37-.6-1.73l-.29-.17c-.07-.1-.07-.43.02-.55,1.06-.29,2.35-.87,3.12-1.3.17,0,.26.1.31.19-.05.46-.05.91-.05,1.11,0,.17.07.22.22.24,1.18-.62,1.8-1.2,3.44-1.2,1.03,0,1.83.55,2.16,1.01.14.22.29.36.38.36s.24-.07.53-.24c1.13-.7,1.95-1.13,3.08-1.13,2.02,0,2.93,1.35,2.93,3.22v3.73c0,1.78.1,2.04.91,2.16l.53.07c.22.17.1.6,0,.7-1.03-.05-1.85-.07-2.74-.07-.79,0-1.61.02-2.48.07-.19-.1-.22-.53-.05-.7l.38-.07c.82-.14.91-.38.91-2.16v-3.27c0-1.27-.43-2.23-1.95-2.23-.7,0-1.32.36-1.61.72-.24.29-.29.58-.29,1.25v3.53c0,1.78.1,2.07.91,2.19l.36.05c.17.17.14.6-.05.7-.84-.05-1.63-.07-2.52-.07-.79,0-1.61.02-2.4.07-.19-.1-.22-.53-.05-.7l.31-.05c.82-.12.91-.41.91-2.19v-3.27c0-1.27-.43-2.23-1.83-2.23-.82,0-1.44.38-1.71.75-.29.38-.31.6-.31,1.54v3.22c0,1.78.1,2.07.91,2.19l.36.05c.17.17.14.6-.05.7-.84-.05-1.66-.07-2.55-.07-.79,0-1.59.02-2.5.07-.19-.1-.22-.53-.05-.7l.43-.07c.82-.14.91-.38.91-2.16v-3.53Z"/>
    <path class="cls-2" d="M380.1,32.27c0,1.78.1,2.02.91,2.16l.43.07c.17.17.14.6-.05.7-.89-.05-1.71-.07-2.6-.07-.79,0-1.61.02-2.52.07-.19-.1-.22-.53-.05-.7l.43-.07c.82-.14.91-.38.91-2.16v-3.53c0-1.08,0-1.37-.6-1.73l-.29-.17c-.07-.1-.07-.43.02-.55,1.25-.36,2.45-.89,3.12-1.3.14.02.26.07.34.19-.05.79-.07,1.95-.07,2.93v4.16ZM377.36,21.67c0-.82.6-1.44,1.47-1.44s1.47.62,1.47,1.44-.6,1.44-1.47,1.44-1.47-.62-1.47-1.44Z"/>
    <path class="cls-2" d="M386.54,32.27c0,1.78.1,2.07.91,2.19l.36.05c.17.17.14.6-.05.7-.84-.05-1.66-.07-2.55-.07-.77,0-1.59.02-2.6.07-.19-.1-.22-.53-.05-.7l.53-.07c.82-.12.91-.38.91-2.16v-3.53c0-1.08,0-1.37-.6-1.73l-.29-.17c-.07-.1-.07-.43.02-.55,1.03-.29,2.35-.87,3.12-1.3.17,0,.26.1.31.19-.05.46-.05.91-.05,1.11,0,.17.07.22.22.24,1.13-.62,1.8-1.2,3.29-1.2,1.95,0,2.86,1.35,2.86,3.22v3.73c0,1.78.1,2.07.91,2.16l.55.07c.17.17.14.6-.05.7-1.01-.05-1.83-.07-2.72-.07-.79,0-1.61.02-2.45.07-.19-.1-.22-.53-.05-.7l.36-.05c.82-.12.91-.41.91-2.19v-3.32c0-1.23-.48-2.19-1.92-2.19-.75,0-1.35.38-1.59.75-.31.43-.34.65-.34,1.54v3.22Z"/>
  </g>
</svg>