<?xml version="1.0" encoding="UTF-8"?>
<svg id="Layer_1" data-name="Layer 1" xmlns="http://www.w3.org/2000/svg" viewBox="0 0 210 119.69">
  <defs>
    <style>
      .cls-1 {
        fill: none;
        stroke: #949598;
        stroke-miterlimit: 10;
        stroke-width: .5px;
      }

      .cls-2 {
        fill: #cc1a81;
      }

      .cls-3 {
        fill: #221f20;
      }

      .cls-4 {
        fill: #fff;
      }
    </style>
  </defs>
  <path class="cls-3" d="M-6.64,0v102.87c.51,1.17.45,2.39,0,3.48v13.35h216.64V0H-6.64Z"/>
  <path class="cls-4" d="M171.49,61.59c0,11.84-4.12,22.88-12.35,29.61l16.96,12.04-5.62,6.42-19.57-13.75c-3.61,1.31-7.63,2.01-12.14,2.01-20.58,0-32.02-15.86-32.02-35.93s11.64-35.93,32.82-35.93c19.67,0,31.92,14.75,31.92,35.53ZM116.48,61.69c0,15.06,7.63,28.3,22.68,28.3,16.16,0,22.68-13.35,22.68-28.2s-7.33-27.8-22.68-27.8-22.68,12.85-22.68,27.7Z"/>
  <path class="cls-4" d="M74.58,96.8c-8.3,0-16.4,1.2-24.7,1.2-21.7,0-31.4-17.8-31.4-37.3,0-20.7,10.4-37.6,32.9-37.6s32.4,15.6,32.4,36.1c0,12.5-3.8,24-14.3,31.5,5.6-.8,11.3-1,17.1-1v7.2c-4.1,0-8-.1-12-.1ZM51.08,30.59c-16.9,0-22.7,15.4-22.7,29.9s5.6,30.1,22.7,30.1,22.8-15.5,22.8-30.1-5.4-29.9-22.8-29.9Z"/>
  <path class="cls-1" d="M103.17,25.82c26.18,0,52.35.02,78.53.24"/>
  <path class="cls-1" d="M11.34,22.83c26.37.19,52.73.27,79.1.26"/>
  <path class="cls-2" d="M138.76,97.92c4.52,0,8.53-.7,12.14-2.01l19.57,13.75,5.62-6.42-16.96-12.04c1.4-1.14,2.67-2.42,3.84-3.8-2.07-2.07-4.15-4.14-6.23-6.21-3.64,5.35-9.36,8.8-17.58,8.8"/>
  <path class="cls-1" d="M103.17,96.82c26.18,0,52.35.02,78.53.19"/>
  <path class="cls-2" d="M80.47,77.01h-9.54c-3.24,7.81-9.42,13.59-19.86,13.59l-1.2,7.4c8.3,0,16.4-1.2,24.7-1.2,4,0,7.9.1,12,.1v-7.2c-5.8,0-11.5.2-17.1,1,5.19-3.7,8.73-8.39,10.99-13.69Z"/>
  <path class="cls-1" d="M11.49,96.81c26.32.15,52.63.22,78.95.21"/>
</svg>