<?xml version="1.0" encoding="UTF-8"?>
<svg id="Layer_1" data-name="Layer 1" xmlns="http://www.w3.org/2000/svg" viewBox="0 0 629.28 262.8">
  <defs>
    <style>
      .cls-1 {
        fill: #231f20;
      }

      .cls-2 {
        fill: #ed1b83;
      }

      .cls-3 {
        fill: #fff;
      }

      .cls-4 {
        fill: none;
        stroke: #939598;
        stroke-miterlimit: 10;
        stroke-width: .5px;
      }
    </style>
  </defs>
  <rect class="cls-1" width="629.28" height="262.8"/>
  <g>
    <path class="cls-3" d="M490.82,129.98c0,27.83-9.67,53.78-29.01,69.58l39.86,28.3-13.21,15.1-46-32.31c-8.49,3.07-17.93,4.72-28.54,4.72-48.35,0-75.24-37.27-75.24-84.44s27.36-84.44,77.13-84.44c46.23,0,75.01,34.67,75.01,83.5ZM361.56,130.21c0,35.38,17.93,66.51,53.31,66.51,37.97,0,53.31-31.37,53.31-66.28s-17.22-65.34-53.31-65.34-53.31,30.19-53.31,65.1Z"/>
    <path class="cls-3" d="M263.09,212.72c-19.51,0-38.54,2.82-58.05,2.82-51,0-73.8-41.83-73.8-87.66,0-48.65,24.44-88.37,77.32-88.37s76.15,36.66,76.15,84.84c0,29.38-8.93,56.4-33.61,74.03,13.16-1.88,26.56-2.35,40.19-2.35v16.92c-9.64,0-18.8-.24-28.2-.24ZM207.86,57.14c-39.72,0-53.35,36.19-53.35,70.27s13.16,70.74,53.35,70.74,53.58-36.43,53.58-70.74-12.69-70.27-53.58-70.27Z"/>
    <path class="cls-4" d="M330.27,45.91c61.52-.01,123.04.05,184.55.57"/>
    <path class="cls-4" d="M114.46,38.9c61.96.44,123.93.64,185.89.62"/>
    <path class="cls-2" d="M413.92,215.36c10.61,0,20.05-1.65,28.54-4.72l46,32.32,13.21-15.1-39.86-28.31c3.29-2.69,6.28-5.69,9.01-8.93-4.87-4.88-9.76-9.73-14.63-14.59-8.56,12.57-22.01,20.69-41.32,20.69"/>
    <path class="cls-4" d="M330.27,212.78c61.52,0,123.04.05,184.55.45"/>
    <path class="cls-2" d="M276.92,166.22h-22.41c-7.61,18.36-22.15,31.93-46.67,31.93l-2.82,17.39c19.51,0,38.55-2.82,58.05-2.82,9.4,0,18.57.24,28.2.24v-16.92c-13.63,0-27.03.47-40.19,2.35,12.19-8.71,20.51-19.72,25.83-32.16Z"/>
    <path class="cls-4" d="M114.81,212.75c61.85.35,123.69.52,185.54.5"/>
  </g>
</svg>