<?xml version="1.0" encoding="UTF-8"?>
<svg id="Layer_1" data-name="Layer 1" xmlns="http://www.w3.org/2000/svg" viewBox="0 0 175 119.69">
  <defs>
    <style>
      .cls-1 {
        fill: none;
        stroke: #949598;
        stroke-miterlimit: 10;
        stroke-width: .5px;
      }

      .cls-2 {
        fill: #cc1a81;
      }

      .cls-3 {
        fill: #221f20;
      }

      .cls-4 {
        fill: #fff;
      }
    </style>
  </defs>
  <rect class="cls-3" x="0" y="0" width="174.99" height="119.69"/>
  <path class="cls-4" d="M57.92,94.23c-2.3-5.7-2.4-11.8-2.9-17.8-1-10.6-1.6-15.7-13.7-15.7h-15.4v33.5h-9.4V21.93h25.8c11.8,0,24.3,3.6,24.3,17.8,0,9.6-5.7,14.7-14.4,17.1,9.2,2,11.5,7.2,12.3,15,.5,4.8.6,9.9,1.6,15.4.5,2.7,1.1,5.1,2.4,7h-10.6ZM40.22,29.13h-14.3v24.5h11.7c9.1,0,19.4-1.4,19.4-12.8,0-10.1-8.5-11.7-16.8-11.7Z"/>
  <path class="cls-4" d="M115,63.63v30.6h-9.1V24.63h27.2c14.3,0,21.9,7.8,21.9,18.6,0,9.1-5.2,14.6-11.9,16.4,5.7,1.5,10.6,5.8,10.6,17.8v3c0,4.8-.2,10.9,1,13.8h-9c-1.3-3-1.2-8.4-1.2-15v-1.4c0-9.9-2.8-14.2-15.3-14.2h-14.2ZM115,55.83h15.1c10.7,0,15.3-4,15.3-11.8,0-7.4-4.8-11.6-14.2-11.6h-16.2v23.4Z"/>
  <path class="cls-2" d="M41.35,60.73c12.1,0,12.7,5.1,13.7,15.7.5,6,.6,12.1,2.9,17.8h10.6c-1.3-1.9-1.9-4.3-2.4-7-1-5.5-1.1-10.6-1.6-15.4-.8-7.8-3.1-13-12.3-15"/>
  <path class="cls-2" d="M129.21,63.63c12.5,0,15.3,4.3,15.3,14.2v1.4c0,6.6-.1,12,1.2,15h9c-1.2-2.9-1-9-1-13.8v-3c0-12-4.9-16.3-10.6-17.8"/>
  <path class="cls-1" d="M91.58,94.13c26.61-.16,53.21-.21,79.82-.11"/>
  <path class="cls-1" d="M3.6,94.23c25.86-.21,51.73-.29,77.59-.25"/>
  <path class="cls-1" d="M91.59,24.65c26.61-.11,53.21-.14,79.82-.13"/>
  <path class="cls-1" d="M3.6,21.93c25.86-.02,51.73-.03,77.59.01"/>
</svg>