<?xml version="1.0" encoding="UTF-8"?>
<svg id="Layer_1" data-name="Layer 1" xmlns="http://www.w3.org/2000/svg" viewBox="0 0 175 119.69">
  <defs>
    <style>
      .cls-1 {
        fill: #6cb677;
      }

      .cls-2 {
        fill: #cc1a81;
      }

      .cls-3 {
        fill: #221f20;
      }
    </style>
  </defs>
  <rect class="cls-3" x="0" y="0" width="174.99" height="119.69"/>
  <path class="cls-1" d="M44.78,98.73h-8.8l8.3-19.1L22.78,29.23h10l15.9,41.3,15.8-41.3h8.9l-28.6,69.5Z"/>
  <path class="cls-2" d="M113.1,29.03c8.2,24.3,12.7,37.7,14.1,42.9h.1c1.6-5.8,5.2-17.4,13.5-42.9h8.8l-18.2,53c-5.1,14.9-9,18.6-19.3,18.6-1.6,0-3.5-.1-5.5-.3v-7.6c1.3.1,2.8.2,4.2.2,6.4,0,8.8-2.8,11.8-11.2l-19-52.7h9.5Z"/>
</svg>