<?xml version="1.0" encoding="UTF-8"?>
<svg id="Layer_1" data-name="Layer 1" xmlns="http://www.w3.org/2000/svg" viewBox="0 0 629.28 262.8">
  <defs>
    <style>
      .cls-1 {
        fill: #231f20;
      }

      .cls-2 {
        fill: #ed1b83;
      }

      .cls-3 {
        fill: #fff;
      }

      .cls-4 {
        fill: none;
        stroke: #939598;
        stroke-miterlimit: 10;
        stroke-width: .5px;
      }
    </style>
  </defs>
  <rect class="cls-1" width="629.28" height="262.8"/>
  <g>
    <path class="cls-3" d="M276.49,212.53l-17.82-45.38h-83.17l-17.58,45.38h-22.57L205.21,40.73h24.48l72.47,171.8h-25.66ZM216.14,59.98l-34.45,90.3h70.1l-35.64-90.3Z"/>
    <polygon class="cls-3" points="258.67 167.14 251.78 150.27 181.68 150.27 175.5 167.14 258.67 167.14"/>
    <path class="cls-3" d="M376.06,162.89l-17.82,49.66h-21.86l58.93-165.38h26.85l61.54,165.38h-23.52l-18.3-49.66h-65.82ZM436.42,144.12c-15.92-43.48-24.47-66.53-28.04-79.12h-.24c-4.04,14.02-13.78,42.06-26.38,79.12h54.65Z"/>
    <path class="cls-4" d="M340.97,212.7c58.24.54,101.74.77,159.98.69"/>
    <path class="cls-4" d="M128.33,212.76c61.6.51,123.21.71,184.81.6"/>
    <path class="cls-4" d="M128.45,40.68c61.27-.32,122.55-.44,183.82-.36"/>
    <path class="cls-4" d="M339.42,47.16c58.74.07,102.73.12,161.47.11"/>
    <polygon class="cls-2" points="441.98 162.93 436.42 144.12 381.77 144.12 376.07 162.89 441.98 162.93"/>
    <polygon class="cls-2" points="258.67 167.14 251.78 150.27 181.68 150.27 175.5 167.14 258.67 167.14"/>
  </g>
</svg>