<?xml version="1.0" encoding="UTF-8"?>
<svg xmlns="http://www.w3.org/2000/svg" viewBox="0 0 629.17 262.53">
  <defs>
    <style>
      .cls-1 {
        stroke: #d1d3d4;
        stroke-width: .5px;
      }

      .cls-1, .cls-2 {
        fill: none;
        stroke-miterlimit: 10;
      }

      .cls-3 {
        fill: #bb337f;
      }

      .cls-4 {
        fill: #fff;
      }

      .cls-5 {
        fill: #202020;
      }

      .cls-2 {
        stroke: #bb337f;
        stroke-dasharray: 2 5;
        stroke-linecap: round;
      }
    </style>
  </defs>
  <rect class="cls-5" width="629.17" height="262.53"/>
  <g id="Layer_1" data-name="Layer 1">
    <path class="cls-4" d="M364.47,219.25v-1.37c0-23.78,15.64-48.39,49.54-74.07,26.38-20.13,33.54-26.52,33.54-44.7,0-16.5-8.76-28.99-28.53-28.99s-29.29,10.4-32.75,30.5h-21.51c2.9-27.85,20.68-48.88,54.26-48.88,36.88,0,51.22,23.72,51.22,46.79,0,24.88-10.57,34.62-40.98,58.11-22.66,17.54-34.75,30.72-38.87,43.27h86.33l-3.14,19.33h-109.12Z"/>
    <path class="cls-4" d="M155.76,219.25v-21.75c23.5-21,72-64.5,85-92,3-6.75,4.75-13.25,4.75-20.75,0-19.5-12.75-31.75-31-31.75-19.75,0-33,13.75-33,34.75h-23.75c.5-35,26.25-53,57.5-53,28.5,0,54.25,15.25,54.25,48,0,21-15,44-33.25,64.75-9.25,10.5-19,20.5-28.5,29.5-9.25,8.75-25.5,24-25.5,24h89.25v18.25h-115.75Z"/>
    <line class="cls-1" x1="85.31" y1="219.25" x2="537.21" y2="219.25"/>
    <line class="cls-1" x1="85.31" y1="34.75" x2="537.21" y2="34.75"/>
    <line class="cls-1" x1="85.03" y1="51.75" x2="536.94" y2="51.75"/>
    <path class="cls-3" d="M271.51,201.01v17.99h-11.66s0-17.99,0-17.99c0,0,11.73,0,11.66,0Z"/>
    <path class="cls-3" d="M477.2,199.9l-3.5,19.05h-9.65v-19.05s16.41,0,13.15,0Z"/>
    <line class="cls-2" x1="149.8" y1="199.28" x2="149.75" y2="218.34"/>
    <path class="cls-2" d="M472.19,127s-8.57,16.79-24.51,28.31c-15.95,11.52-35.44,23.7-42.53,38.77"/>
    <path class="cls-2" d="M265.68,121.64s-17.56,33.82-65.11,72.44"/>
    <path class="cls-2" d="M364.47,193.42c0,.35-6.52,12.63-4.85,22.04"/>
  </g>
</svg>