<?xml version="1.0" encoding="UTF-8"?>
<svg xmlns="http://www.w3.org/2000/svg" viewBox="0 0 629.16 261.01">
  <defs>
    <style>
      .cls-1 {
        fill: #cc1b81;
      }

      .cls-2 {
        fill: #231f20;
      }

      .cls-3 {
        opacity: .1;
      }

      .cls-3, .cls-4, .cls-5 {
        fill: #fff;
      }

      .cls-6 {
        stroke: #d1d3d4;
        stroke-width: .5px;
      }

      .cls-6, .cls-7 {
        fill: none;
        stroke-miterlimit: 10;
      }

      .cls-7 {
        stroke: #cc1b81;
        stroke-dasharray: 2 5;
        stroke-linecap: round;
      }

      .cls-5 {
        font-family: AcuminConcept-Regular, 'Acumin Variable Concept';
        font-size: 250px;
        font-variation-settings: 'wght' 400, 'wdth' 100, 'slnt' 0;
      }
    </style>
  </defs>
  <rect class="cls-2" width="629.16" height="261.01"/>
  <g id="Layer_1" data-name="Layer 1">
    <line class="cls-6" x1="27.61" y1="217.73" x2="574.83" y2="217.73"/>
    <line class="cls-6" x1="27.61" y1="33.98" x2="574.83" y2="33.98"/>
    <line class="cls-6" x1="27.61" y1="41.29" x2="574.83" y2="41.29"/>
    <text class="cls-5" transform="translate(459.49 -60.5)"><tspan x="0" y="0">,</tspan></text>
    <g>
      <path class="cls-3" d="M154.49,217.73c-1-5.25-2-12.5-2.25-17.75-10.5,15.25-24.5,20.5-42.75,20.5-23.5,0-44.25-11.75-44.25-37.5,0-37.75,41.5-42.25,72.25-42.25,4.5,0,9,.25,12.5.5v-7.5c0-19.5-7-30.5-27.75-30.5-15.5,0-24.75,5.75-26.25,22.25h-21.5c1.25-27.5,23.5-36.5,47.25-36.5,32.25,0,48,12.25,48,45.25v46.5c0,16.5,2.25,31.25,4,37h-19.25ZM138.74,153.98c-19.5,0-51.5,2.25-51.5,28,0,15.5,13.25,23.75,27.75,23.75,31.75,0,35-25.75,35-51.25-5.25-.5-7.75-.5-11.25-.5Z"/>
      <path class="cls-4" d="M228.49,136.23c-8.75,8-10.25,11.25-10.25,19v18h-19.25v-18c0-17.5,3.5-21.5,20.25-36.75,12.5-11.25,24.25-20.5,24.25-37.75,0-21.75-18-29.5-37.25-29.5-8.75,0-17.25,1.5-26,4v-18.25c9.75-1.75,19.25-3,28.75-3,30,0,58,11.25,58,45.75,0,22.5-17,37-38.5,56.5ZM195.99,217.73v-25.25h25.25v25.25h-25.25Z"/>
    </g>
    <g>
      <path class="cls-3" d="M426.73,190.09c0,11.53,1,24,1.75,27.65h-20.94c-1-2.82-1.75-8.85-2.07-16.59-4.43,8.45-14.54,19.59-39.14,19.59-29.89,0-42.65-19.46-42.65-38.74,0-28.3,22.22-41.24,59.9-41.24h21.62v-10.8c0-11.17-3.57-24.82-27.29-24.82-21.18,0-24.75,10.51-27.06,20.4h-21.18c1.68-17.47,12.48-37.66,48.93-37.57,30.98.09,48.13,12.71,48.13,41.54v60.59ZM405.37,155.93h-20.52c-25.27,0-38.8,6.98-38.8,24.85,0,13.18,9.04,22.78,24.68,22.78,30.53,0,34.64-20.56,34.64-43.58v-4.06Z"/>
      <path class="cls-4" d="M466.03,165.24v-3.78c0-13.3,4.02-25.71,23.72-43.26,14.34-12.86,16.79-22.6,16.79-32.88,0-12.07-7.58-25.91-26.64-25.91s-27.17,11.51-29.79,28.65h-21.62c.93-15.31,11.21-46.86,51.83-46.77,36.51.09,48.67,25.39,48.67,44.4,0,17.51-5.65,28.91-23.97,45.5-12.51,11.36-16.5,20.01-16.5,31.95v2.1h-22.5ZM466.03,217.73v-34.44h22.5v34.44h-22.5Z"/>
    </g>
    <g>
      <line class="cls-7" x1="430.91" y1="92.12" x2="446.89" y2="91.85"/>
      <g>
        <path class="cls-4" d="M466.09,165.24v-3.78c0-13.3,4.02-25.71,23.72-43.26,14.34-12.86,16.79-22.6,16.79-32.88,0-12.07-7.58-25.91-26.64-25.91s-27.17,11.51-29.79,28.65h-21.62c.93-15.31,11.21-46.86,51.83-46.77,36.51.09,48.67,25.39,48.67,44.4,0,17.51-5.65,28.91-23.97,45.5-12.51,11.36-16.5,20.01-16.5,31.95v2.1h-22.5Z"/>
        <rect class="cls-1" x="466.09" y="183.29" width="22.5" height="34.44"/>
      </g>
      <path class="cls-7" d="M456.48,86.01c.19-2.17.98-8.07,5.61-13.29.6-.68,3.71-4.11,9.16-6.2,1.77-.68,10.46-4.02,18.31,0,8.94,4.58,11.92,15.53,10.93,23.33-.54,4.26-2.21,7.19-3.9,10.17-4.19,7.36-8.82,9.41-17.78,18.55-3.3,3.37-5.8,6.28-7.32,8.11"/>
      <path class="cls-7" d="M495.17,161.77c.02-2.97.41-7.36,2.33-12.11,4.13-10.2,12.09-14,19.38-20.9,5.28-5,11.78-13.12,16.39-26.58"/>
    </g>
    <g>
      <path class="cls-4" d="M228.41,136.23c-8.75,8-10.25,11.25-10.25,19v18h-19.25v-18c0-17.5,3.5-21.5,20.25-36.75,12.5-11.25,24.25-20.5,24.25-37.75,0-21.75-18-29.5-37.25-29.5-8.75,0-17.25,1.5-26,4v-18.25c9.75-1.75,19.25-3,28.75-3,30,0,58,11.25,58,45.75,0,22.5-17,37-38.5,56.5Z"/>
      <rect class="cls-1" x="195.91" y="192.48" width="25.25" height="25.25"/>
      <line class="cls-7" x1="174.81" y1="38.36" x2="174.8" y2="54.35"/>
      <path class="cls-7" d="M187.06,60.02c11.07-3.25,20.08-2.9,25.55-2.22,6.58.82,11.8,1.47,16.39,5.61,7.57,6.82,7.19,17.47,7.02,19.94-.58,8.37-5.07,14.11-7.91,17.72-3.44,4.39-7.13,7.26-9.75,9.01"/>
      <path class="cls-7" d="M226.05,169.74c-.03-.61-.07-1.5-.07-2.58,0-.9,0-12.43,3.69-20.38,2.59-5.58,5.62-6.43,13.59-13.59,4.42-3.97,10.66-10.16,17.28-19.05"/>
    </g>
  </g>
</svg>