<?xml version="1.0" encoding="UTF-8"?>
<svg id="Layer_1" data-name="Layer 1" xmlns="http://www.w3.org/2000/svg" viewBox="0 0 85.51 119.69">
  <defs>
    <style>
      .cls-1 {
        fill: #6cb677;
      }

      .cls-2 {
        fill: #cc1a81;
      }

      .cls-3 {
        fill: #221f20;
      }

      .cls-4 {
        opacity: .7;
      }
    </style>
  </defs>
  <rect class="cls-3" width="85.51" height="119.69"/>
  <g class="cls-4">
    <path class="cls-1" d="M45.32,91.27c-7.2,0-11.7-2.9-15.8-8.6l-.5,7.7h-8.6c.3-4.9.3-9.8.3-14.7V18.07h8.8v30.3c3.9-6.4,9.5-9.5,17-9.5,14.9,0,21.3,12.2,21.3,25.5s-7.2,26.9-22.5,26.9ZM44.62,45.07c-11.2,0-15.2,10.4-15.2,20.1,0,9.1,3.2,19.7,14.1,19.7s15.1-10.1,15.1-19.9c0-9-3.2-19.9-14-19.9Z"/>
  </g>
  <g class="cls-4">
    <path class="cls-2" d="M21.37,16.97h8.8v29.9c2.2-4.3,6.9-8.4,16.1-8.4,12.8,0,20.8,10.5,20.8,25.5s-7.8,27.6-22.1,27.6c-8.1,0-12.4-3-14.9-7.9,0,2.6-.2,5.3-.4,6.7h-8.4c.1-5.7.1-11.4.1-17V16.97ZM44.27,45.87c-10.8,0-14.6,7.2-14.6,19.3,0,10.6,3.4,19,14.1,19,9,0,14.3-7.7,14.3-20,0-11-5-18.3-13.8-18.3Z"/>
  </g>
</svg>