<?xml version="1.0" encoding="UTF-8"?>
<svg id="Layer_1" data-name="Layer 1" xmlns="http://www.w3.org/2000/svg" viewBox="0 0 629.28 262.8">
  <defs>
    <style>
      .cls-1 {
        fill: #231f20;
      }

      .cls-2 {
        fill: #ed1b83;
      }

      .cls-3 {
        opacity: .7;
      }

      .cls-4 {
        fill: #2bb673;
      }
    </style>
  </defs>
  <rect class="cls-1" width="629.28" height="262.8"/>
  <g>
    <g class="cls-3">
      <path class="cls-4" d="M321.4,203.84c-16.78,0-27.27-6.76-36.82-20.04l-1.17,17.95h-20.04c.7-11.42.7-22.84.7-34.26V33.24h20.51v70.62c9.09-14.92,22.14-22.14,39.62-22.14,34.73,0,49.64,28.43,49.64,59.43s-16.78,62.69-52.44,62.69ZM319.77,96.16c-26.1,0-35.43,24.24-35.43,46.85,0,21.21,7.46,45.91,32.86,45.91s35.19-23.54,35.19-46.38c0-20.98-7.46-46.38-32.63-46.38Z"/>
    </g>
    <g class="cls-3">
      <path class="cls-2" d="M265.58,30.67h20.51v69.69c5.13-10.02,16.08-19.58,37.52-19.58,29.83,0,48.48,24.47,48.48,59.43s-18.18,64.33-51.51,64.33c-18.88,0-28.9-6.99-34.73-18.41,0,6.06-.47,12.35-.93,15.62h-19.58c.23-13.28.23-26.57.23-39.62V30.67ZM318.95,98.03c-25.17,0-34.03,16.78-34.03,44.98,0,24.7,7.92,44.28,32.86,44.28,20.98,0,33.33-17.95,33.33-46.61,0-25.64-11.65-42.65-32.16-42.65Z"/>
    </g>
  </g>
</svg>