<?xml version="1.0" encoding="UTF-8"?>
<svg id="Layer_1" data-name="Layer 1" xmlns="http://www.w3.org/2000/svg" viewBox="0 0 629.28 262.8">
  <defs>
    <style>
      .cls-1 {
        fill: #231f20;
      }

      .cls-2 {
        fill: #ed1b83;
      }

      .cls-3 {
        opacity: .7;
      }

      .cls-4 {
        fill: #2bb673;
      }
    </style>
  </defs>
  <rect class="cls-1" width="629.28" height="262.8"/>
  <g>
    <g class="cls-3">
      <path class="cls-4" d="M366.17,124.15v43.8c0,45.44-2.11,80.57-55.74,80.57-23.89,0-48.95-7.26-48.95-36.07h20.14c0,16.86,14.05,22.02,28.57,22.02,24.83,0,33.02-13.82,34.9-35.6.47-6.32.47-12.88.47-19.44-9.13,14.05-22.25,20.84-39.11,20.84-35.37,0-51.99-26.93-51.99-59.49s17.33-59.72,51.76-59.72c17.57,0,31.15,7.03,40.05,22.25v-20.14h20.84c-.94,13.58-.94,27.4-.94,40.99ZM311.36,95.34c-26,0-34.9,23.89-34.9,46.14s9.37,44.97,34.66,44.97,34.66-24.36,34.66-46.84c0-20.84-10.54-44.26-34.43-44.26Z"/>
    </g>
    <g class="cls-3">
      <path class="cls-2" d="M363.71,190.67c0,38.18-15.69,59.72-54.57,59.72-36.07,0-47.08-20.14-49.18-36.3h20.84c3.51,13.12,14.05,19.91,29.28,19.91,26.93,0,33.49-17.1,33.49-44.26v-9.6c-6.32,13.12-17.1,20.84-37,20.84-29.28,0-49.18-23.89-49.18-58.79,0-38.64,22.72-62.3,51.29-62.3,22.72,0,32.32,10.54,34.9,18.5.23-5.39.94-13.35,1.17-15.69h19.21c0,6.79-.23,22.95-.23,34.19v73.78ZM311.25,183.4c25.53,0,33.02-17.33,33.02-43.56s-7.03-42.63-32.32-42.63c-22.02,0-33.26,18.5-33.26,44.03s13.12,42.16,32.55,42.16Z"/>
    </g>
  </g>
</svg>