<?xml version="1.0" encoding="UTF-8"?>
<svg id="Layer_1" data-name="Layer 1" xmlns="http://www.w3.org/2000/svg" viewBox="0 0 629.28 262.8">
  <defs>
    <style>
      .cls-1 {
        fill: #231f20;
      }

      .cls-2 {
        fill: #ed1b83;
      }

      .cls-3 {
        opacity: .7;
      }

      .cls-4 {
        fill: #2bb673;
      }
    </style>
  </defs>
  <rect class="cls-1" width="629.28" height="262.8"/>
  <g>
    <g class="cls-3">
      <path class="cls-4" d="M344.31,101.22c-24.39,0-32.36,13.84-32.36,36.35v63.79h-20.64v-83.72c0-11.49-.24-23.22-.7-34.71h20.17l.94,19c8.44-13.84,19.93-19.7,36.11-19.7,2.11,0,4.69.23,6.57.47v19.46c-3.05-.47-6.8-.94-10.08-.94Z"/>
    </g>
    <g class="cls-3">
      <path class="cls-2" d="M290.95,114.82c0-16.65-.24-26.03-.24-32.36h20.17c.24,3.28.7,12.66.7,24.15,6.1-15.95,20.17-26.5,39.87-26.97v20.4c-24.39.7-39.87,13.6-39.87,43.62v57.69h-20.64v-86.54Z"/>
    </g>
  </g>
</svg>