<?xml version="1.0" encoding="UTF-8"?>
<svg id="Layer_1" data-name="Layer 1" xmlns="http://www.w3.org/2000/svg" viewBox="0 0 629.28 262.8">
  <defs>
    <style>
      .cls-1 {
        fill: #231f20;
      }

      .cls-2 {
        fill: #ed1b83;
      }

      .cls-3 {
        fill: #fff;
      }

      .cls-4 {
        fill: none;
        stroke: #939598;
        stroke-miterlimit: 10;
        stroke-width: .5px;
      }
    </style>
  </defs>
  <rect class="cls-1" width="629.28" height="262.8"/>
  <g>
    <path class="cls-3" d="M245.31,213.41c-5.39-13.36-5.62-27.65-6.8-41.71-2.34-24.84-3.75-36.79-32.1-36.79h-36.09v78.5h-22.03V43.99h60.46c27.65,0,56.94,8.44,56.94,41.71,0,22.5-13.36,34.45-33.74,40.07,21.56,4.69,26.95,16.87,28.82,35.15,1.17,11.25,1.41,23.2,3.75,36.09,1.17,6.33,2.58,11.95,5.62,16.4h-24.84ZM203.84,60.86h-33.51v57.41h27.42c21.32,0,45.46-3.28,45.46-29.99,0-23.67-19.92-27.42-39.37-27.42Z"/>
    <path class="cls-3" d="M379.07,141.7v71.7h-21.32V50.32h63.74c33.51,0,51.32,18.28,51.32,43.59,0,21.32-12.19,34.21-27.89,38.43,13.36,3.52,24.84,13.59,24.84,41.71v7.03c0,11.25-.47,25.54,2.34,32.34h-21.09c-3.05-7.03-2.81-19.68-2.81-35.15v-3.28c0-23.2-6.56-33.27-35.85-33.27h-33.28ZM379.07,123.43h35.38c25.07,0,35.85-9.37,35.85-27.65s-11.25-27.18-33.27-27.18h-37.96v54.83Z"/>
    <path class="cls-3" d="M245.31,213.41c-5.39-13.36-5.62-27.65-6.8-41.71-2.34-24.84-3.75-36.79-32.1-36.79h-36.09v78.5h-22.03V43.99h60.46c27.65,0,56.94,8.44,56.94,41.71,0,22.5-13.36,34.45-33.74,40.07,21.56,4.69,26.95,16.87,28.82,35.15,1.17,11.25,1.41,23.2,3.75,36.09,1.17,6.33,2.58,11.95,5.62,16.4h-24.84ZM203.84,60.86h-33.51v57.41h27.42c21.32,0,45.46-3.28,45.46-29.99,0-23.67-19.92-27.42-39.37-27.42Z"/>
    <path class="cls-3" d="M379.07,141.7v71.7h-21.32V50.32h63.74c33.51,0,51.32,18.28,51.32,43.59,0,21.32-12.19,34.21-27.89,38.43,13.36,3.52,24.84,13.59,24.84,41.71v7.03c0,11.25-.47,25.54,2.34,32.34h-21.09c-3.05-7.03-2.81-19.68-2.81-35.15v-3.28c0-23.2-6.56-33.27-35.85-33.27h-33.28ZM379.07,123.43h35.38c25.07,0,35.85-9.37,35.85-27.65s-11.25-27.18-33.27-27.18h-37.96v54.83Z"/>
    <path class="cls-2" d="M206.5,134.91c28.35,0,29.76,11.95,32.1,36.79,1.17,14.06,1.41,28.36,6.8,41.71h24.84c-3.05-4.45-4.45-10.08-5.62-16.4-2.34-12.89-2.58-24.84-3.75-36.09-1.88-18.28-7.27-30.46-28.82-35.15"/>
    <path class="cls-2" d="M412.36,141.7c29.29,0,35.85,10.08,35.85,33.28v3.28c0,15.47-.23,28.12,2.81,35.15h21.09c-2.81-6.8-2.34-21.09-2.34-32.34v-7.03c0-28.12-11.48-38.2-24.84-41.71"/>
    <path class="cls-4" d="M324.2,213.17c62.34-.38,124.69-.49,187.04-.25"/>
    <path class="cls-4" d="M118.03,213.41c60.6-.49,121.21-.67,181.81-.59"/>
    <path class="cls-4" d="M324.22,50.37c62.34-.26,124.68-.33,187.03-.31"/>
    <path class="cls-4" d="M118.03,44c60.6-.04,121.2-.06,181.81.03"/>
  </g>
</svg>