<?xml version="1.0" encoding="UTF-8"?>
<svg id="Layer_1" data-name="Layer 1" xmlns="http://www.w3.org/2000/svg" viewBox="0 0 175 119.69">
  <defs>
    <style>
      .cls-1 {
        fill: #6cb677;
      }

      .cls-2 {
        fill: #cc1a81;
      }

      .cls-3 {
        fill: #221f20;
      }
    </style>
  </defs>
  <rect class="cls-3" x="0" width="174.99" height="119.69"/>
  <path class="cls-1" d="M56.36,94.66c-8.1,0-12.3-3.3-12.3-11.7v-33.2h-9.9v-6.1h9.9v-9.8l8.8-3.7v13.5h11.3v6.1h-11.3v29.7c0,6.1.8,8.4,6.9,8.4,1.6,0,3-.2,4.7-.5v6.7c-2.8.4-5.4.6-8.1.6Z"/>
  <path class="cls-2" d="M114.78,43.45h8.8v-15h8.7v15h11.2v7.1h-11.2v29.7c0,5,1.2,7.5,5.8,7.5,1.2,0,3-.1,4.4-.4v6.6c-2.1.8-5.1.9-7.6.9-7.9,0-11.3-4.1-11.3-12.5v-31.8h-8.8v-7.1Z"/>
</svg>