<?xml version="1.0" encoding="UTF-8"?>
<svg id="Layer_1" data-name="Layer 1" xmlns="http://www.w3.org/2000/svg" viewBox="0 0 629.28 262.8">
  <defs>
    <style>
      .cls-1 {
        fill: #231f20;
      }

      .cls-2 {
        fill: #ed1b83;
      }

      .cls-3 {
        fill: #2bb673;
      }
    </style>
  </defs>
  <rect class="cls-1" y="0" width="629.28" height="262.8"/>
  <g>
    <path class="cls-3" d="M247.13,202.1c-18.79,0-28.54-7.66-28.54-27.14v-77.02h-22.97v-14.15h22.97v-22.74l20.42-8.58v31.32h26.22v14.15h-26.22v68.9c0,14.15,1.86,19.49,16.01,19.49,3.71,0,6.96-.46,10.9-1.16v15.54c-6.5.93-12.53,1.39-18.79,1.39Z"/>
    <path class="cls-2" d="M365.45,83.32h20.42v-34.8h20.18v34.8h25.98v16.47h-25.98v68.9c0,11.6,2.79,17.4,13.46,17.4,2.78,0,6.96-.23,10.21-.93v15.31c-4.87,1.86-11.83,2.09-17.63,2.09-18.33,0-26.22-9.51-26.22-29v-73.77h-20.42v-16.47Z"/>
  </g>
</svg>