<?xml version="1.0" encoding="UTF-8"?>
<svg xmlns="http://www.w3.org/2000/svg" viewBox="0 0 922.07 264.05">
  <defs>
    <style>
      .cls-1 {
        fill: #231f20;
      }

      .cls-2 {
        fill: #fff;
      }

      .cls-3 {
        fill: none;
        stroke: #939598;
        stroke-miterlimit: 10;
        stroke-width: .5px;
      }
    </style>
  </defs>
  <rect class="cls-1" width="922.07" height="264.05"/>
  <g id="Layer_2" data-name="Layer 2">
    <g>
      <path class="cls-1" d="M576.93,121.46h-63.54v45.21h69.78l-2.18,14.51h-84.21V53.43h83.2v14.51h-66.58v39.01h63.54v14.51Z"/>
      <path class="cls-1" d="M680.41,46.37v108.5c0,8.75,0,17.33.18,26.31h-15.45c-.43-2.46-.75-9.6-.81-13.21-4.59,9.71-14.03,15.42-29.29,15.42-23.94,0-38.65-19.4-38.65-47.79s15.87-49.73,41.62-49.73c16.48,0,23.82,6.66,26.32,11.89v-51.38h16.07ZM613.09,135.1c0,22.49,10.7,34.65,25.32,34.65,21.77,0,26.56-16.06,26.56-36.48s-4.33-33.76-25.29-33.76c-16.42,0-26.58,13.01-26.58,35.6Z"/>
      <path class="cls-1" d="M784.53,172.79c0,29.83-12.32,46.82-42.72,46.82-28.23,0-36.91-15.81-38.59-28.46h16.39c2.72,10.2,10.91,15.61,22.9,15.61,21.14,0,26.38-13.41,26.38-34.84v-7.53c-4.96,10.44-13.5,16.35-29.1,16.35-22.92,0-38.53-18.68-38.53-45.97,0-30.39,17.69-48.89,40.21-48.89,17.75,0,25.31,8.36,27.43,14.53.18-4.22.56-10.39.75-12.33h15.2c-.07,5.39-.3,17.94-.3,26.89v57.84ZM717.94,134.06c0,19.64,10.2,32.96,25.42,32.96,20.09,0,25.96-13.48,25.96-34.17s-5.52-33.35-25.41-33.35c-17.21,0-25.98,14.41-25.98,34.56Z"/>
      <path class="cls-1" d="M818.57,88.07c15.03,44.58,23.31,69.31,25.78,78.77h.18c3.02-10.55,9.65-31.85,24.86-78.77h16.25l-33.48,97.4c-9.47,27.24-16.47,34.15-35.54,34.15-2.92,0-6.42-.18-10.01-.62v-13.99c2.36.3,5.06.49,7.68.49,11.79,0,16.27-5.19,21.77-20.72l-34.88-96.7h17.38Z"/>
    </g>
    <g>
      <path class="cls-1" d="M576.93,121.46h-63.54v45.21h69.78l-2.18,14.51h-84.21V53.43h83.2v14.51h-66.58v39.01h63.54v14.51Z"/>
      <path class="cls-1" d="M680.41,46.37v108.5c0,8.75,0,17.33.18,26.31h-15.45c-.43-2.46-.75-9.6-.81-13.21-4.59,9.71-14.03,15.42-29.29,15.42-23.94,0-38.65-19.4-38.65-47.79s15.87-49.73,41.62-49.73c16.48,0,23.82,6.66,26.32,11.89v-51.38h16.07ZM613.09,135.1c0,22.49,10.7,34.65,25.32,34.65,21.77,0,26.56-16.06,26.56-36.48s-4.33-33.76-25.29-33.76c-16.42,0-26.58,13.01-26.58,35.6Z"/>
      <path class="cls-1" d="M784.53,172.79c0,29.83-12.32,46.82-42.72,46.82-28.23,0-36.91-15.81-38.59-28.46h16.39c2.72,10.2,10.91,15.61,22.9,15.61,21.14,0,26.38-13.41,26.38-34.84v-7.53c-4.96,10.44-13.5,16.35-29.1,16.35-22.92,0-38.53-18.68-38.53-45.97,0-30.39,17.69-48.89,40.21-48.89,17.75,0,25.31,8.36,27.43,14.53.18-4.22.56-10.39.75-12.33h15.2c-.07,5.39-.3,17.94-.3,26.89v57.84ZM717.94,134.06c0,19.64,10.2,32.96,25.42,32.96,20.09,0,25.96-13.48,25.96-34.17s-5.52-33.35-25.41-33.35c-17.21,0-25.98,14.41-25.98,34.56Z"/>
      <path class="cls-1" d="M818.57,88.07c15.03,44.58,23.31,69.31,25.78,78.77h.18c3.02-10.55,9.65-31.85,24.86-78.77h16.25l-33.48,97.4c-9.47,27.24-16.47,34.15-35.54,34.15-2.92,0-6.42-.18-10.01-.62v-13.99c2.36.3,5.06.49,7.68.49,11.79,0,16.27-5.19,21.77-20.72l-34.88-96.7h17.38Z"/>
    </g>
    <g>
      <path class="cls-1" d="M576.93,121.46h-63.54v45.21h69.78l-2.18,14.51h-84.21V53.43h83.2v14.51h-66.58v39.01h63.54v14.51Z"/>
      <path class="cls-1" d="M680.41,46.37v108.5c0,8.75,0,17.33.18,26.31h-15.45c-.43-2.46-.75-9.6-.81-13.21-4.59,9.71-14.03,15.42-29.29,15.42-23.94,0-38.65-19.4-38.65-47.79s15.87-49.73,41.62-49.73c16.48,0,23.82,6.66,26.32,11.89v-51.38h16.07ZM613.09,135.1c0,22.49,10.7,34.65,25.32,34.65,21.77,0,26.56-16.06,26.56-36.48s-4.33-33.76-25.29-33.76c-16.42,0-26.58,13.01-26.58,35.6Z"/>
      <path class="cls-1" d="M784.53,172.79c0,29.83-12.32,46.82-42.72,46.82-28.23,0-36.91-15.81-38.59-28.46h16.39c2.72,10.2,10.91,15.61,22.9,15.61,21.14,0,26.38-13.41,26.38-34.84v-7.53c-4.96,10.44-13.5,16.35-29.1,16.35-22.92,0-38.53-18.68-38.53-45.97,0-30.39,17.69-48.89,40.21-48.89,17.75,0,25.31,8.36,27.43,14.53.18-4.22.56-10.39.75-12.33h15.2c-.07,5.39-.3,17.94-.3,26.89v57.84ZM717.94,134.06c0,19.64,10.2,32.96,25.42,32.96,20.09,0,25.96-13.48,25.96-34.17s-5.52-33.35-25.41-33.35c-17.21,0-25.98,14.41-25.98,34.56Z"/>
      <path class="cls-1" d="M818.57,88.07c15.03,44.58,23.31,69.31,25.78,78.77h.18c3.02-10.55,9.65-31.85,24.86-78.77h16.25l-33.48,97.4c-9.47,27.24-16.47,34.15-35.54,34.15-2.92,0-6.42-.18-10.01-.62v-13.99c2.36.3,5.06.49,7.68.49,11.79,0,16.27-5.19,21.77-20.72l-34.88-96.7h17.38Z"/>
    </g>
    <g>
      <path class="cls-1" d="M576.93,121.46h-63.54v45.21h69.78l-2.18,14.51h-84.21V53.43h83.2v14.51h-66.58v39.01h63.54v14.51Z"/>
      <path class="cls-1" d="M680.41,46.37v108.5c0,8.75,0,17.33.18,26.31h-15.45c-.43-2.46-.75-9.6-.81-13.21-4.59,9.71-14.03,15.42-29.29,15.42-23.94,0-38.65-19.4-38.65-47.79s15.87-49.73,41.62-49.73c16.48,0,23.82,6.66,26.32,11.89v-51.38h16.07ZM613.09,135.1c0,22.49,10.7,34.65,25.32,34.65,21.77,0,26.56-16.06,26.56-36.48s-4.33-33.76-25.29-33.76c-16.42,0-26.58,13.01-26.58,35.6Z"/>
      <path class="cls-1" d="M784.53,172.79c0,29.83-12.32,46.82-42.72,46.82-28.23,0-36.91-15.81-38.59-28.46h16.39c2.72,10.2,10.91,15.61,22.9,15.61,21.14,0,26.38-13.41,26.38-34.84v-7.53c-4.96,10.44-13.5,16.35-29.1,16.35-22.92,0-38.53-18.68-38.53-45.97,0-30.39,17.69-48.89,40.21-48.89,17.75,0,25.31,8.36,27.43,14.53.18-4.22.56-10.39.75-12.33h15.2c-.07,5.39-.3,17.94-.3,26.89v57.84ZM717.94,134.06c0,19.64,10.2,32.96,25.42,32.96,20.09,0,25.96-13.48,25.96-34.17s-5.52-33.35-25.41-33.35c-17.21,0-25.98,14.41-25.98,34.56Z"/>
      <path class="cls-1" d="M818.57,88.07c15.03,44.58,23.31,69.31,25.78,78.77h.18c3.02-10.55,9.65-31.85,24.86-78.77h16.25l-33.48,97.4c-9.47,27.24-16.47,34.15-35.54,34.15-2.92,0-6.42-.18-10.01-.62v-13.99c2.36.3,5.06.49,7.68.49,11.79,0,16.27-5.19,21.77-20.72l-34.88-96.7h17.38Z"/>
    </g>
    <g>
      <path class="cls-1" d="M576.93,121.46h-63.54v45.21h69.78l-2.18,14.51h-84.21V53.43h83.2v14.51h-66.58v39.01h63.54v14.51Z"/>
      <path class="cls-1" d="M680.41,46.37v108.5c0,8.75,0,17.33.18,26.31h-15.45c-.43-2.46-.75-9.6-.81-13.21-4.59,9.71-14.03,15.42-29.29,15.42-23.94,0-38.65-19.4-38.65-47.79s15.87-49.73,41.62-49.73c16.48,0,23.82,6.66,26.32,11.89v-51.38h16.07ZM613.09,135.1c0,22.49,10.7,34.65,25.32,34.65,21.77,0,26.56-16.06,26.56-36.48s-4.33-33.76-25.29-33.76c-16.42,0-26.58,13.01-26.58,35.6Z"/>
      <path class="cls-1" d="M784.53,172.79c0,29.83-12.32,46.82-42.72,46.82-28.23,0-36.91-15.81-38.59-28.46h16.39c2.72,10.2,10.91,15.61,22.9,15.61,21.14,0,26.38-13.41,26.38-34.84v-7.53c-4.96,10.44-13.5,16.35-29.1,16.35-22.92,0-38.53-18.68-38.53-45.97,0-30.39,17.69-48.89,40.21-48.89,17.75,0,25.31,8.36,27.43,14.53.18-4.22.56-10.39.75-12.33h15.2c-.07,5.39-.3,17.94-.3,26.89v57.84ZM717.94,134.06c0,19.64,10.2,32.96,25.42,32.96,20.09,0,25.96-13.48,25.96-34.17s-5.52-33.35-25.41-33.35c-17.21,0-25.98,14.41-25.98,34.56Z"/>
      <path class="cls-1" d="M818.57,88.07c15.03,44.58,23.31,69.31,25.78,78.77h.18c3.02-10.55,9.65-31.85,24.86-78.77h16.25l-33.48,97.4c-9.47,27.24-16.47,34.15-35.54,34.15-2.92,0-6.42-.18-10.01-.62v-13.99c2.36.3,5.06.49,7.68.49,11.79,0,16.27-5.19,21.77-20.72l-34.88-96.7h17.38Z"/>
    </g>
    <g>
      <path class="cls-1" d="M576.93,121.46h-63.54v45.21h69.78l-2.18,14.51h-84.21V53.43h83.2v14.51h-66.58v39.01h63.54v14.51Z"/>
      <path class="cls-1" d="M680.41,46.37v108.5c0,8.75,0,17.33.18,26.31h-15.45c-.43-2.46-.75-9.6-.81-13.21-4.59,9.71-14.03,15.42-29.29,15.42-23.94,0-38.65-19.4-38.65-47.79s15.87-49.73,41.62-49.73c16.48,0,23.82,6.66,26.32,11.89v-51.38h16.07ZM613.09,135.1c0,22.49,10.7,34.65,25.32,34.65,21.77,0,26.56-16.06,26.56-36.48s-4.33-33.76-25.29-33.76c-16.42,0-26.58,13.01-26.58,35.6Z"/>
      <path class="cls-1" d="M784.53,172.79c0,29.83-12.32,46.82-42.72,46.82-28.23,0-36.91-15.81-38.59-28.46h16.39c2.72,10.2,10.91,15.61,22.9,15.61,21.14,0,26.38-13.41,26.38-34.84v-7.53c-4.96,10.44-13.5,16.35-29.1,16.35-22.92,0-38.53-18.68-38.53-45.97,0-30.39,17.69-48.89,40.21-48.89,17.75,0,25.31,8.36,27.43,14.53.18-4.22.56-10.39.75-12.33h15.2c-.07,5.39-.3,17.94-.3,26.89v57.84ZM717.94,134.06c0,19.64,10.2,32.96,25.42,32.96,20.09,0,25.96-13.48,25.96-34.17s-5.52-33.35-25.41-33.35c-17.21,0-25.98,14.41-25.98,34.56Z"/>
      <path class="cls-1" d="M818.57,88.07c15.03,44.58,23.31,69.31,25.78,78.77h.18c3.02-10.55,9.65-31.85,24.86-78.77h16.25l-33.48,97.4c-9.47,27.24-16.47,34.15-35.54,34.15-2.92,0-6.42-.18-10.01-.62v-13.99c2.36.3,5.06.49,7.68.49,11.79,0,16.27-5.19,21.77-20.72l-34.88-96.7h17.38Z"/>
    </g>
    <g>
      <path class="cls-1" d="M576.93,121.46h-63.54v45.21h69.78l-2.18,14.51h-84.21V53.43h83.2v14.51h-66.58v39.01h63.54v14.51Z"/>
      <path class="cls-1" d="M680.41,46.37v108.5c0,8.75,0,17.33.18,26.31h-15.45c-.43-2.46-.75-9.6-.81-13.21-4.59,9.71-14.03,15.42-29.29,15.42-23.94,0-38.65-19.4-38.65-47.79s15.87-49.73,41.62-49.73c16.48,0,23.82,6.66,26.32,11.89v-51.38h16.07ZM613.09,135.1c0,22.49,10.7,34.65,25.32,34.65,21.77,0,26.56-16.06,26.56-36.48s-4.33-33.76-25.29-33.76c-16.42,0-26.58,13.01-26.58,35.6Z"/>
      <path class="cls-1" d="M784.53,172.79c0,29.83-12.32,46.82-42.72,46.82-28.23,0-36.91-15.81-38.59-28.46h16.39c2.72,10.2,10.91,15.61,22.9,15.61,21.14,0,26.38-13.41,26.38-34.84v-7.53c-4.96,10.44-13.5,16.35-29.1,16.35-22.92,0-38.53-18.68-38.53-45.97,0-30.39,17.69-48.89,40.21-48.89,17.75,0,25.31,8.36,27.43,14.53.18-4.22.56-10.39.75-12.33h15.2c-.07,5.39-.3,17.94-.3,26.89v57.84ZM717.94,134.06c0,19.64,10.2,32.96,25.42,32.96,20.09,0,25.96-13.48,25.96-34.17s-5.52-33.35-25.41-33.35c-17.21,0-25.98,14.41-25.98,34.56Z"/>
      <path class="cls-1" d="M818.57,88.07c15.03,44.58,23.31,69.31,25.78,78.77h.18c3.02-10.55,9.65-31.85,24.86-78.77h16.25l-33.48,97.4c-9.47,27.24-16.47,34.15-35.54,34.15-2.92,0-6.42-.18-10.01-.62v-13.99c2.36.3,5.06.49,7.68.49,11.79,0,16.27-5.19,21.77-20.72l-34.88-96.7h17.38Z"/>
    </g>
    <g>
      <path class="cls-1" d="M576.93,121.46h-63.54v45.21h69.78l-2.18,14.51h-84.21V53.43h83.2v14.51h-66.58v39.01h63.54v14.51Z"/>
      <path class="cls-1" d="M680.41,46.37v108.5c0,8.75,0,17.33.18,26.31h-15.45c-.43-2.46-.75-9.6-.81-13.21-4.59,9.71-14.03,15.42-29.29,15.42-23.94,0-38.65-19.4-38.65-47.79s15.87-49.73,41.62-49.73c16.48,0,23.82,6.66,26.32,11.89v-51.38h16.07ZM613.09,135.1c0,22.49,10.7,34.65,25.32,34.65,21.77,0,26.56-16.06,26.56-36.48s-4.33-33.76-25.29-33.76c-16.42,0-26.58,13.01-26.58,35.6Z"/>
      <path class="cls-1" d="M784.53,172.79c0,29.83-12.32,46.82-42.72,46.82-28.23,0-36.91-15.81-38.59-28.46h16.39c2.72,10.2,10.91,15.61,22.9,15.61,21.14,0,26.38-13.41,26.38-34.84v-7.53c-4.96,10.44-13.5,16.35-29.1,16.35-22.92,0-38.53-18.68-38.53-45.97,0-30.39,17.69-48.89,40.21-48.89,17.75,0,25.31,8.36,27.43,14.53.18-4.22.56-10.39.75-12.33h15.2c-.07,5.39-.3,17.94-.3,26.89v57.84ZM717.94,134.06c0,19.64,10.2,32.96,25.42,32.96,20.09,0,25.96-13.48,25.96-34.17s-5.52-33.35-25.41-33.35c-17.21,0-25.98,14.41-25.98,34.56Z"/>
      <path class="cls-1" d="M818.57,88.07c15.03,44.58,23.31,69.31,25.78,78.77h.18c3.02-10.55,9.65-31.85,24.86-78.77h16.25l-33.48,97.4c-9.47,27.24-16.47,34.15-35.54,34.15-2.92,0-6.42-.18-10.01-.62v-13.99c2.36.3,5.06.49,7.68.49,11.79,0,16.27-5.19,21.77-20.72l-34.88-96.7h17.38Z"/>
    </g>
    <g>
      <path class="cls-1" d="M576.93,121.46h-63.54v45.21h69.78l-2.18,14.51h-84.21V53.43h83.2v14.51h-66.58v39.01h63.54v14.51Z"/>
      <path class="cls-1" d="M680.41,46.37v108.5c0,8.75,0,17.33.18,26.31h-15.45c-.43-2.46-.75-9.6-.81-13.21-4.59,9.71-14.03,15.42-29.29,15.42-23.94,0-38.65-19.4-38.65-47.79s15.87-49.73,41.62-49.73c16.48,0,23.82,6.66,26.32,11.89v-51.38h16.07ZM613.09,135.1c0,22.49,10.7,34.65,25.32,34.65,21.77,0,26.56-16.06,26.56-36.48s-4.33-33.76-25.29-33.76c-16.42,0-26.58,13.01-26.58,35.6Z"/>
      <path class="cls-1" d="M784.53,172.79c0,29.83-12.32,46.82-42.72,46.82-28.23,0-36.91-15.81-38.59-28.46h16.39c2.72,10.2,10.91,15.61,22.9,15.61,21.14,0,26.38-13.41,26.38-34.84v-7.53c-4.96,10.44-13.5,16.35-29.1,16.35-22.92,0-38.53-18.68-38.53-45.97,0-30.39,17.69-48.89,40.21-48.89,17.75,0,25.31,8.36,27.43,14.53.18-4.22.56-10.39.75-12.33h15.2c-.07,5.39-.3,17.94-.3,26.89v57.84ZM717.94,134.06c0,19.64,10.2,32.96,25.42,32.96,20.09,0,25.96-13.48,25.96-34.17s-5.52-33.35-25.41-33.35c-17.21,0-25.98,14.41-25.98,34.56Z"/>
      <path class="cls-1" d="M818.57,88.07c15.03,44.58,23.31,69.31,25.78,78.77h.18c3.02-10.55,9.65-31.85,24.86-78.77h16.25l-33.48,97.4c-9.47,27.24-16.47,34.15-35.54,34.15-2.92,0-6.42-.18-10.01-.62v-13.99c2.36.3,5.06.49,7.68.49,11.79,0,16.27-5.19,21.77-20.72l-34.88-96.7h17.38Z"/>
    </g>
    <g>
      <path class="cls-1" d="M576.93,121.46h-63.54v45.21h69.78l-2.18,14.51h-84.21V53.43h83.2v14.51h-66.58v39.01h63.54v14.51Z"/>
      <path class="cls-1" d="M680.41,46.37v108.5c0,8.75,0,17.33.18,26.31h-15.45c-.43-2.46-.75-9.6-.81-13.21-4.59,9.71-14.03,15.42-29.29,15.42-23.94,0-38.65-19.4-38.65-47.79s15.87-49.73,41.62-49.73c16.48,0,23.82,6.66,26.32,11.89v-51.38h16.07ZM613.09,135.1c0,22.49,10.7,34.65,25.32,34.65,21.77,0,26.56-16.06,26.56-36.48s-4.33-33.76-25.29-33.76c-16.42,0-26.58,13.01-26.58,35.6Z"/>
      <path class="cls-1" d="M784.53,172.79c0,29.83-12.32,46.82-42.72,46.82-28.23,0-36.91-15.81-38.59-28.46h16.39c2.72,10.2,10.91,15.61,22.9,15.61,21.14,0,26.38-13.41,26.38-34.84v-7.53c-4.96,10.44-13.5,16.35-29.1,16.35-22.92,0-38.53-18.68-38.53-45.97,0-30.39,17.69-48.89,40.21-48.89,17.75,0,25.31,8.36,27.43,14.53.18-4.22.56-10.39.75-12.33h15.2c-.07,5.39-.3,17.94-.3,26.89v57.84ZM717.94,134.06c0,19.64,10.2,32.96,25.42,32.96,20.09,0,25.96-13.48,25.96-34.17s-5.52-33.35-25.41-33.35c-17.21,0-25.98,14.41-25.98,34.56Z"/>
      <path class="cls-1" d="M818.57,88.07c15.03,44.58,23.31,69.31,25.78,78.77h.18c3.02-10.55,9.65-31.85,24.86-78.77h16.25l-33.48,97.4c-9.47,27.24-16.47,34.15-35.54,34.15-2.92,0-6.42-.18-10.01-.62v-13.99c2.36.3,5.06.49,7.68.49,11.79,0,16.27-5.19,21.77-20.72l-34.88-96.7h17.38Z"/>
    </g>
    <g>
      <path class="cls-1" d="M576.93,121.46h-63.54v45.21h69.78l-2.18,14.51h-84.21V53.43h83.2v14.51h-66.58v39.01h63.54v14.51Z"/>
      <path class="cls-1" d="M680.41,46.37v108.5c0,8.75,0,17.33.18,26.31h-15.45c-.43-2.46-.75-9.6-.81-13.21-4.59,9.71-14.03,15.42-29.29,15.42-23.94,0-38.65-19.4-38.65-47.79s15.87-49.73,41.62-49.73c16.48,0,23.82,6.66,26.32,11.89v-51.38h16.07ZM613.09,135.1c0,22.49,10.7,34.65,25.32,34.65,21.77,0,26.56-16.06,26.56-36.48s-4.33-33.76-25.29-33.76c-16.42,0-26.58,13.01-26.58,35.6Z"/>
      <path class="cls-1" d="M784.53,172.79c0,29.83-12.32,46.82-42.72,46.82-28.23,0-36.91-15.81-38.59-28.46h16.39c2.72,10.2,10.91,15.61,22.9,15.61,21.14,0,26.38-13.41,26.38-34.84v-7.53c-4.96,10.44-13.5,16.35-29.1,16.35-22.92,0-38.53-18.68-38.53-45.97,0-30.39,17.69-48.89,40.21-48.89,17.75,0,25.31,8.36,27.43,14.53.18-4.22.56-10.39.75-12.33h15.2c-.07,5.39-.3,17.94-.3,26.89v57.84ZM717.94,134.06c0,19.64,10.2,32.96,25.42,32.96,20.09,0,25.96-13.48,25.96-34.17s-5.52-33.35-25.41-33.35c-17.21,0-25.98,14.41-25.98,34.56Z"/>
      <path class="cls-1" d="M818.57,88.07c15.03,44.58,23.31,69.31,25.78,78.77h.18c3.02-10.55,9.65-31.85,24.86-78.77h16.25l-33.48,97.4c-9.47,27.24-16.47,34.15-35.54,34.15-2.92,0-6.42-.18-10.01-.62v-13.99c2.36.3,5.06.49,7.68.49,11.79,0,16.27-5.19,21.77-20.72l-34.88-96.7h17.38Z"/>
    </g>
    <g>
      <path class="cls-1" d="M576.93,121.46h-63.54v45.21h69.78l-2.18,14.51h-84.21V53.43h83.2v14.51h-66.58v39.01h63.54v14.51Z"/>
      <path class="cls-1" d="M680.41,46.37v108.5c0,8.75,0,17.33.18,26.31h-15.45c-.43-2.46-.75-9.6-.81-13.21-4.59,9.71-14.03,15.42-29.29,15.42-23.94,0-38.65-19.4-38.65-47.79s15.87-49.73,41.62-49.73c16.48,0,23.82,6.66,26.32,11.89v-51.38h16.07ZM613.09,135.1c0,22.49,10.7,34.65,25.32,34.65,21.77,0,26.56-16.06,26.56-36.48s-4.33-33.76-25.29-33.76c-16.42,0-26.58,13.01-26.58,35.6Z"/>
      <path class="cls-1" d="M784.53,172.79c0,29.83-12.32,46.82-42.72,46.82-28.23,0-36.91-15.81-38.59-28.46h16.39c2.72,10.2,10.91,15.61,22.9,15.61,21.14,0,26.38-13.41,26.38-34.84v-7.53c-4.96,10.44-13.5,16.35-29.1,16.35-22.92,0-38.53-18.68-38.53-45.97,0-30.39,17.69-48.89,40.21-48.89,17.75,0,25.31,8.36,27.43,14.53.18-4.22.56-10.39.75-12.33h15.2c-.07,5.39-.3,17.94-.3,26.89v57.84ZM717.94,134.06c0,19.64,10.2,32.96,25.42,32.96,20.09,0,25.96-13.48,25.96-34.17s-5.52-33.35-25.41-33.35c-17.21,0-25.98,14.41-25.98,34.56Z"/>
      <path class="cls-1" d="M818.57,88.07c15.03,44.58,23.31,69.31,25.78,78.77h.18c3.02-10.55,9.65-31.85,24.86-78.77h16.25l-33.48,97.4c-9.47,27.24-16.47,34.15-35.54,34.15-2.92,0-6.42-.18-10.01-.62v-13.99c2.36.3,5.06.49,7.68.49,11.79,0,16.27-5.19,21.77-20.72l-34.88-96.7h17.38Z"/>
    </g>
    <g>
      <path class="cls-1" d="M576.93,121.46h-63.54v45.21h69.78l-2.18,14.51h-84.21V53.43h83.2v14.51h-66.58v39.01h63.54v14.51Z"/>
      <path class="cls-1" d="M680.41,46.37v108.5c0,8.75,0,17.33.18,26.31h-15.45c-.43-2.46-.75-9.6-.81-13.21-4.59,9.71-14.03,15.42-29.29,15.42-23.94,0-38.65-19.4-38.65-47.79s15.87-49.73,41.62-49.73c16.48,0,23.82,6.66,26.32,11.89v-51.38h16.07ZM613.09,135.1c0,22.49,10.7,34.65,25.32,34.65,21.77,0,26.56-16.06,26.56-36.48s-4.33-33.76-25.29-33.76c-16.42,0-26.58,13.01-26.58,35.6Z"/>
      <path class="cls-1" d="M784.53,172.79c0,29.83-12.32,46.82-42.72,46.82-28.23,0-36.91-15.81-38.59-28.46h16.39c2.72,10.2,10.91,15.61,22.9,15.61,21.14,0,26.38-13.41,26.38-34.84v-7.53c-4.96,10.44-13.5,16.35-29.1,16.35-22.92,0-38.53-18.68-38.53-45.97,0-30.39,17.69-48.89,40.21-48.89,17.75,0,25.31,8.36,27.43,14.53.18-4.22.56-10.39.75-12.33h15.2c-.07,5.39-.3,17.94-.3,26.89v57.84ZM717.94,134.06c0,19.64,10.2,32.96,25.42,32.96,20.09,0,25.96-13.48,25.96-34.17s-5.52-33.35-25.41-33.35c-17.21,0-25.98,14.41-25.98,34.56Z"/>
      <path class="cls-1" d="M818.57,88.07c15.03,44.58,23.31,69.31,25.78,78.77h.18c3.02-10.55,9.65-31.85,24.86-78.77h16.25l-33.48,97.4c-9.47,27.24-16.47,34.15-35.54,34.15-2.92,0-6.42-.18-10.01-.62v-13.99c2.36.3,5.06.49,7.68.49,11.79,0,16.27-5.19,21.77-20.72l-34.88-96.7h17.38Z"/>
    </g>
    <g>
      <path class="cls-1" d="M576.93,121.46h-63.54v45.21h69.78l-2.18,14.51h-84.21V53.43h83.2v14.51h-66.58v39.01h63.54v14.51Z"/>
      <path class="cls-1" d="M680.41,46.37v108.5c0,8.75,0,17.33.18,26.31h-15.45c-.43-2.46-.75-9.6-.81-13.21-4.59,9.71-14.03,15.42-29.29,15.42-23.94,0-38.65-19.4-38.65-47.79s15.87-49.73,41.62-49.73c16.48,0,23.82,6.66,26.32,11.89v-51.38h16.07ZM613.09,135.1c0,22.49,10.7,34.65,25.32,34.65,21.77,0,26.56-16.06,26.56-36.48s-4.33-33.76-25.29-33.76c-16.42,0-26.58,13.01-26.58,35.6Z"/>
      <path class="cls-1" d="M784.53,172.79c0,29.83-12.32,46.82-42.72,46.82-28.23,0-36.91-15.81-38.59-28.46h16.39c2.72,10.2,10.91,15.61,22.9,15.61,21.14,0,26.38-13.41,26.38-34.84v-7.53c-4.96,10.44-13.5,16.35-29.1,16.35-22.92,0-38.53-18.68-38.53-45.97,0-30.39,17.69-48.89,40.21-48.89,17.75,0,25.31,8.36,27.43,14.53.18-4.22.56-10.39.75-12.33h15.2c-.07,5.39-.3,17.94-.3,26.89v57.84ZM717.94,134.06c0,19.64,10.2,32.96,25.42,32.96,20.09,0,25.96-13.48,25.96-34.17s-5.52-33.35-25.41-33.35c-17.21,0-25.98,14.41-25.98,34.56Z"/>
      <path class="cls-1" d="M818.57,88.07c15.03,44.58,23.31,69.31,25.78,78.77h.18c3.02-10.55,9.65-31.85,24.86-78.77h16.25l-33.48,97.4c-9.47,27.24-16.47,34.15-35.54,34.15-2.92,0-6.42-.18-10.01-.62v-13.99c2.36.3,5.06.49,7.68.49,11.79,0,16.27-5.19,21.77-20.72l-34.88-96.7h17.38Z"/>
    </g>
    <g>
      <path class="cls-1" d="M576.93,121.46h-63.54v45.21h69.78l-2.18,14.51h-84.21V53.43h83.2v14.51h-66.58v39.01h63.54v14.51Z"/>
      <path class="cls-1" d="M680.41,46.37v108.5c0,8.75,0,17.33.18,26.31h-15.45c-.43-2.46-.75-9.6-.81-13.21-4.59,9.71-14.03,15.42-29.29,15.42-23.94,0-38.65-19.4-38.65-47.79s15.87-49.73,41.62-49.73c16.48,0,23.82,6.66,26.32,11.89v-51.38h16.07ZM613.09,135.1c0,22.49,10.7,34.65,25.32,34.65,21.77,0,26.56-16.06,26.56-36.48s-4.33-33.76-25.29-33.76c-16.42,0-26.58,13.01-26.58,35.6Z"/>
      <path class="cls-1" d="M784.53,172.79c0,29.83-12.32,46.82-42.72,46.82-28.23,0-36.91-15.81-38.59-28.46h16.39c2.72,10.2,10.91,15.61,22.9,15.61,21.14,0,26.38-13.41,26.38-34.84v-7.53c-4.96,10.44-13.5,16.35-29.1,16.35-22.92,0-38.53-18.68-38.53-45.97,0-30.39,17.69-48.89,40.21-48.89,17.75,0,25.31,8.36,27.43,14.53.18-4.22.56-10.39.75-12.33h15.2c-.07,5.39-.3,17.94-.3,26.89v57.84ZM717.94,134.06c0,19.64,10.2,32.96,25.42,32.96,20.09,0,25.96-13.48,25.96-34.17s-5.52-33.35-25.41-33.35c-17.21,0-25.98,14.41-25.98,34.56Z"/>
      <path class="cls-1" d="M818.57,88.07c15.03,44.58,23.31,69.31,25.78,78.77h.18c3.02-10.55,9.65-31.85,24.86-78.77h16.25l-33.48,97.4c-9.47,27.24-16.47,34.15-35.54,34.15-2.92,0-6.42-.18-10.01-.62v-13.99c2.36.3,5.06.49,7.68.49,11.79,0,16.27-5.19,21.77-20.72l-34.88-96.7h17.38Z"/>
    </g>
    <g>
      <path class="cls-1" d="M576.93,121.46h-63.54v45.21h69.78l-2.18,14.51h-84.21V53.43h83.2v14.51h-66.58v39.01h63.54v14.51Z"/>
      <path class="cls-1" d="M680.41,46.37v108.5c0,8.75,0,17.33.18,26.31h-15.45c-.43-2.46-.75-9.6-.81-13.21-4.59,9.71-14.03,15.42-29.29,15.42-23.94,0-38.65-19.4-38.65-47.79s15.87-49.73,41.62-49.73c16.48,0,23.82,6.66,26.32,11.89v-51.38h16.07ZM613.09,135.1c0,22.49,10.7,34.65,25.32,34.65,21.77,0,26.56-16.06,26.56-36.48s-4.33-33.76-25.29-33.76c-16.42,0-26.58,13.01-26.58,35.6Z"/>
      <path class="cls-1" d="M784.53,172.79c0,29.83-12.32,46.82-42.72,46.82-28.23,0-36.91-15.81-38.59-28.46h16.39c2.72,10.2,10.91,15.61,22.9,15.61,21.14,0,26.38-13.41,26.38-34.84v-7.53c-4.96,10.44-13.5,16.35-29.1,16.35-22.92,0-38.53-18.68-38.53-45.97,0-30.39,17.69-48.89,40.21-48.89,17.75,0,25.31,8.36,27.43,14.53.18-4.22.56-10.39.75-12.33h15.2c-.07,5.39-.3,17.94-.3,26.89v57.84ZM717.94,134.06c0,19.64,10.2,32.96,25.42,32.96,20.09,0,25.96-13.48,25.96-34.17s-5.52-33.35-25.41-33.35c-17.21,0-25.98,14.41-25.98,34.56Z"/>
      <path class="cls-1" d="M818.57,88.07c15.03,44.58,23.31,69.31,25.78,78.77h.18c3.02-10.55,9.65-31.85,24.86-78.77h16.25l-33.48,97.4c-9.47,27.24-16.47,34.15-35.54,34.15-2.92,0-6.42-.18-10.01-.62v-13.99c2.36.3,5.06.49,7.68.49,11.79,0,16.27-5.19,21.77-20.72l-34.88-96.7h17.38Z"/>
    </g>
    <g>
      <path class="cls-1" d="M576.93,121.46h-63.54v45.21h69.78l-2.18,14.51h-84.21V53.43h83.2v14.51h-66.58v39.01h63.54v14.51Z"/>
      <path class="cls-1" d="M680.41,46.37v108.5c0,8.75,0,17.33.18,26.31h-15.45c-.43-2.46-.75-9.6-.81-13.21-4.59,9.71-14.03,15.42-29.29,15.42-23.94,0-38.65-19.4-38.65-47.79s15.87-49.73,41.62-49.73c16.48,0,23.82,6.66,26.32,11.89v-51.38h16.07ZM613.09,135.1c0,22.49,10.7,34.65,25.32,34.65,21.77,0,26.56-16.06,26.56-36.48s-4.33-33.76-25.29-33.76c-16.42,0-26.58,13.01-26.58,35.6Z"/>
      <path class="cls-1" d="M784.53,172.79c0,29.83-12.32,46.82-42.72,46.82-28.23,0-36.91-15.81-38.59-28.46h16.39c2.72,10.2,10.91,15.61,22.9,15.61,21.14,0,26.38-13.41,26.38-34.84v-7.53c-4.96,10.44-13.5,16.35-29.1,16.35-22.92,0-38.53-18.68-38.53-45.97,0-30.39,17.69-48.89,40.21-48.89,17.75,0,25.31,8.36,27.43,14.53.18-4.22.56-10.39.75-12.33h15.2c-.07,5.39-.3,17.94-.3,26.89v57.84ZM717.94,134.06c0,19.64,10.2,32.96,25.42,32.96,20.09,0,25.96-13.48,25.96-34.17s-5.52-33.35-25.41-33.35c-17.21,0-25.98,14.41-25.98,34.56Z"/>
      <path class="cls-1" d="M818.57,88.07c15.03,44.58,23.31,69.31,25.78,78.77h.18c3.02-10.55,9.65-31.85,24.86-78.77h16.25l-33.48,97.4c-9.47,27.24-16.47,34.15-35.54,34.15-2.92,0-6.42-.18-10.01-.62v-13.99c2.36.3,5.06.49,7.68.49,11.79,0,16.27-5.19,21.77-20.72l-34.88-96.7h17.38Z"/>
    </g>
    <g>
      <path class="cls-1" d="M576.93,121.46h-63.54v45.21h69.78l-2.18,14.51h-84.21V53.43h83.2v14.51h-66.58v39.01h63.54v14.51Z"/>
      <path class="cls-1" d="M680.41,46.37v108.5c0,8.75,0,17.33.18,26.31h-15.45c-.43-2.46-.75-9.6-.81-13.21-4.59,9.71-14.03,15.42-29.29,15.42-23.94,0-38.65-19.4-38.65-47.79s15.87-49.73,41.62-49.73c16.48,0,23.82,6.66,26.32,11.89v-51.38h16.07ZM613.09,135.1c0,22.49,10.7,34.65,25.32,34.65,21.77,0,26.56-16.06,26.56-36.48s-4.33-33.76-25.29-33.76c-16.42,0-26.58,13.01-26.58,35.6Z"/>
      <path class="cls-1" d="M784.53,172.79c0,29.83-12.32,46.82-42.72,46.82-28.23,0-36.91-15.81-38.59-28.46h16.39c2.72,10.2,10.91,15.61,22.9,15.61,21.14,0,26.38-13.41,26.38-34.84v-7.53c-4.96,10.44-13.5,16.35-29.1,16.35-22.92,0-38.53-18.68-38.53-45.97,0-30.39,17.69-48.89,40.21-48.89,17.75,0,25.31,8.36,27.43,14.53.18-4.22.56-10.39.75-12.33h15.2c-.07,5.39-.3,17.94-.3,26.89v57.84ZM717.94,134.06c0,19.64,10.2,32.96,25.42,32.96,20.09,0,25.96-13.48,25.96-34.17s-5.52-33.35-25.41-33.35c-17.21,0-25.98,14.41-25.98,34.56Z"/>
      <path class="cls-1" d="M818.57,88.07c15.03,44.58,23.31,69.31,25.78,78.77h.18c3.02-10.55,9.65-31.85,24.86-78.77h16.25l-33.48,97.4c-9.47,27.24-16.47,34.15-35.54,34.15-2.92,0-6.42-.18-10.01-.62v-13.99c2.36.3,5.06.49,7.68.49,11.79,0,16.27-5.19,21.77-20.72l-34.88-96.7h17.38Z"/>
    </g>
    <g>
      <path class="cls-1" d="M576.93,121.46h-63.54v45.21h69.78l-2.18,14.51h-84.21V53.43h83.2v14.51h-66.58v39.01h63.54v14.51Z"/>
      <path class="cls-1" d="M680.41,46.37v108.5c0,8.75,0,17.33.18,26.31h-15.45c-.43-2.46-.75-9.6-.81-13.21-4.59,9.71-14.03,15.42-29.29,15.42-23.94,0-38.65-19.4-38.65-47.79s15.87-49.73,41.62-49.73c16.48,0,23.82,6.66,26.32,11.89v-51.38h16.07ZM613.09,135.1c0,22.49,10.7,34.65,25.32,34.65,21.77,0,26.56-16.06,26.56-36.48s-4.33-33.76-25.29-33.76c-16.42,0-26.58,13.01-26.58,35.6Z"/>
      <path class="cls-1" d="M784.53,172.79c0,29.83-12.32,46.82-42.72,46.82-28.23,0-36.91-15.81-38.59-28.46h16.39c2.72,10.2,10.91,15.61,22.9,15.61,21.14,0,26.38-13.41,26.38-34.84v-7.53c-4.96,10.44-13.5,16.35-29.1,16.35-22.92,0-38.53-18.68-38.53-45.97,0-30.39,17.69-48.89,40.21-48.89,17.75,0,25.31,8.36,27.43,14.53.18-4.22.56-10.39.75-12.33h15.2c-.07,5.39-.3,17.94-.3,26.89v57.84ZM717.94,134.06c0,19.64,10.2,32.96,25.42,32.96,20.09,0,25.96-13.48,25.96-34.17s-5.52-33.35-25.41-33.35c-17.21,0-25.98,14.41-25.98,34.56Z"/>
      <path class="cls-1" d="M818.57,88.07c15.03,44.58,23.31,69.31,25.78,78.77h.18c3.02-10.55,9.65-31.85,24.86-78.77h16.25l-33.48,97.4c-9.47,27.24-16.47,34.15-35.54,34.15-2.92,0-6.42-.18-10.01-.62v-13.99c2.36.3,5.06.49,7.68.49,11.79,0,16.27-5.19,21.77-20.72l-34.88-96.7h17.38Z"/>
    </g>
    <g>
      <path class="cls-1" d="M576.93,121.46h-63.54v45.21h69.78l-2.18,14.51h-84.21V53.43h83.2v14.51h-66.58v39.01h63.54v14.51Z"/>
      <path class="cls-1" d="M680.41,46.37v108.5c0,8.75,0,17.33.18,26.31h-15.45c-.43-2.46-.75-9.6-.81-13.21-4.59,9.71-14.03,15.42-29.29,15.42-23.94,0-38.65-19.4-38.65-47.79s15.87-49.73,41.62-49.73c16.48,0,23.82,6.66,26.32,11.89v-51.38h16.07ZM613.09,135.1c0,22.49,10.7,34.65,25.32,34.65,21.77,0,26.56-16.06,26.56-36.48s-4.33-33.76-25.29-33.76c-16.42,0-26.58,13.01-26.58,35.6Z"/>
      <path class="cls-1" d="M784.53,172.79c0,29.83-12.32,46.82-42.72,46.82-28.23,0-36.91-15.81-38.59-28.46h16.39c2.72,10.2,10.91,15.61,22.9,15.61,21.14,0,26.38-13.41,26.38-34.84v-7.53c-4.96,10.44-13.5,16.35-29.1,16.35-22.92,0-38.53-18.68-38.53-45.97,0-30.39,17.69-48.89,40.21-48.89,17.75,0,25.31,8.36,27.43,14.53.18-4.22.56-10.39.75-12.33h15.2c-.07,5.39-.3,17.94-.3,26.89v57.84ZM717.94,134.06c0,19.64,10.2,32.96,25.42,32.96,20.09,0,25.96-13.48,25.96-34.17s-5.52-33.35-25.41-33.35c-17.21,0-25.98,14.41-25.98,34.56Z"/>
      <path class="cls-1" d="M818.57,88.07c15.03,44.58,23.31,69.31,25.78,78.77h.18c3.02-10.55,9.65-31.85,24.86-78.77h16.25l-33.48,97.4c-9.47,27.24-16.47,34.15-35.54,34.15-2.92,0-6.42-.18-10.01-.62v-13.99c2.36.3,5.06.49,7.68.49,11.79,0,16.27-5.19,21.77-20.72l-34.88-96.7h17.38Z"/>
    </g>
    <g>
      <path class="cls-1" d="M576.93,121.46h-63.54v45.21h69.78l-2.18,14.51h-84.21V53.43h83.2v14.51h-66.58v39.01h63.54v14.51Z"/>
      <path class="cls-1" d="M680.41,46.37v108.5c0,8.75,0,17.33.18,26.31h-15.45c-.43-2.46-.75-9.6-.81-13.21-4.59,9.71-14.03,15.42-29.29,15.42-23.94,0-38.65-19.4-38.65-47.79s15.87-49.73,41.62-49.73c16.48,0,23.82,6.66,26.32,11.89v-51.38h16.07ZM613.09,135.1c0,22.49,10.7,34.65,25.32,34.65,21.77,0,26.56-16.06,26.56-36.48s-4.33-33.76-25.29-33.76c-16.42,0-26.58,13.01-26.58,35.6Z"/>
      <path class="cls-1" d="M784.53,172.79c0,29.83-12.32,46.82-42.72,46.82-28.23,0-36.91-15.81-38.59-28.46h16.39c2.72,10.2,10.91,15.61,22.9,15.61,21.14,0,26.38-13.41,26.38-34.84v-7.53c-4.96,10.44-13.5,16.35-29.1,16.35-22.92,0-38.53-18.68-38.53-45.97,0-30.39,17.69-48.89,40.21-48.89,17.75,0,25.31,8.36,27.43,14.53.18-4.22.56-10.39.75-12.33h15.2c-.07,5.39-.3,17.94-.3,26.89v57.84ZM717.94,134.06c0,19.64,10.2,32.96,25.42,32.96,20.09,0,25.96-13.48,25.96-34.17s-5.52-33.35-25.41-33.35c-17.21,0-25.98,14.41-25.98,34.56Z"/>
      <path class="cls-1" d="M818.57,88.07c15.03,44.58,23.31,69.31,25.78,78.77h.18c3.02-10.55,9.65-31.85,24.86-78.77h16.25l-33.48,97.4c-9.47,27.24-16.47,34.15-35.54,34.15-2.92,0-6.42-.18-10.01-.62v-13.99c2.36.3,5.06.49,7.68.49,11.79,0,16.27-5.19,21.77-20.72l-34.88-96.7h17.38Z"/>
    </g>
    <g>
      <path class="cls-1" d="M576.93,121.46h-63.54v45.21h69.78l-2.18,14.51h-84.21V53.43h83.2v14.51h-66.58v39.01h63.54v14.51Z"/>
      <path class="cls-1" d="M680.41,46.37v108.5c0,8.75,0,17.33.18,26.31h-15.45c-.43-2.46-.75-9.6-.81-13.21-4.59,9.71-14.03,15.42-29.29,15.42-23.94,0-38.65-19.4-38.65-47.79s15.87-49.73,41.62-49.73c16.48,0,23.82,6.66,26.32,11.89v-51.38h16.07ZM613.09,135.1c0,22.49,10.7,34.65,25.32,34.65,21.77,0,26.56-16.06,26.56-36.48s-4.33-33.76-25.29-33.76c-16.42,0-26.58,13.01-26.58,35.6Z"/>
      <path class="cls-1" d="M784.53,172.79c0,29.83-12.32,46.82-42.72,46.82-28.23,0-36.91-15.81-38.59-28.46h16.39c2.72,10.2,10.91,15.61,22.9,15.61,21.14,0,26.38-13.41,26.38-34.84v-7.53c-4.96,10.44-13.5,16.35-29.1,16.35-22.92,0-38.53-18.68-38.53-45.97,0-30.39,17.69-48.89,40.21-48.89,17.75,0,25.31,8.36,27.43,14.53.18-4.22.56-10.39.75-12.33h15.2c-.07,5.39-.3,17.94-.3,26.89v57.84ZM717.94,134.06c0,19.64,10.2,32.96,25.42,32.96,20.09,0,25.96-13.48,25.96-34.17s-5.52-33.35-25.41-33.35c-17.21,0-25.98,14.41-25.98,34.56Z"/>
      <path class="cls-1" d="M818.57,88.07c15.03,44.58,23.31,69.31,25.78,78.77h.18c3.02-10.55,9.65-31.85,24.86-78.77h16.25l-33.48,97.4c-9.47,27.24-16.47,34.15-35.54,34.15-2.92,0-6.42-.18-10.01-.62v-13.99c2.36.3,5.06.49,7.68.49,11.79,0,16.27-5.19,21.77-20.72l-34.88-96.7h17.38Z"/>
    </g>
    <g>
      <path class="cls-1" d="M576.93,121.46h-63.54v45.21h69.78l-2.18,14.51h-84.21V53.43h83.2v14.51h-66.58v39.01h63.54v14.51Z"/>
      <path class="cls-1" d="M680.41,46.37v108.5c0,8.75,0,17.33.18,26.31h-15.45c-.43-2.46-.75-9.6-.81-13.21-4.59,9.71-14.03,15.42-29.29,15.42-23.94,0-38.65-19.4-38.65-47.79s15.87-49.73,41.62-49.73c16.48,0,23.82,6.66,26.32,11.89v-51.38h16.07ZM613.09,135.1c0,22.49,10.7,34.65,25.32,34.65,21.77,0,26.56-16.06,26.56-36.48s-4.33-33.76-25.29-33.76c-16.42,0-26.58,13.01-26.58,35.6Z"/>
      <path class="cls-1" d="M784.53,172.79c0,29.83-12.32,46.82-42.72,46.82-28.23,0-36.91-15.81-38.59-28.46h16.39c2.72,10.2,10.91,15.61,22.9,15.61,21.14,0,26.38-13.41,26.38-34.84v-7.53c-4.96,10.44-13.5,16.35-29.1,16.35-22.92,0-38.53-18.68-38.53-45.97,0-30.39,17.69-48.89,40.21-48.89,17.75,0,25.31,8.36,27.43,14.53.18-4.22.56-10.39.75-12.33h15.2c-.07,5.39-.3,17.94-.3,26.89v57.84ZM717.94,134.06c0,19.64,10.2,32.96,25.42,32.96,20.09,0,25.96-13.48,25.96-34.17s-5.52-33.35-25.41-33.35c-17.21,0-25.98,14.41-25.98,34.56Z"/>
      <path class="cls-1" d="M818.57,88.07c15.03,44.58,23.31,69.31,25.78,78.77h.18c3.02-10.55,9.65-31.85,24.86-78.77h16.25l-33.48,97.4c-9.47,27.24-16.47,34.15-35.54,34.15-2.92,0-6.42-.18-10.01-.62v-13.99c2.36.3,5.06.49,7.68.49,11.79,0,16.27-5.19,21.77-20.72l-34.88-96.7h17.38Z"/>
    </g>
    <g>
      <path class="cls-1" d="M576.93,121.46h-63.54v45.21h69.78l-2.18,14.51h-84.21V53.43h83.2v14.51h-66.58v39.01h63.54v14.51Z"/>
      <path class="cls-1" d="M680.41,46.37v108.5c0,8.75,0,17.33.18,26.31h-15.45c-.43-2.46-.75-9.6-.81-13.21-4.59,9.71-14.03,15.42-29.29,15.42-23.94,0-38.65-19.4-38.65-47.79s15.87-49.73,41.62-49.73c16.48,0,23.82,6.66,26.32,11.89v-51.38h16.07ZM613.09,135.1c0,22.49,10.7,34.65,25.32,34.65,21.77,0,26.56-16.06,26.56-36.48s-4.33-33.76-25.29-33.76c-16.42,0-26.58,13.01-26.58,35.6Z"/>
      <path class="cls-1" d="M784.53,172.79c0,29.83-12.32,46.82-42.72,46.82-28.23,0-36.91-15.81-38.59-28.46h16.39c2.72,10.2,10.91,15.61,22.9,15.61,21.14,0,26.38-13.41,26.38-34.84v-7.53c-4.96,10.44-13.5,16.35-29.1,16.35-22.92,0-38.53-18.68-38.53-45.97,0-30.39,17.69-48.89,40.21-48.89,17.75,0,25.31,8.36,27.43,14.53.18-4.22.56-10.39.75-12.33h15.2c-.07,5.39-.3,17.94-.3,26.89v57.84ZM717.94,134.06c0,19.64,10.2,32.96,25.42,32.96,20.09,0,25.96-13.48,25.96-34.17s-5.52-33.35-25.41-33.35c-17.21,0-25.98,14.41-25.98,34.56Z"/>
      <path class="cls-1" d="M818.57,88.07c15.03,44.58,23.31,69.31,25.78,78.77h.18c3.02-10.55,9.65-31.85,24.86-78.77h16.25l-33.48,97.4c-9.47,27.24-16.47,34.15-35.54,34.15-2.92,0-6.42-.18-10.01-.62v-13.99c2.36.3,5.06.49,7.68.49,11.79,0,16.27-5.19,21.77-20.72l-34.88-96.7h17.38Z"/>
    </g>
    <g>
      <path class="cls-1" d="M576.93,121.46h-63.54v45.21h69.78l-2.18,14.51h-84.21V53.43h83.2v14.51h-66.58v39.01h63.54v14.51Z"/>
      <path class="cls-1" d="M680.41,46.37v108.5c0,8.75,0,17.33.18,26.31h-15.45c-.43-2.46-.75-9.6-.81-13.21-4.59,9.71-14.03,15.42-29.29,15.42-23.94,0-38.65-19.4-38.65-47.79s15.87-49.73,41.62-49.73c16.48,0,23.82,6.66,26.32,11.89v-51.38h16.07ZM613.09,135.1c0,22.49,10.7,34.65,25.32,34.65,21.77,0,26.56-16.06,26.56-36.48s-4.33-33.76-25.29-33.76c-16.42,0-26.58,13.01-26.58,35.6Z"/>
      <path class="cls-1" d="M784.53,172.79c0,29.83-12.32,46.82-42.72,46.82-28.23,0-36.91-15.81-38.59-28.46h16.39c2.72,10.2,10.91,15.61,22.9,15.61,21.14,0,26.38-13.41,26.38-34.84v-7.53c-4.96,10.44-13.5,16.35-29.1,16.35-22.92,0-38.53-18.68-38.53-45.97,0-30.39,17.69-48.89,40.21-48.89,17.75,0,25.31,8.36,27.43,14.53.18-4.22.56-10.39.75-12.33h15.2c-.07,5.39-.3,17.94-.3,26.89v57.84ZM717.94,134.06c0,19.64,10.2,32.96,25.42,32.96,20.09,0,25.96-13.48,25.96-34.17s-5.52-33.35-25.41-33.35c-17.21,0-25.98,14.41-25.98,34.56Z"/>
      <path class="cls-1" d="M818.57,88.07c15.03,44.58,23.31,69.31,25.78,78.77h.18c3.02-10.55,9.65-31.85,24.86-78.77h16.25l-33.48,97.4c-9.47,27.24-16.47,34.15-35.54,34.15-2.92,0-6.42-.18-10.01-.62v-13.99c2.36.3,5.06.49,7.68.49,11.79,0,16.27-5.19,21.77-20.72l-34.88-96.7h17.38Z"/>
    </g>
    <g>
      <path class="cls-1" d="M576.93,121.46h-63.54v45.21h69.78l-2.18,14.51h-84.21V53.43h83.2v14.51h-66.58v39.01h63.54v14.51Z"/>
      <path class="cls-1" d="M680.41,46.37v108.5c0,8.75,0,17.33.18,26.31h-15.45c-.43-2.46-.75-9.6-.81-13.21-4.59,9.71-14.03,15.42-29.29,15.42-23.94,0-38.65-19.4-38.65-47.79s15.87-49.73,41.62-49.73c16.48,0,23.82,6.66,26.32,11.89v-51.38h16.07ZM613.09,135.1c0,22.49,10.7,34.65,25.32,34.65,21.77,0,26.56-16.06,26.56-36.48s-4.33-33.76-25.29-33.76c-16.42,0-26.58,13.01-26.58,35.6Z"/>
      <path class="cls-1" d="M784.53,172.79c0,29.83-12.32,46.82-42.72,46.82-28.23,0-36.91-15.81-38.59-28.46h16.39c2.72,10.2,10.91,15.61,22.9,15.61,21.14,0,26.38-13.41,26.38-34.84v-7.53c-4.96,10.44-13.5,16.35-29.1,16.35-22.92,0-38.53-18.68-38.53-45.97,0-30.39,17.69-48.89,40.21-48.89,17.75,0,25.31,8.36,27.43,14.53.18-4.22.56-10.39.75-12.33h15.2c-.07,5.39-.3,17.94-.3,26.89v57.84ZM717.94,134.06c0,19.64,10.2,32.96,25.42,32.96,20.09,0,25.96-13.48,25.96-34.17s-5.52-33.35-25.41-33.35c-17.21,0-25.98,14.41-25.98,34.56Z"/>
      <path class="cls-1" d="M818.57,88.07c15.03,44.58,23.31,69.31,25.78,78.77h.18c3.02-10.55,9.65-31.85,24.86-78.77h16.25l-33.48,97.4c-9.47,27.24-16.47,34.15-35.54,34.15-2.92,0-6.42-.18-10.01-.62v-13.99c2.36.3,5.06.49,7.68.49,11.79,0,16.27-5.19,21.77-20.72l-34.88-96.7h17.38Z"/>
    </g>
    <g>
      <path class="cls-1" d="M576.93,121.46h-63.54v45.21h69.78l-2.18,14.51h-84.21V53.43h83.2v14.51h-66.58v39.01h63.54v14.51Z"/>
      <path class="cls-1" d="M680.41,46.37v108.5c0,8.75,0,17.33.18,26.31h-15.45c-.43-2.46-.75-9.6-.81-13.21-4.59,9.71-14.03,15.42-29.29,15.42-23.94,0-38.65-19.4-38.65-47.79s15.87-49.73,41.62-49.73c16.48,0,23.82,6.66,26.32,11.89v-51.38h16.07ZM613.09,135.1c0,22.49,10.7,34.65,25.32,34.65,21.77,0,26.56-16.06,26.56-36.48s-4.33-33.76-25.29-33.76c-16.42,0-26.58,13.01-26.58,35.6Z"/>
      <path class="cls-1" d="M784.53,172.79c0,29.83-12.32,46.82-42.72,46.82-28.23,0-36.91-15.81-38.59-28.46h16.39c2.72,10.2,10.91,15.61,22.9,15.61,21.14,0,26.38-13.41,26.38-34.84v-7.53c-4.96,10.44-13.5,16.35-29.1,16.35-22.92,0-38.53-18.68-38.53-45.97,0-30.39,17.69-48.89,40.21-48.89,17.75,0,25.31,8.36,27.43,14.53.18-4.22.56-10.39.75-12.33h15.2c-.07,5.39-.3,17.94-.3,26.89v57.84ZM717.94,134.06c0,19.64,10.2,32.96,25.42,32.96,20.09,0,25.96-13.48,25.96-34.17s-5.52-33.35-25.41-33.35c-17.21,0-25.98,14.41-25.98,34.56Z"/>
      <path class="cls-1" d="M818.57,88.07c15.03,44.58,23.31,69.31,25.78,78.77h.18c3.02-10.55,9.65-31.85,24.86-78.77h16.25l-33.48,97.4c-9.47,27.24-16.47,34.15-35.54,34.15-2.92,0-6.42-.18-10.01-.62v-13.99c2.36.3,5.06.49,7.68.49,11.79,0,16.27-5.19,21.77-20.72l-34.88-96.7h17.38Z"/>
    </g>
    <g>
      <path class="cls-1" d="M576.93,121.46h-63.54v45.21h69.78l-2.18,14.51h-84.21V53.43h83.2v14.51h-66.58v39.01h63.54v14.51Z"/>
      <path class="cls-1" d="M680.41,46.37v108.5c0,8.75,0,17.33.18,26.31h-15.45c-.43-2.46-.75-9.6-.81-13.21-4.59,9.71-14.03,15.42-29.29,15.42-23.94,0-38.65-19.4-38.65-47.79s15.87-49.73,41.62-49.73c16.48,0,23.82,6.66,26.32,11.89v-51.38h16.07ZM613.09,135.1c0,22.49,10.7,34.65,25.32,34.65,21.77,0,26.56-16.06,26.56-36.48s-4.33-33.76-25.29-33.76c-16.42,0-26.58,13.01-26.58,35.6Z"/>
      <path class="cls-1" d="M784.53,172.79c0,29.83-12.32,46.82-42.72,46.82-28.23,0-36.91-15.81-38.59-28.46h16.39c2.72,10.2,10.91,15.61,22.9,15.61,21.14,0,26.38-13.41,26.38-34.84v-7.53c-4.96,10.44-13.5,16.35-29.1,16.35-22.92,0-38.53-18.68-38.53-45.97,0-30.39,17.69-48.89,40.21-48.89,17.75,0,25.31,8.36,27.43,14.53.18-4.22.56-10.39.75-12.33h15.2c-.07,5.39-.3,17.94-.3,26.89v57.84ZM717.94,134.06c0,19.64,10.2,32.96,25.42,32.96,20.09,0,25.96-13.48,25.96-34.17s-5.52-33.35-25.41-33.35c-17.21,0-25.98,14.41-25.98,34.56Z"/>
      <path class="cls-1" d="M818.57,88.07c15.03,44.58,23.31,69.31,25.78,78.77h.18c3.02-10.55,9.65-31.85,24.86-78.77h16.25l-33.48,97.4c-9.47,27.24-16.47,34.15-35.54,34.15-2.92,0-6.42-.18-10.01-.62v-13.99c2.36.3,5.06.49,7.68.49,11.79,0,16.27-5.19,21.77-20.72l-34.88-96.7h17.38Z"/>
    </g>
    <g>
      <path class="cls-1" d="M576.93,121.46h-63.54v45.21h69.78l-2.18,14.51h-84.21V53.43h83.2v14.51h-66.58v39.01h63.54v14.51Z"/>
      <path class="cls-1" d="M680.41,46.37v108.5c0,8.75,0,17.33.18,26.31h-15.45c-.43-2.46-.75-9.6-.81-13.21-4.59,9.71-14.03,15.42-29.29,15.42-23.94,0-38.65-19.4-38.65-47.79s15.87-49.73,41.62-49.73c16.48,0,23.82,6.66,26.32,11.89v-51.38h16.07ZM613.09,135.1c0,22.49,10.7,34.65,25.32,34.65,21.77,0,26.56-16.06,26.56-36.48s-4.33-33.76-25.29-33.76c-16.42,0-26.58,13.01-26.58,35.6Z"/>
      <path class="cls-1" d="M784.53,172.79c0,29.83-12.32,46.82-42.72,46.82-28.23,0-36.91-15.81-38.59-28.46h16.39c2.72,10.2,10.91,15.61,22.9,15.61,21.14,0,26.38-13.41,26.38-34.84v-7.53c-4.96,10.44-13.5,16.35-29.1,16.35-22.92,0-38.53-18.68-38.53-45.97,0-30.39,17.69-48.89,40.21-48.89,17.75,0,25.31,8.36,27.43,14.53.18-4.22.56-10.39.75-12.33h15.2c-.07,5.39-.3,17.94-.3,26.89v57.84ZM717.94,134.06c0,19.64,10.2,32.96,25.42,32.96,20.09,0,25.96-13.48,25.96-34.17s-5.52-33.35-25.41-33.35c-17.21,0-25.98,14.41-25.98,34.56Z"/>
      <path class="cls-1" d="M818.57,88.07c15.03,44.58,23.31,69.31,25.78,78.77h.18c3.02-10.55,9.65-31.85,24.86-78.77h16.25l-33.48,97.4c-9.47,27.24-16.47,34.15-35.54,34.15-2.92,0-6.42-.18-10.01-.62v-13.99c2.36.3,5.06.49,7.68.49,11.79,0,16.27-5.19,21.77-20.72l-34.88-96.7h17.38Z"/>
    </g>
    <g>
      <path class="cls-1" d="M576.93,121.46h-63.54v45.21h69.78l-2.18,14.51h-84.21V53.43h83.2v14.51h-66.58v39.01h63.54v14.51Z"/>
      <path class="cls-1" d="M680.41,46.37v108.5c0,8.75,0,17.33.18,26.31h-15.45c-.43-2.46-.75-9.6-.81-13.21-4.59,9.71-14.03,15.42-29.29,15.42-23.94,0-38.65-19.4-38.65-47.79s15.87-49.73,41.62-49.73c16.48,0,23.82,6.66,26.32,11.89v-51.38h16.07ZM613.09,135.1c0,22.49,10.7,34.65,25.32,34.65,21.77,0,26.56-16.06,26.56-36.48s-4.33-33.76-25.29-33.76c-16.42,0-26.58,13.01-26.58,35.6Z"/>
      <path class="cls-1" d="M784.53,172.79c0,29.83-12.32,46.82-42.72,46.82-28.23,0-36.91-15.81-38.59-28.46h16.39c2.72,10.2,10.91,15.61,22.9,15.61,21.14,0,26.38-13.41,26.38-34.84v-7.53c-4.96,10.44-13.5,16.35-29.1,16.35-22.92,0-38.53-18.68-38.53-45.97,0-30.39,17.69-48.89,40.21-48.89,17.75,0,25.31,8.36,27.43,14.53.18-4.22.56-10.39.75-12.33h15.2c-.07,5.39-.3,17.94-.3,26.89v57.84ZM717.94,134.06c0,19.64,10.2,32.96,25.42,32.96,20.09,0,25.96-13.48,25.96-34.17s-5.52-33.35-25.41-33.35c-17.21,0-25.98,14.41-25.98,34.56Z"/>
      <path class="cls-1" d="M818.57,88.07c15.03,44.58,23.31,69.31,25.78,78.77h.18c3.02-10.55,9.65-31.85,24.86-78.77h16.25l-33.48,97.4c-9.47,27.24-16.47,34.15-35.54,34.15-2.92,0-6.42-.18-10.01-.62v-13.99c2.36.3,5.06.49,7.68.49,11.79,0,16.27-5.19,21.77-20.72l-34.88-96.7h17.38Z"/>
    </g>
    <g>
      <path class="cls-2" d="M576.93,121.46h-63.54v45.21h69.78l-2.18,14.51h-84.21V53.43h83.2v14.51h-66.58v39.01h63.54v14.51Z"/>
      <path class="cls-2" d="M680.41,46.37v108.5c0,8.75,0,17.33.18,26.31h-15.45c-.43-2.46-.75-9.6-.81-13.21-4.59,9.71-14.03,15.42-29.29,15.42-23.94,0-38.65-19.4-38.65-47.79s15.87-49.73,41.62-49.73c16.48,0,23.82,6.66,26.32,11.89v-51.38h16.07ZM613.09,135.1c0,22.49,10.7,34.65,25.32,34.65,21.77,0,26.56-16.06,26.56-36.48s-4.33-33.76-25.29-33.76c-16.42,0-26.58,13.01-26.58,35.6Z"/>
      <path class="cls-2" d="M784.53,172.79c0,29.83-12.32,46.82-42.72,46.82-28.23,0-36.91-15.81-38.59-28.46h16.39c2.72,10.2,10.91,15.61,22.9,15.61,21.14,0,26.38-13.41,26.38-34.84v-7.53c-4.96,10.44-13.5,16.35-29.1,16.35-22.92,0-38.53-18.68-38.53-45.97,0-30.39,17.69-48.89,40.21-48.89,17.75,0,25.31,8.36,27.43,14.53.18-4.22.56-10.39.75-12.33h15.2c-.07,5.39-.3,17.94-.3,26.89v57.84ZM717.94,134.06c0,19.64,10.2,32.96,25.42,32.96,20.09,0,25.96-13.48,25.96-34.17s-5.52-33.35-25.41-33.35c-17.21,0-25.98,14.41-25.98,34.56Z"/>
      <path class="cls-2" d="M818.57,88.07c15.03,44.58,23.31,69.31,25.78,78.77h.18c3.02-10.55,9.65-31.85,24.86-78.77h16.25l-33.48,97.4c-9.47,27.24-16.47,34.15-35.54,34.15-2.92,0-6.42-.18-10.01-.62v-13.99c2.36.3,5.06.49,7.68.49,11.79,0,16.27-5.19,21.77-20.72l-34.88-96.7h17.38Z"/>
    </g>
    <g>
      <path class="cls-2" d="M29.55,181.02V48.26h82.26v13.4H46.62v44.07h62.43v13.4h-62.43v48.48h67.76v13.4H29.55Z"/>
      <path class="cls-2" d="M202.7,181.02l-.92-14.14c-7.9,10.83-15.98,15.79-29.75,15.79-28.09,0-40.58-23.5-40.58-48.66s12.67-47.56,40.03-47.56c13.96,0,23.14,4.77,30.3,16.53v-54.72h16.16v105.77c0,8.81,0,17.99.55,26.99h-15.79ZM174.06,97.84c-20.01,0-25.71,19.83-25.71,36.54,0,18,6.79,36.54,27.73,36.54s25.89-19.46,25.89-36.17c0-17.63-7.34-36.91-27.91-36.91Z"/>
      <path class="cls-2" d="M328.85,120.43v34.34c0,35.62-1.65,63.17-43.7,63.17-18.73,0-38.38-5.69-38.38-28.28h15.79c0,13.22,11.02,17.26,22.4,17.26,19.46,0,25.89-10.83,27.36-27.91.37-4.96.37-10.1.37-15.24-7.16,11.02-17.44,16.34-30.67,16.34-27.73,0-40.76-21.12-40.76-46.64s13.59-46.82,40.58-46.82c13.77,0,24.42,5.51,31.4,17.44v-15.79h16.34c-.73,10.65-.73,21.48-.73,32.13ZM285.88,97.84c-20.38,0-27.36,18.73-27.36,36.17s7.35,35.26,27.18,35.26,27.18-19.1,27.18-36.72c0-16.34-8.26-34.71-26.99-34.71Z"/>
      <path class="cls-2" d="M386.69,215.91h-16.16l15.24-35.07-39.48-92.55h18.36l29.2,75.84,29.01-75.84h16.34l-52.52,127.62Z"/>
    </g>
  </g>
  <g id="Layer_1" data-name="Layer 1">
    <line class="cls-3" x1="483.36" y1="181.18" x2="899.34" y2="181.18"/>
    <line class="cls-3" x1="483.36" y1="217.69" x2="899.34" y2="217.69"/>
    <line class="cls-3" x1="483.36" y1="88.05" x2="899.34" y2="88.05"/>
    <line class="cls-3" x1="483.36" y1="46.37" x2="899.34" y2="46.37"/>
    <line class="cls-3" x1="483.46" y1="53.2" x2="899.44" y2="53.2"/>
    <line class="cls-3" x1="14.46" y1="215.91" x2="455.43" y2="215.91"/>
    <line class="cls-3" x1="14.53" y1="88.11" x2="455.51" y2="88.11"/>
    <line class="cls-3" x1="14.24" y1="48.26" x2="455.21" y2="48.26"/>
    <line class="cls-3" x1="14.46" y1="181.01" x2="453.84" y2="181.03"/>
  </g>
</svg>