<?xml version="1.0" encoding="UTF-8"?>
<svg xmlns="http://www.w3.org/2000/svg" viewBox="0 0 629.17 262.53">
  <defs>
    <style>
      .cls-1 {
        stroke: #d1d3d4;
        stroke-width: .5px;
      }

      .cls-1, .cls-2 {
        fill: none;
        stroke-miterlimit: 10;
      }

      .cls-3 {
        fill: #bb337f;
      }

      .cls-4 {
        fill: #fff;
      }

      .cls-5 {
        fill: #202020;
      }

      .cls-2 {
        stroke: #bb337f;
        stroke-dasharray: 2 5;
        stroke-linecap: round;
      }
    </style>
  </defs>
  <rect class="cls-5" width="629.17" height="262.53"/>
  <g id="Layer_1" data-name="Layer 1">
    <path class="cls-4" d="M460.94,73.82h-68.8c-1.48,13.24-5.6,38.13-7.25,46.96,6.97-7.73,17.75-13.24,34.47-13.24,30.09,0,49.55,20.93,49.55,54.59s-16.85,60.12-56.7,60.12c-29.38,0-50.65-16.27-54.95-44.24h22.28c3.81,15.02,14.61,26.04,33.42,26.04,22.37,0,33.42-15.95,33.42-40.29,0-21.26-8.82-37.51-31.66-37.51-19.9,0-28.07,8.35-33.91,21.55l-20.47-3.77c4.9-21.56,11.18-68.55,13.6-89.29h90.07l-3.08,19.07Z"/>
    <path class="cls-4" d="M213.89,222.5c-30.25,0-56.25-14.25-57.5-49.25h24.25c.75,20,15,31.5,33,31.5,24.75,0,37-21,37-45,0-22.5-11-42.5-34.5-42.5-15.75,0-29.75,10-33.25,26.75h-23.25l4-105.5h101.5v17.75h-80l-3,62c9.75-12,23-18.25,38.25-18.25,34.25,0,54,25.75,54,60,0,37.75-24.5,62.5-60.5,62.5Z"/>
    <path class="cls-3" d="M265.15,38.51v17.75h-11.5s0-17.75,0-17.75c0,0,11.58,0,11.5,0Z"/>
    <path class="cls-3" d="M464.03,54.76l-3.1,19.07h-9.6v-19.07s15.85,0,12.7,0Z"/>
    <line class="cls-1" x1="62.25" y1="219.25" x2="514.16" y2="219.25"/>
    <line class="cls-1" x1="62.25" y1="38.51" x2="514.16" y2="38.51"/>
    <line class="cls-1" x1="62.25" y1="54.76" x2="514.16" y2="54.76"/>
    <path class="cls-2" d="M365.82,62.11s-4.63,43.27-11.62,72.42"/>
    <line class="cls-2" x1="156.39" y1="46.55" x2="152.34" y2="137.15"/>
    <path class="cls-3" d="M182.89,144l-2.25,29.25c.75,20,15.52,31.57,33.52,31.57,24.75,0,37-21,37-45,0-22.5-11-42.38-34.5-42.5-16.62-.08-30.27,9.93-33.77,26.68"/>
    <path class="cls-3" d="M379.66,178.05c3.81,15.02,14.61,26.04,33.42,26.04,22.37,0,33.42-15.95,33.42-40.29,0-21.26-8.82-37.51-31.66-37.51-19.9,0-28.07,8.35-33.91,21.55"/>
    <line class="cls-2" x1="162.53" y1="148" x2="178.92" y2="148"/>
    <line class="cls-2" x1="361.24" y1="148.89" x2="376.96" y2="151.77"/>
  </g>
</svg>