<?xml version="1.0" encoding="UTF-8"?>
<svg xmlns="http://www.w3.org/2000/svg" viewBox="0 0 629.16 261.01">
  <defs>
    <style>
      .cls-1 {
        fill: #231f20;
      }

      .cls-2 {
        stroke: #d1d3d4;
        stroke-width: .5px;
      }

      .cls-2, .cls-3 {
        fill: none;
        stroke-miterlimit: 10;
      }

      .cls-3 {
        stroke: #cc1b81;
        stroke-dasharray: 2 5;
        stroke-linecap: round;
      }

      .cls-4 {
        fill: #fff;
      }

      .cls-5 {
        opacity: .1;
      }
    </style>
  </defs>
  <rect class="cls-1" width="629.16" height="261.01"/>
  <g id="Layer_1" data-name="Layer 1">
    <line class="cls-2" x1="54.33" y1="218.49" x2="575.88" y2="218.49"/>
    <line class="cls-2" x1="54.33" y1="248.09" x2="575.88" y2="248.09"/>
    <line class="cls-2" x1="54.33" y1="246.72" x2="575.88" y2="246.72"/>
    <line class="cls-2" x1="53.28" y1="181.32" x2="574.83" y2="181.32"/>
    <line class="cls-2" x1="53.28" y1="193.34" x2="574.83" y2="193.34"/>
    <g class="cls-5">
      <path class="cls-4" d="M199.69,218.43c-1-5.25-2-12.5-2.25-17.75-10.5,15.25-24.5,20.5-42.75,20.5-23.5,0-44.25-11.75-44.25-37.5,0-37.75,41.5-42.25,72.25-42.25,4.5,0,9,.25,12.5.5v-7.5c0-19.5-7-30.5-27.75-30.5-15.5,0-24.75,5.75-26.25,22.25h-21.5c1.25-27.5,23.5-36.5,47.25-36.5,32.25,0,48,12.25,48,45.25v46.5c0,16.5,2.25,31.25,4,37h-19.25ZM183.94,154.68c-19.5,0-51.5,2.25-51.5,28,0,15.5,13.25,23.75,27.75,23.75,31.75,0,35-25.75,35-51.25-5.25-.5-7.75-.5-11.25-.5Z"/>
    </g>
    <path class="cls-4" d="M250.98,248.09h-18l13.5-54.75h26.25l-21.75,54.75Z"/>
    <path class="cls-3" d="M279.02,198.01c-6.3,15.46-12.6,30.91-18.9,46.37"/>
    <path class="cls-3" d="M236.49,196.24c-3.84,15.36-7.68,30.72-11.52,46.08"/>
    <g class="cls-5">
      <path class="cls-4" d="M450.67,191.12c0,11.53,1,24,1.75,27.65h-20.94c-1-2.82-1.75-8.85-2.07-16.59-4.43,8.45-14.54,19.59-39.14,19.59-29.89,0-42.65-19.46-42.65-38.74,0-28.3,22.22-41.24,59.9-41.24h21.62v-10.8c0-11.17-3.57-24.82-27.29-24.82-21.18,0-24.75,10.51-27.06,20.4h-21.18c1.68-17.47,12.48-37.66,48.93-37.57,30.98.09,48.13,12.71,48.13,41.54v60.59ZM429.3,156.96h-20.52c-25.27,0-38.8,6.98-38.8,24.85,0,13.18,9.04,22.78,24.68,22.78,30.53,0,34.64-20.56,34.64-43.58v-4.06Z"/>
    </g>
    <path class="cls-4" d="M460.27,246.72c13.13-27.88,16.75-49.78,17.85-65.46h22.24c-2.1,22.34-10.19,48.24-22.2,65.46h-17.89Z"/>
    <path class="cls-3" d="M505.91,186.15c.19,8.29-.55,20.83-5.55,35-3.48,9.84-8,17.59-11.88,23.19"/>
    <path class="cls-3" d="M471.06,184.97c-.92,8.73-2.67,19.01-5.91,30.27-2.64,9.18-5.76,17.23-8.86,24.07"/>
  </g>
</svg>