<?xml version="1.0" encoding="UTF-8"?>
<svg xmlns="http://www.w3.org/2000/svg" viewBox="0 0 629.16 261.01">
  <defs>
    <style>
      .cls-1 {
        fill: #231f20;
      }

      .cls-2 {
        opacity: .1;
      }

      .cls-2, .cls-3 {
        fill: #fff;
      }

      .cls-4 {
        stroke: #d1d3d4;
        stroke-width: .5px;
      }

      .cls-4, .cls-5 {
        fill: none;
        stroke-miterlimit: 10;
      }

      .cls-5 {
        stroke: #cc1b81;
        stroke-dasharray: 2 5;
        stroke-linecap: round;
      }
    </style>
  </defs>
  <rect class="cls-1" width="629.16" height="261.01"/>
  <g id="Layer_1" data-name="Layer 1">
    <g>
      <path class="cls-2" d="M197.21,218.49c-1-5.25-2-12.5-2.25-17.75-10.5,15.25-24.5,20.5-42.75,20.5-23.5,0-44.25-11.75-44.25-37.5,0-37.75,41.5-42.25,72.25-42.25,4.5,0,9,.25,12.5.5v-7.5c0-19.5-7-30.5-27.75-30.5-15.5,0-24.75,5.75-26.25,22.25h-21.5c1.25-27.5,23.5-36.5,47.25-36.5,32.25,0,48,12.25,48,45.25v46.5c0,16.5,2.25,31.25,4,37h-19.25ZM181.46,154.74c-19.5,0-51.5,2.25-51.5,28,0,15.5,13.25,23.75,27.75,23.75,31.75,0,35-25.75,35-51.25-5.25-.5-7.75-.5-11.25-.5Z"/>
      <path class="cls-3" d="M244.21,90.74h-17.5l13.75-53h26.25l-22.5,53ZM293.71,90.74h-17.25l14-53h25.75l-22.5,53Z"/>
    </g>
    <g>
      <path class="cls-2" d="M432.44,190.85c0,11.53,1,24,1.75,27.65h-20.94c-1-2.82-1.75-8.85-2.07-16.59-4.43,8.45-14.54,19.59-39.14,19.59-29.88,0-42.65-19.46-42.65-38.74,0-28.3,22.22-41.24,59.9-41.24h21.62v-10.8c0-11.17-3.57-24.82-27.29-24.82-21.18,0-24.75,10.51-27.06,20.4h-21.18c1.68-17.47,12.48-37.66,48.93-37.57,30.98.09,48.13,12.71,48.13,41.54v60.59ZM411.07,156.69h-20.52c-25.27,0-38.8,6.98-38.8,24.85,0,13.18,9.04,22.78,24.68,22.78,30.53,0,34.64-20.56,34.64-43.58v-4.06Z"/>
      <path class="cls-3" d="M440.47,100.94c6.86-22.12,10.84-48.66,11.34-65.99h22.06c-1.1,21.48-9.75,52.28-16.35,65.99h-17.05ZM483.73,100.94c6.66-21.79,10.84-49.54,11.34-65.99h22.06c-1.18,20.27-9.13,51.12-16.26,65.99h-17.14Z"/>
    </g>
    <line class="cls-4" x1="63.41" y1="218.89" x2="584.96" y2="218.89"/>
    <line class="cls-4" x1="63.41" y1="37.75" x2="584.96" y2="37.75"/>
    <line class="cls-4" x1="63.41" y1="34.95" x2="584.96" y2="34.95"/>
    <line class="cls-4" x1="59.27" y1="101.05" x2="580.82" y2="101.05"/>
    <line class="cls-4" x1="63.41" y1="91.01" x2="584.96" y2="91.01"/>
    <path class="cls-5" d="M324.03,42.08c-6.3,15.46-12.6,30.91-18.9,46.37"/>
    <path class="cls-5" d="M231.1,40.3c-3.84,15.36-7.68,30.72-11.52,46.08"/>
    <path class="cls-5" d="M523.08,41.08c-.62,9.89-2.25,21.97-6.05,35.33-2.57,9.01-5.64,16.91-8.71,23.64"/>
    <path class="cls-5" d="M443.79,40.62c-.22,8.78-1.13,19.16-3.46,30.65-1.89,9.36-4.36,17.63-6.9,24.71"/>
  </g>
</svg>