<?xml version="1.0" encoding="UTF-8"?>
<svg id="Layer_1" data-name="Layer 1" xmlns="http://www.w3.org/2000/svg" viewBox="0 0 85.51 119.69">
  <defs>
    <style>
      .cls-1 {
        fill: #231f20;
      }

      .cls-2 {
        fill: #ed1b83;
      }

      .cls-3 {
        opacity: .7;
      }

      .cls-4 {
        fill: #2bb673;
      }
    </style>
  </defs>
  <rect class="cls-1" x="0" y="0" width="85.51" height="119.69"/>
  <g class="cls-3">
    <path class="cls-4" d="M30.06,59.59v1c0,9.3,5,17.8,15.2,17.8,7.2,0,11.9-4.4,13-11.5h8.4c-2,11.9-10.6,17.4-22.1,17.4-15.7,0-23.3-10.5-23.3-25.5s7.6-27,24-27,21.7,13.1,21.7,27.8H30.06ZM44.96,37.78c-9.3,0-13.9,7.6-14.7,16h28c.1-8.3-4.1-16-13.3-16Z"/>
  </g>
  <g class="cls-3">
    <path class="cls-2" d="M30.66,59.39c.1,10.3,5.3,17.7,13.9,17.7,8,0,10.6-4.2,12.2-7.9h8.9c-2,6.5-7.5,15.2-21.4,15.2-15.9,0-22.4-13-22.4-26,0-15.1,7.6-27.1,23-27.1,16.4,0,21.7,13.1,21.7,23.9,0,1.6,0,2.9-.1,4.2H30.66ZM57.66,53.28c-.1-8.4-4.3-15.1-12.9-15.1s-12.9,6.2-13.8,15.1h26.7Z"/>
  </g>
</svg>