<?xml version="1.0" encoding="UTF-8"?>
<svg id="Layer_1" data-name="Layer 1" xmlns="http://www.w3.org/2000/svg" viewBox="0 0 85.51 119.69">
  <defs>
    <style>
      .cls-1 {
        fill: #6cb677;
      }

      .cls-2 {
        fill: #cc1a81;
      }

      .cls-3 {
        fill: #221f20;
      }

      .cls-4 {
        opacity: .7;
      }
    </style>
  </defs>
  <rect class="cls-3" y="0" width="85.51" height="119.69"/>
  <g class="cls-4">
    <path class="cls-1" d="M50.99,42.35c-10.4,0-13.8,5.9-13.8,15.5v27.2h-8.8v-35.7c0-4.9-.1-9.9-.3-14.8h8.6l.4,8.1c3.6-5.9,8.5-8.4,15.4-8.4.9,0,2,.1,2.8.2v8.3c-1.3-.2-2.9-.4-4.3-.4Z"/>
  </g>
  <g class="cls-4">
    <path class="cls-2" d="M28.23,48.15c0-7.1-.1-11.1-.1-13.8h8.6c.1,1.4.3,5.4.3,10.3,2.6-6.8,8.6-11.3,17-11.5v8.7c-10.4.3-17,5.8-17,18.6v24.6h-8.8v-36.9Z"/>
  </g>
</svg>