<?xml version="1.0" encoding="UTF-8"?>
<svg id="Layer_1" data-name="Layer 1" xmlns="http://www.w3.org/2000/svg" viewBox="0 0 629.28 262.8">
  <defs>
    <style>
      .cls-1 {
        fill: #231f20;
      }

      .cls-2 {
        fill: #ed1b83;
      }

      .cls-3 {
        fill: #2bb673;
      }
    </style>
  </defs>
  <rect class="cls-1" width="629.28" height="262.8"/>
  <path class="cls-3" d="M229.75,221.15h-20.42l19.26-44.31-49.88-116.93h23.2l36.89,95.81,36.65-95.81h20.65l-66.35,161.24Z"/>
  <path class="cls-2" d="M373.08,59.45c19.02,56.37,29.46,87.46,32.71,99.53h.23c3.71-13.46,12.06-40.37,31.32-99.53h20.42l-42.22,122.96c-11.83,34.57-20.88,43.15-44.77,43.15-3.71,0-8.12-.23-12.76-.7v-17.63c3.02.23,6.5.46,9.74.46,14.85,0,20.42-6.5,27.38-25.98l-44.08-122.26h22.04Z"/>
</svg>